<svg width="69" height="40" viewBox="0 0 69 40" fill="none" xmlns="http://www.w3.org/2000/svg">
<g clip-path="url(#clip0_2779_12942)">
<path d="M35.5897 0.0312504C35.7004 0.0502842 35.7975 0.0836315 35.8953 0.0860452C36.5656 0.102586 37.2187 0.218861 37.866 0.389678C38.5145 0.5608 39.131 0.80907 39.7222 1.11974C40.2622 1.40347 40.7765 1.73087 41.2329 2.13843C41.5713 2.44063 41.9115 2.74376 42.2211 3.07436C42.632 3.51304 42.9766 4.0054 43.2859 4.52236C43.6687 5.16201 43.972 5.83687 44.1673 6.55481C44.2861 6.99173 44.3639 7.44009 44.453 7.88472C44.5729 8.48258 44.5578 9.08991 44.5332 9.6926C44.5064 10.3485 44.3874 10.9945 44.2095 11.6288C44.0541 12.1831 43.8492 12.7191 43.5906 13.2305C43.2798 13.8449 42.9175 14.4311 42.4554 14.9467C42.1716 15.2634 41.8909 15.5858 41.5796 15.874C41.0523 16.3618 40.4656 16.7714 39.834 17.1188C39.2753 17.4261 38.6944 17.6778 38.081 17.8443C37.6484 17.9617 37.2049 18.0389 36.7659 18.1326C36.2534 18.2421 35.7325 18.2344 35.2149 18.2123C34.8266 18.1956 34.4792 18.0303 34.1802 17.7791C33.8209 17.4772 33.5837 17.1015 33.4851 16.6365C33.3803 16.1419 33.4465 15.6802 33.6839 15.2337C33.9583 14.7174 34.3831 14.398 34.9371 14.2457C35.1061 14.1993 35.2857 14.1662 35.46 14.1681C36.3287 14.1773 37.1422 13.9675 37.8911 13.5387C38.2197 13.3506 38.5233 13.1124 38.8172 12.8712C39.3413 12.4412 39.7186 11.8927 40.0092 11.2848C40.2219 10.8398 40.3763 10.3732 40.4252 9.88062C40.4601 9.52956 40.4977 9.17387 40.4779 8.82342C40.4474 8.2851 40.3267 7.76 40.1156 7.25873C39.8916 6.72676 39.5885 6.24886 39.2066 5.81383C38.6424 5.17093 37.9535 4.72188 37.157 4.42842C36.6686 4.24849 36.1659 4.1437 35.6427 4.14197C33.1847 4.13386 30.7267 4.12483 28.2687 4.11287C27.8331 4.11075 27.4537 3.94422 27.1225 3.66918C26.7607 3.36885 26.5272 2.98852 26.4297 2.52544C26.3269 2.03683 26.3931 1.57653 26.6285 1.13468C26.9026 0.620002 27.323 0.295665 27.8797 0.14392C28.031 0.102701 28.1879 0.0823101 28.3466 0.0418053C28.561 0.0312503 28.771 0.0312503 28.9998 0.042481C29.0327 0.0556517 29.0467 0.0592887 29.0608 0.0592911C31.0656 0.0596321 33.0705 0.0598462 35.0753 0.0586096C35.1085 0.0585891 35.1416 0.0407656 35.1747 0.03125C35.3086 0.0312503 35.4425 0.0312503 35.5897 0.0312504Z" fill="#F91E2F"/>
<path d="M0.0273438 27.6808C1.66837 27.6674 3.30955 27.6546 4.95035 27.674C5.57428 27.6813 6.17189 27.8589 6.70347 28.1974C6.96942 28.3667 7.23156 28.5561 7.45259 28.779C7.87677 29.2066 8.15299 29.7305 8.24379 30.3284C8.29794 30.6849 8.32373 31.0536 8.29904 31.4125C8.25892 31.9956 8.05057 32.5304 7.69708 33.0026C7.11609 33.7788 6.32254 34.1913 5.38241 34.3465C5.17983 34.38 4.97292 34.4011 4.76779 34.4028C4.01216 34.4094 3.25644 34.4054 2.48748 34.4054C2.48748 35.423 2.48748 36.4333 2.48748 37.4604C1.66756 37.4604 0.860833 37.4604 0.0407244 37.4604C0.0273438 34.205 0.0273438 30.9496 0.0273438 27.6808ZM2.61518 32.1785C3.11464 32.1785 3.61435 32.1877 4.11347 32.1746C4.36894 32.168 4.62969 32.1475 4.87699 32.0876C5.42486 31.9548 5.82644 31.5456 5.76593 30.9273C5.73115 30.5719 5.5517 30.3107 5.24553 30.132C4.94265 29.9553 4.60861 29.9009 4.26657 29.8963C3.72439 29.889 3.18205 29.8944 2.63977 29.8944C2.58955 29.8944 2.53933 29.8944 2.48277 29.8944C2.48277 30.6404 2.48424 31.3676 2.48088 32.0949C2.48046 32.1846 2.52732 32.1824 2.61518 32.1785Z" fill="#F91E2F"/>
<path d="M19.2007 40.0315C18.9777 39.9844 18.7646 39.9489 18.5593 39.8875C18.2327 39.7898 17.9114 39.6748 17.5565 39.5567C17.7348 38.9824 17.9039 38.4376 18.0724 37.8949C18.3359 38.0046 18.5804 38.1283 18.8384 38.2087C19.208 38.3238 19.5672 38.2822 19.8417 37.9826C19.9471 37.8675 20.0302 37.7068 20.0585 37.5548C20.0782 37.4492 19.9907 37.3214 19.9444 37.2062C19.6826 36.5547 19.4205 35.9032 19.155 35.2532C18.8491 34.5045 18.5368 33.7584 18.2325 33.0091C17.9839 32.3971 17.7444 31.7814 17.4978 31.1685C17.3649 30.8384 17.2254 30.511 17.0896 30.182C17.0811 30.1614 17.0784 30.1383 17.0703 30.1053C17.9089 30.1053 18.7384 30.1053 19.5791 30.1053C20.1399 31.6844 20.7032 33.2706 21.2665 34.8569C21.2766 34.8573 21.2867 34.8578 21.2967 34.8583C21.8247 33.2751 22.3527 31.6919 22.883 30.1016C23.7036 30.1016 24.5305 30.1016 25.3743 30.1016C25.2998 30.3038 25.2284 30.5045 25.1523 30.7035C24.8849 31.4023 24.6152 32.1002 24.3476 32.799C24.1113 33.4157 23.877 34.0331 23.6412 34.65C23.3228 35.4825 23.0054 36.3154 22.6843 37.1468C22.5495 37.4959 22.425 37.8508 22.2619 38.1865C22.0975 38.5247 21.8872 38.8369 21.6315 39.1207C21.2434 39.5514 20.7817 39.8474 20.2192 39.9856C20.1652 39.9989 20.1086 40.0022 20.0486 40.0208C19.7673 40.0315 19.4907 40.0315 19.2007 40.0315Z" fill="#F91E2F"/>
<path d="M68.4645 36.9584C68.0924 37.2859 67.6666 37.5088 67.1903 37.5883C66.2956 37.7375 65.4797 37.5689 64.854 36.8537C64.5746 36.5343 64.4075 36.1513 64.3552 35.7269C64.3329 35.5451 64.3263 35.3605 64.3259 35.1771C64.3232 34.1357 64.3246 33.0942 64.3246 32.0391C64.0045 32.0391 63.6885 32.0391 63.3633 32.0391C63.3633 31.3863 63.3633 30.7471 63.3633 30.0942C63.6774 30.0942 63.9934 30.0942 64.3226 30.0942C64.3226 29.4129 64.3226 28.745 64.3226 28.0703C65.099 28.0703 65.8619 28.0703 66.6332 28.0703C66.6332 28.7407 66.6332 29.4051 66.6332 30.0831C67.1475 30.0831 67.6537 30.0831 68.1693 30.0831C68.1693 30.7358 68.1693 31.375 68.1693 32.0278C67.6654 32.0278 67.1592 32.0278 66.6372 32.0278C66.6372 32.0917 66.6372 32.1423 66.6372 32.1929C66.6372 33.0349 66.6351 33.8768 66.6396 34.7188C66.6403 34.8379 66.6682 34.958 66.6928 35.0757C66.7903 35.5424 67.2428 35.6922 67.6104 35.5552C67.7386 35.5074 67.8616 35.4455 68.0085 35.3805C68.0529 35.5216 68.0999 35.677 68.1508 35.8312C68.2474 36.1239 68.3463 36.4158 68.4543 36.7112C68.4645 36.7914 68.4645 36.8685 68.4645 36.9584Z" fill="#F91E2F"/>
<path d="M35.1599 0.03125C35.1402 0.0407656 35.107 0.0585891 35.0739 0.0586096C33.0691 0.0598462 31.0642 0.0596321 29.0594 0.0592911C29.0453 0.0592887 29.0312 0.0556517 29.0117 0.042481C31.053 0.0312503 33.0998 0.0312503 35.1599 0.03125Z" fill="#F91E2F"/>
<path d="M33.6313 11.1654C32.5616 11.1654 31.5061 11.1654 30.4336 11.1654C30.4336 11.2285 30.4336 11.2837 30.4336 11.3389C30.4336 14.241 30.437 17.1431 30.43 20.0452C30.4289 20.5021 30.2384 20.9002 29.9357 21.2421C29.6418 21.5738 29.2795 21.7881 28.8447 21.88C28.2351 22.009 27.6779 21.8874 27.1823 21.5155C26.733 21.1785 26.4684 20.7271 26.4065 20.1635C26.3979 20.0847 26.3805 20.0061 26.3805 19.9273C26.3791 16.3259 26.3772 12.7245 26.3819 9.12302C26.3825 8.64483 26.5455 8.21842 26.8553 7.84408C27.1766 7.45587 27.5918 7.24396 28.0722 7.1432C28.1997 7.11645 28.3338 7.11249 28.4649 7.11239C30.7961 7.11066 33.1273 7.10599 35.4585 7.11357C36.4469 7.11678 37.2895 7.79354 37.4569 8.78351C37.5807 9.51523 37.3773 10.1487 36.835 10.6531C36.4813 10.9821 36.0539 11.1675 35.5581 11.1659C34.9206 11.1638 34.2831 11.1654 33.6313 11.1654Z" fill="#F91E2F"/>
<path d="M36.0009 30.0911C36.633 30.0911 37.2508 30.0911 37.8824 30.0911C37.8824 30.3859 37.8824 30.6726 37.8824 30.9578C38.1099 30.7716 38.3199 30.5782 38.5513 30.4153C38.9246 30.1524 39.3455 30.002 39.8008 29.9474C40.5279 29.8603 41.2262 29.9336 41.881 30.2897C42.3818 30.562 42.7773 30.945 43.0776 31.4239C43.3895 31.9213 43.5857 32.4701 43.6437 33.0506C43.6871 33.4846 43.668 33.927 43.6489 34.3645C43.626 34.8903 43.4662 35.3851 43.2245 35.8508C42.744 36.7766 42.0109 37.3785 40.9714 37.5717C40.2149 37.7122 39.4784 37.6501 38.7935 37.2797C38.5584 37.1526 38.3511 36.9722 38.1383 36.8069C38.0541 36.7416 37.9894 36.6512 37.8868 36.5409C37.8868 37.6914 37.8868 38.7958 37.8868 39.9064C37.0747 39.9064 36.2769 39.9064 35.4688 39.9064C35.4688 36.6419 35.4688 33.3759 35.4688 30.0911C35.6385 30.0911 35.8126 30.0911 36.0009 30.0911ZM40.3302 35.4322C40.6996 35.2866 40.959 35.0165 41.1314 34.6718C41.3185 34.2978 41.3813 33.8996 41.3166 33.4768C41.2592 33.1018 41.1311 32.763 40.8682 32.494C40.4363 32.0521 39.9068 31.8734 39.2901 31.975C38.7702 32.0607 38.3841 32.3313 38.132 32.7964C37.8803 33.2608 37.8467 33.7581 37.9501 34.2577C38.0393 34.689 38.2534 35.0654 38.636 35.3164C39.1695 35.6663 39.7311 35.6896 40.3302 35.4322Z" fill="#F91E2F"/>
<path d="M26.4895 35.1079C26.6925 34.8567 26.8881 34.6128 27.0904 34.3744C27.1048 34.3574 27.1762 34.3683 27.2064 34.3884C27.4498 34.5498 27.683 34.7278 27.9323 34.8793C28.4179 35.1746 28.9354 35.4018 29.5014 35.4853C29.8391 35.5351 30.1824 35.5664 30.5235 35.5688C30.8556 35.5712 31.1809 35.4917 31.4506 35.2815C31.8021 35.0075 31.8855 34.3673 31.3667 34.1121C30.9711 33.9174 30.5452 33.8328 30.1266 33.7191C29.5291 33.5569 28.9283 33.4064 28.3342 33.2326C27.7842 33.0716 27.2802 32.8081 26.8659 32.4095C26.5605 32.1156 26.3494 31.7484 26.2711 31.326C26.1405 30.6214 26.1724 29.9285 26.4967 29.2732C26.767 28.7271 27.1831 28.3159 27.7089 28.015C28.1692 27.7516 28.6695 27.5796 29.1922 27.5336C29.698 27.4892 30.211 27.5129 30.7204 27.5259C31.2494 27.5394 31.758 27.6741 32.2547 27.8476C32.8196 28.0449 33.3358 28.3346 33.8045 28.7072C33.954 28.8261 33.9544 28.8285 33.8364 28.9967C33.4819 29.5018 33.1265 30.0063 32.7707 30.5105C32.7233 30.5777 32.6823 30.5943 32.5989 30.5331C31.9716 30.0727 31.2895 29.7322 30.5119 29.6063C30.1162 29.5422 29.7241 29.509 29.3319 29.6327C28.9676 29.7476 28.7164 29.969 28.6802 30.3609C28.6608 30.5714 28.7302 30.7764 28.9107 30.916C29.1421 31.0951 29.4136 31.1908 29.6924 31.2621C30.4539 31.4566 31.2246 31.6193 31.9771 31.8436C32.6124 32.0329 33.2131 32.3147 33.6706 32.8266C33.9478 33.1368 34.1199 33.501 34.1716 33.909C34.2089 34.2031 34.2221 34.5054 34.2 34.8006C34.1584 35.357 33.9723 35.8688 33.624 36.3124C33.0912 36.991 32.3669 37.3339 31.5432 37.5202C30.9315 37.6585 30.314 37.6458 29.6987 37.623C29.1934 37.6043 28.6938 37.5052 28.2065 37.3579C27.5363 37.1554 26.9047 36.8733 26.3362 36.4605C26.1401 36.3181 25.9507 36.1663 25.7344 36.0006C25.9932 35.6952 26.2384 35.4058 26.4895 35.1079Z" fill="#F91E2F"/>
<path d="M57.4217 33.1904C57.4162 34.6152 57.4162 36.0279 57.4162 37.4499C56.6068 37.4499 55.8057 37.4499 54.9961 37.4499C54.9961 35.003 54.9961 32.5555 54.9961 30.1005C55.7995 30.1005 56.6006 30.1005 57.4202 30.1005C57.4202 30.3474 57.4202 30.5897 57.4202 30.855C57.8816 30.3321 58.4278 30.0328 59.0944 29.947C59.8143 29.8545 60.4967 29.9464 61.107 30.3557C61.7129 30.762 62.0609 31.3497 62.2085 32.0571C62.2446 32.2299 62.2653 32.4093 62.2657 32.5857C62.2701 34.1512 62.2683 35.7167 62.2683 37.2822C62.2683 37.3343 62.2683 37.3864 62.2683 37.4489C61.5007 37.4489 60.7375 37.4489 59.9556 37.4489C59.9556 37.4027 59.9556 37.3525 59.9556 37.3022C59.9556 36.008 59.9599 34.7137 59.9527 33.4194C59.9509 33.0836 59.9028 32.7493 59.6979 32.465C59.486 32.171 59.2009 31.9873 58.8365 31.9503C58.2281 31.8886 57.6599 32.2619 57.4865 32.8358C57.4532 32.9458 57.4463 33.0639 57.4217 33.1904Z" fill="#F91E2F"/>
<path d="M16.1265 37.4566C15.3625 37.4568 14.6122 37.4568 13.8503 37.4568C13.8503 37.2618 13.8503 37.0787 13.8503 36.8731C13.7229 36.9681 13.6159 37.0532 13.5035 37.1306C13.019 37.464 12.4836 37.6212 11.8936 37.6323C11.2929 37.6436 10.7215 37.5491 10.1941 37.2554C9.57432 36.9103 9.14864 36.4121 9.02391 35.6949C8.91575 35.073 9.02504 34.4912 9.40707 33.9831C9.722 33.5641 10.1479 33.2854 10.6324 33.0868C11.2428 32.8365 11.883 32.7821 12.5236 32.8423C12.9707 32.8843 13.4083 33.0265 13.8416 33.122C13.8401 32.4625 13.4506 31.9575 12.7169 31.801C12.1178 31.6733 11.5502 31.7761 10.9969 32.0046C10.7916 32.0893 10.5929 32.1901 10.379 32.2893C10.3577 32.256 10.3299 32.2201 10.3101 32.1802C10.0989 31.756 9.88886 31.3312 9.67853 30.9065C9.59945 30.7469 9.59934 30.7466 9.76507 30.6774C10.1189 30.5295 10.4667 30.3638 10.8285 30.2389C11.2713 30.086 11.7289 29.9856 12.1991 29.946C12.8674 29.8896 13.5289 29.8865 14.171 30.1187C14.9213 30.39 15.5024 30.8614 15.862 31.5802C16.0284 31.9129 16.1475 32.2688 16.1584 32.6438C16.1791 33.3501 16.1851 34.057 16.189 34.7638C16.1938 35.6153 16.191 36.4668 16.1881 37.3183C16.1879 37.3644 16.1569 37.4104 16.1265 37.4566ZM11.9966 36.0755C12.1341 36.0979 12.2757 36.153 12.4081 36.136C12.6678 36.1025 12.9321 36.0555 13.1767 35.9655C13.5019 35.8459 13.7635 35.6304 13.818 35.2592C13.8485 35.0507 13.8321 34.8357 13.8521 34.625C13.8631 34.509 13.8035 34.4623 13.7156 34.4352C13.3131 34.3109 12.8972 34.2454 12.4794 34.2387C12.2087 34.2343 11.9385 34.3079 11.7064 34.4737C11.4104 34.6851 11.266 34.9769 11.3144 35.3303C11.3665 35.7105 11.6116 35.9491 11.9966 36.0755Z" fill="#F91E2F"/>
<path d="M44.9688 31.6908C44.9688 31.154 44.9688 30.6315 44.9688 30.1005C45.7781 30.1005 46.5791 30.1005 47.398 30.1005C47.398 30.5152 47.398 30.9289 47.398 31.3426C47.9607 30.4445 48.7231 29.9154 49.8146 29.9141C49.8146 30.5981 49.8146 31.2659 49.8146 31.9444C49.4459 31.942 49.0883 31.9977 48.7468 32.1289C48.1521 32.3576 47.7316 32.7632 47.5429 33.3796C47.481 33.5819 47.4328 33.7971 47.4291 34.0073C47.4091 35.1325 47.4051 36.258 47.3954 37.3833C47.3952 37.4019 47.3932 37.4206 47.3915 37.4486C46.5884 37.4486 45.7874 37.4486 44.9688 37.4486C44.9688 35.5353 44.9688 33.6202 44.9688 31.6908Z" fill="#F91E2F"/>
<path d="M53.3317 30.8912C53.3317 33.0832 53.3317 35.2608 53.3317 37.4482C52.525 37.4482 51.7242 37.4482 50.9141 37.4482C50.9141 35.0045 50.9141 32.5579 50.9141 30.1016C51.7115 30.1016 52.5123 30.1016 53.3317 30.1016C53.3317 30.3579 53.3317 30.6174 53.3317 30.8912Z" fill="#F91E2F"/>
<path d="M53.3919 27.9749C53.409 28.457 53.0203 28.9659 52.5846 29.1073C52.0582 29.2781 51.5793 29.1897 51.1844 28.7812C50.6739 28.2532 50.7437 27.315 51.3499 26.8834C51.7734 26.5818 52.2251 26.539 52.6705 26.7421C53.1144 26.9445 53.3819 27.317 53.3918 27.833C53.3926 27.8757 53.3919 27.9185 53.3919 27.9749Z" fill="#F91E2F"/>
</g>
<defs>
<clipPath id="clip0_2779_12942">
<rect width="68.4368" height="40" fill="white"/>
</clipPath>
</defs>
</svg>
