<svg width="20" height="20" viewBox="0 0 20 20" fill="none" xmlns="http://www.w3.org/2000/svg">
<g clip-path="url(#clip0_2332_1589)">
<path d="M19.2327 3.699L6.98363 1.10676C6.46539 0.997121 5.95173 1.33147 5.84209 1.84971L5.60938 3.34521L19.7427 6.33604L19.9754 4.84054C20.0851 4.3225 19.7509 3.80868 19.2327 3.699Z" fill="#F91D2F"/>
<path d="M14.0854 6.65248C13.9423 6.13725 13.4039 5.8327 12.8888 5.97555L10.5635 6.62108L5.08167 5.46094L4.47879 8.30948L0.711973 9.35498C0.196937 9.49786 -0.107607 10.0363 0.0352366 10.5514L2.15806 18.201C2.30113 18.7161 2.8396 19.0208 3.35464 18.8778L15.5314 15.4986C16.0465 15.3555 16.351 14.8172 16.2082 14.302L15.8438 12.9888L17.2095 13.2775C17.7277 13.3873 18.2414 13.053 18.351 12.5347L19.215 8.45181L14.2959 7.41085L14.0854 6.65248ZM15.4916 10.5403L15.7928 9.11707C15.838 8.90397 16.0493 8.76651 16.2624 8.81151L17.6856 9.11286C17.8989 9.15809 18.0364 9.36916 17.9914 9.58247L17.6903 11.0057C17.645 11.2188 17.4337 11.3565 17.2206 11.3113L15.7974 11.0102C15.5839 10.9648 15.4464 10.7535 15.4916 10.5403ZM0.92387 10.1184L4.29366 9.18351L12.2447 6.97706L13.1003 6.73934C13.1159 6.73513 13.1315 6.73314 13.1467 6.73314C13.2153 6.73314 13.2974 6.77817 13.3214 6.86441L13.4218 7.22618L13.7366 8.3603L1.214 11.8354L0.798804 10.3397C0.77279 10.2458 0.830046 10.1444 0.92387 10.1184ZM15.4446 14.5136C15.4606 14.5717 15.4438 14.6197 15.4268 14.6497C15.41 14.6797 15.3776 14.719 15.3195 14.735L3.14294 18.1142C3.12754 18.1184 3.11173 18.1206 3.0965 18.1206C3.02787 18.1206 2.94581 18.0753 2.92182 17.9891L1.68365 13.5272L14.2062 10.0519L14.97 12.8038L15.4446 14.5136Z" fill="#F91D2F"/>
<path d="M5.11414 14.8215C5.05571 14.6114 4.83639 14.4874 4.62629 14.5456L3.20423 14.9404C2.99432 14.9986 2.87007 15.2181 2.9285 15.4282L3.32308 16.8501C3.38151 17.0602 3.60083 17.1843 3.81093 17.1258L5.233 16.7313C5.4431 16.673 5.56715 16.4535 5.50891 16.2434L5.11414 14.8215Z" fill="#F91D2F"/>
</g>
<defs>
<clipPath id="clip0_2332_1589">
<rect width="20" height="20" fill="white"/>
</clipPath>
</defs>
</svg>
