<svg width="20" height="20" viewBox="0 0 20 20" fill="none" xmlns="http://www.w3.org/2000/svg">
<g clip-path="url(#clip0_2332_764)">
<path d="M19.0826 18.1797H0.908916C0.4068 18.1797 0 18.5865 0 19.089C0 19.5907 0.4068 19.9975 0.908916 19.9975H19.0821C19.5843 19.9975 19.9911 19.5907 19.9911 19.089C19.9906 18.5865 19.5838 18.1797 19.0826 18.1797Z" fill="#F91D2F"/>
<path d="M2.04173 15.821C1.53961 15.821 1.13281 16.2278 1.13281 16.7299C1.13281 17.232 1.53961 17.6392 2.04173 17.6392H17.9435C18.4456 17.6392 18.8524 17.232 18.8524 16.7299C18.8524 16.2278 18.4456 15.821 17.9435 15.821H17.7167V7.64244H17.9435C18.195 7.64244 18.3976 7.43904 18.3976 7.18841C18.3976 6.93778 18.1942 6.73438 17.9435 6.73438H2.04173C1.79067 6.73438 1.5877 6.93778 1.5877 7.18841C1.5877 7.43904 1.7911 7.64244 2.04173 7.64244H2.26896V15.8206L2.04173 15.821ZM15.8989 7.64244V15.8206H13.173V7.64244H15.8989ZM11.3552 7.64244V15.8206H8.62925V7.64244H11.3552ZM4.08594 7.64244H6.81184V15.8206H4.08594V7.64244Z" fill="#F91D2F"/>
<path d="M0.908934 5.91386H19.0822C19.0851 5.91386 19.0886 5.91386 19.0911 5.91386C19.5936 5.91386 20 5.50706 20 5.00494C20 4.6058 19.743 4.26751 19.386 4.14496L10.3692 0.087598C10.1321 -0.0187827 9.86108 -0.0187827 9.62364 0.087598L0.536176 4.17645C0.145121 4.35261 -0.0697685 4.77728 0.0204424 5.196C0.110228 5.61471 0.480433 5.91386 0.908934 5.91386Z" fill="#F91D2F"/>
</g>
<defs>
<clipPath id="clip0_2332_764">
<rect width="20" height="20" fill="white"/>
</clipPath>
</defs>
</svg>
