<svg width="20" height="20" viewBox="0 0 20 20" fill="none" xmlns="http://www.w3.org/2000/svg">
<g clip-path="url(#clip0_2332_3300)">
<path d="M7.79688 18.7188H12.1971V19.9981H7.79688V18.7188Z" fill="#F91D2F"/>
<path d="M9.35938 0H10.6414V1.71825H9.35938V0Z" fill="#F91D2F"/>
<path d="M4.8159 3.99843L3.53906 2.72527L4.44526 1.82031L5.7221 3.09352L4.8159 3.99843Z" fill="#F91D2F"/>
<path d="M1.36719 7.625H3.30403V8.90432H1.36719V7.625Z" fill="#F91D2F"/>
<path d="M16.6953 7.625H18.6321V8.90432H16.6953V7.625Z" fill="#F91D2F"/>
<path d="M15.1874 3.99843L14.2812 3.09352L15.5581 1.82031L16.4643 2.72527L15.1874 3.99843Z" fill="#F91D2F"/>
<path d="M10.0639 3.35193C7.33861 3.31906 5.07668 5.50629 5.02438 8.22928C5.00164 9.41432 5.39361 10.5071 6.06502 11.3725C7.16386 12.7888 7.75728 14.5316 7.75728 16.3237V16.3239C7.75728 16.6688 8.03715 16.9485 8.38237 16.9485H11.6228C11.968 16.9485 12.2478 16.6688 12.2478 16.3239V16.3238C12.2478 14.5204 12.8639 12.7789 13.9603 11.3463C14.601 10.5091 14.9817 9.46253 14.9817 8.32706C14.9816 5.59958 12.7855 3.38471 10.0639 3.35193ZM9.8619 9.95287C9.64348 10.186 9.26826 10.2036 9.0289 9.99197L7.83591 8.93688L8.62865 8.04056L9.38613 8.71047L11.3361 6.62898L12.2094 7.4471L9.8619 9.95287Z" fill="#F91D2F"/>
</g>
<defs>
<clipPath id="clip0_2332_3300">
<rect width="20" height="20" fill="white"/>
</clipPath>
</defs>
</svg>
