<svg id="Capa_1" enable-background="new 0 0 512 512" viewBox="0 0 512 512" xmlns="http://www.w3.org/2000/svg"><g><g><g><g><path d="m105 36.313v439.374c0 15.913 12.9 28.813 28.813 28.813h244.374c15.913 0 28.813-12.9 28.813-28.813v-439.374c0-15.913-12.9-28.813-28.813-28.813h-244.374c-15.913 0-28.813 12.9-28.813 28.813z" fill="#99e6fc"/><path d="m378.187 7.5h-36.192c15.913 0 28.813 12.9 28.813 28.813v439.374c0 15.913-12.9 28.813-28.813 28.813h36.192c15.913 0 28.813-12.9 28.813-28.813v-439.374c0-15.913-12.9-28.813-28.813-28.813z" fill="#62dbfb"/><path d="m105 469.164v6.523c0 15.913 12.9 28.813 28.813 28.813h244.374c15.913 0 28.813-12.9 28.813-28.813v-6.523z" fill="#678d98"/><path d="m407 475.687v-6.523h-36.192v6.523c0 15.913-12.9 28.813-28.813 28.813h36.192c15.913 0 28.813-12.9 28.813-28.813z" fill="#537983"/><path d="m227.638 7.5v17.816c0 9.676 7.844 17.52 17.52 17.52h21.684c9.676 0 17.52-7.844 17.52-17.52v-17.816z" fill="#678d98"/></g><path d="m52.664 113.909v284.182c0 5.779 4.685 10.464 10.464 10.464h385.745c5.779 0 10.464-4.685 10.464-10.464v-284.182c0-5.779-4.685-10.464-10.464-10.464h-385.745c-5.779 0-10.464 4.685-10.464 10.464z" fill="#e8edf2"/><path d="m448.873 103.445h-32.846c5.779 0 10.464 4.685 10.464 10.464v284.182c0 5.779-4.685 10.464-10.464 10.464h32.846c5.779 0 10.464-4.685 10.464-10.464v-284.182c0-5.779-4.685-10.464-10.464-10.464z" fill="#d9e7ec"/><g><g><path d="m165.155 165.155h31v31h-31z" fill="#678d98"/></g><g><path d="m165.155 315.846h31v31h-31z" fill="#678d98"/></g><g><path d="m315.846 165.155h31v31h-31z" fill="#678d98"/></g></g></g></g><g><path d="m448.872 416.055c9.905 0 17.964-8.059 17.964-17.964v-192.238c0-4.142-3.357-7.5-7.5-7.5s-7.5 3.358-7.5 7.5v192.239c0 1.634-1.329 2.964-2.964 2.964h-385.744c-1.634 0-2.964-1.33-2.964-2.964v-284.183c0-1.634 1.33-2.964 2.964-2.964h385.745c1.635 0 2.964 1.33 2.964 2.964v56.944c0 4.142 3.357 7.5 7.5 7.5s7.5-3.358 7.5-7.5v-56.944c0-9.905-8.059-17.964-17.964-17.964h-34.373v-59.635c0-20.021-16.288-36.31-36.309-36.31h-244.381c-20.021 0-36.31 16.289-36.31 36.31v59.635h-34.372c-9.905 0-17.964 8.059-17.964 17.964v284.183c0 9.905 8.059 17.964 17.964 17.964h34.372v59.635c0 20.021 16.289 36.31 36.31 36.31h244.38c20.021 0 36.31-16.289 36.31-36.31v-59.635h34.372zm-172.009-401.055v10.316c0 5.525-4.495 10.021-10.021 10.021h-21.684c-5.525 0-10.021-4.495-10.021-10.021v-10.316zm-164.363 21.31c0-11.75 9.56-21.31 21.31-21.31h86.328v10.316c0 13.796 11.224 25.021 25.021 25.021h21.684c13.796 0 25.021-11.224 25.021-25.021v-10.316h86.328c11.75 0 21.31 9.56 21.31 21.31v59.635h-287v-59.635zm287 425.354h-77.491c-4.143 0-7.5 3.358-7.5 7.5s3.357 7.5 7.5 7.5h77.442c-.514 11.297-9.839 20.336-21.26 20.336h-244.381c-11.422 0-20.747-9.039-21.261-20.336h174.459c4.143 0 7.5-3.358 7.5-7.5s-3.357-7.5-7.5-7.5h-174.508v-45.608h287z"/><path d="m481.087 67.375h-50.321c-4.143 0-7.5 3.358-7.5 7.5s3.357 7.5 7.5 7.5h49.641v49.641c0 4.142 3.357 7.5 7.5 7.5s7.5-3.358 7.5-7.5v-50.322c-.001-7.896-6.424-14.319-14.32-14.319z"/><path d="m487.906 372.485c-4.143 0-7.5 3.358-7.5 7.5v49.641h-49.641c-4.143 0-7.5 3.358-7.5 7.5s3.357 7.5 7.5 7.5h50.321c7.896 0 14.319-6.424 14.319-14.32v-50.321c.001-4.142-3.356-7.5-7.499-7.5z"/><path d="m24.094 139.515c4.142 0 7.5-3.358 7.5-7.5v-49.64h49.641c4.142 0 7.5-3.358 7.5-7.5s-3.358-7.5-7.5-7.5h-50.322c-7.896 0-14.32 6.424-14.32 14.32v50.321c.001 4.141 3.358 7.499 7.501 7.499z"/><path d="m81.234 429.625h-49.64v-49.641c0-4.142-3.358-7.5-7.5-7.5s-7.5 3.358-7.5 7.5v50.321c0 7.896 6.424 14.32 14.32 14.32h50.321c4.142 0 7.5-3.358 7.5-7.5s-3.359-7.5-7.501-7.5z"/><g><path d="m223.155 130.654h-85c-4.142 0-7.5 3.358-7.5 7.5v85c0 4.142 3.358 7.5 7.5 7.5h85c4.142 0 7.5-3.358 7.5-7.5v-85c0-4.142-3.358-7.5-7.5-7.5zm-7.5 85h-70v-70h70z"/><path d="m165.155 203.655h31c4.142 0 7.5-3.358 7.5-7.5v-31c0-4.142-3.358-7.5-7.5-7.5h-31c-4.142 0-7.5 3.358-7.5 7.5v31c0 4.142 3.358 7.5 7.5 7.5zm7.5-31h16v16h-16z"/><path d="m223.155 281.346h-85c-4.142 0-7.5 3.358-7.5 7.5v85c0 4.142 3.358 7.5 7.5 7.5h85c4.142 0 7.5-3.358 7.5-7.5v-85c0-4.142-3.358-7.5-7.5-7.5zm-7.5 85h-70v-70h70z"/><path d="m165.155 354.346h31c4.142 0 7.5-3.358 7.5-7.5v-31c0-4.142-3.358-7.5-7.5-7.5h-31c-4.142 0-7.5 3.358-7.5 7.5v31c0 4.142 3.358 7.5 7.5 7.5zm7.5-31h16v16h-16z"/><path d="m373.846 130.654h-85c-4.143 0-7.5 3.358-7.5 7.5v85c0 4.142 3.357 7.5 7.5 7.5h85c4.143 0 7.5-3.358 7.5-7.5v-85c0-4.142-3.357-7.5-7.5-7.5zm-7.5 85h-70v-70h70z"/><path d="m315.846 203.655h31c4.143 0 7.5-3.358 7.5-7.5v-31c0-4.142-3.357-7.5-7.5-7.5h-31c-4.143 0-7.5 3.358-7.5 7.5v31c0 4.142 3.357 7.5 7.5 7.5zm7.5-31h16v16h-16z"/><path d="m373.846 325.242h-42.5c-4.143 0-7.5 3.358-7.5 7.5v41.104c0 4.142 3.357 7.5 7.5 7.5s7.5-3.358 7.5-7.5v-33.604h35c4.143 0 7.5-3.358 7.5-7.5s-3.357-7.5-7.5-7.5z"/><path d="m354.446 282.221v16.443c0 4.142 3.357 7.5 7.5 7.5s7.5-3.358 7.5-7.5v-16.443c0-4.142-3.357-7.5-7.5-7.5s-7.5 3.358-7.5 7.5z"/><path d="m295.258 351.71h-13.703c-4.143 0-7.5 3.358-7.5 7.5s3.357 7.5 7.5 7.5h13.703c4.143 0 7.5-3.358 7.5-7.5s-3.357-7.5-7.5-7.5z"/><path d="m261.5 157.887c4.143 0 7.5-3.358 7.5-7.5s-3.357-7.5-7.5-7.5h-12c-4.142 0-7.5 3.358-7.5 7.5s3.358 7.5 7.5 7.5z"/><path d="m258.186 276.961c-4.142 0-7.5 3.358-7.5 7.5s3.358 7.5 7.5 7.5h23.369c4.143 0 7.5-3.358 7.5-7.5v-23.305h29.808c4.143 0 7.5-3.358 7.5-7.5s-3.357-7.5-7.5-7.5h-53.177v-40.303c0-4.142-3.357-7.5-7.5-7.5-4.142 0-7.5 3.358-7.5 7.5v47.803c0 4.142 3.358 7.5 7.5 7.5h15.869v15.805z"/><path d="m138.155 257h14.085c4.142 0 7.5-3.358 7.5-7.5s-3.358-7.5-7.5-7.5h-14.085c-4.142 0-7.5 3.358-7.5 7.5s3.357 7.5 7.5 7.5z"/><path d="m194.605 268.671c4.142 0 7.5-3.358 7.5-7.5s-3.358-7.5-7.5-7.5h-19.45c-4.142 0-7.5 3.358-7.5 7.5s3.358 7.5 7.5 7.5z"/><path d="m340.012 298.664c0-4.142-3.357-7.5-7.5-7.5h-9.166v-10.499c0-4.142-3.357-7.5-7.5-7.5s-7.5 3.358-7.5 7.5v17.999c0 4.142 3.357 7.5 7.5 7.5h16.666c4.143 0 7.5-3.358 7.5-7.5z"/><path d="m295.969 310.29h-39.969c-4.142 0-7.5 3.358-7.5 7.5v56.056c0 4.142 3.358 7.5 7.5 7.5 4.143 0 7.5-3.358 7.5-7.5v-48.556h32.469c4.143 0 7.5-3.358 7.5-7.5s-3.357-7.5-7.5-7.5z"/><path d="m223.155 242.754c-4.142 0-7.5 3.358-7.5 7.5v12.5c0 4.142 3.358 7.5 7.5 7.5s7.5-3.358 7.5-7.5v-12.5c0-4.142-3.358-7.5-7.5-7.5z"/><path d="m366.809 351.71h-8.863c-4.143 0-7.5 3.358-7.5 7.5s3.357 7.5 7.5 7.5h8.863c4.143 0 7.5-3.358 7.5-7.5s-3.358-7.5-7.5-7.5z"/><path d="m358.036 246.156h-11.19c-4.143 0-7.5 3.358-7.5 7.5s3.357 7.5 7.5 7.5h11.19c4.143 0 7.5-3.358 7.5-7.5s-3.357-7.5-7.5-7.5z"/></g></g></g><g/><g/><g/><g/><g/><g/><g/><g/><g/><g/><g/><g/><g/><g/><g/></svg>