<svg id="Icons" height="512" viewBox="0 0 60 60" width="512" xmlns="http://www.w3.org/2000/svg"><path d="m14.9 20.8.115 1.459-.249.249a1 1 0 0 0 0 1.41l8.234 8.222 14.4-6.809 11.31-11.31a1 1 0 0 0 0-1.409l-11.31-11.32a1 1 0 0 0 -1.41 0l-5.61 5.608-1.852.1z" fill="#61ce9d"/><path d="m25 35h4v15h-4z" fill="#b5b8bc"/><path d="m53 35h4v15h-4z" fill="#b5b8bc"/><path d="m39 35h4v15h-4z" fill="#b5b8bc"/><path d="m30 54v-4a1 1 0 0 0 -1-1h-4a1 1 0 0 0 -1 1v4z" fill="#a2a6aa"/><path d="m58 54v-4a1 1 0 0 0 -1-1h-4a1 1 0 0 0 -1 1v4z" fill="#a2a6aa"/><path d="m44 54v-4a1 1 0 0 0 -1-1h-4a1 1 0 0 0 -1 1v4z" fill="#a2a6aa"/><path d="m58 36h-34a1 1 0 0 1 -1-1v-3.389a1 1 0 0 1 .638-.932l17-6.611a.994.994 0 0 1 .724 0l17 6.611a1 1 0 0 1 .638.932v3.389a1 1 0 0 1 -1 1z" fill="#d5d8db"/><rect fill="#d5d8db" height="6" rx="1" width="36" x="23" y="53"/><g fill="#50ad80"><path d="m35.708 15.231a5 5 0 1 1 -7.5-.5 4.733 4.733 0 0 1 1.77-1.13z"/><path d="m18.31 26.04-.71.71-2.83-2.83a1 1 0 0 1 0-1.41l2.83-2.83.71.7a4.008 4.008 0 0 1 0 5.66z"/><path d="m40.23 4.12-.71.71a4.008 4.008 0 0 1 -5.66 0l-.7-.71 2.83-2.83a1 1 0 0 1 1.41 0z"/><path d="m48.71 14.02-2.83 2.83-.7-.71a3.978 3.978 0 0 1 0-5.65l.7-.71 2.83 2.83a1 1 0 0 1 0 1.41z"/></g><path d="m25.3 11.982a2 2 0 0 1 2.74-.09c.64.57 3.93 3.409 3.93 3.409a2.758 2.758 0 0 0 3.74-.07l.03-.03a2.742 2.742 0 0 0 -.14-3.889l-6.492-5.49a3.222 3.222 0 0 0 -3.41-.56 43.85 43.85 0 0 1 -12.698 2.63l-3 .108v11l1.61.92a21.513 21.513 0 0 0 3.408 2.34z" fill="#f6d0b3"/><path d="m1 22a1 1 0 0 0 1 1h7.466a2.009 2.009 0 0 0 1.99-1.77l1.53-13a2 2 0 0 0 -1.986-2.23h-9a1 1 0 0 0 -1 1z" fill="#363699"/><path d="m43 32h-4a1 1 0 0 1 0-2h4a1 1 0 0 1 0 2z" fill="#b5b8bc"/></svg>