<svg id="Capa_1" enable-background="new 0 0 512 512" viewBox="0 0 512 512" xmlns="http://www.w3.org/2000/svg"><g><g><g><path d="m303.87 0c-69.543 0-125.919 56.376-125.919 125.919 0 62.3 45.247 114.024 104.669 124.124 3.775-7.944 11.869-13.437 21.249-13.437s17.475 5.493 21.249 13.437c59.423-10.101 104.669-61.824 104.669-124.124.002-69.543-56.374-125.919-125.917-125.919z" fill="#8ac9fe"/><g><path d="m381.83 27.033c16.928 21.442 27.033 48.52 27.033 77.96 0 69.543-56.376 125.919-125.919 125.919-29.44 0-56.518-10.105-77.96-27.033 23.06 29.209 58.782 47.959 98.885 47.959 69.543 0 125.919-56.376 125.919-125.919.001-40.104-18.749-75.826-47.958-98.886z" fill="#60b7ff"/></g><g><circle cx="303.87" cy="125.919" fill="#d8ecfe" r="92.34"/></g><g><path d="m303.87 129.447c-4.142 0-7.5-3.357-7.5-7.5v-54.791c0-4.143 3.358-7.5 7.5-7.5s7.5 3.357 7.5 7.5v54.791c0 4.143-3.358 7.5-7.5 7.5z" fill="#918291"/></g><g><circle cx="303.87" cy="125.919" fill="#8ac9fe" r="16.789"/></g></g><g><g><path d="m512 272.65v218.537c0 11.495-9.318 20.813-20.813 20.813h-374.634c-11.495 0-20.813-9.318-20.813-20.813v-218.537c0-11.495 9.318-20.813 20.813-20.813h374.634c11.495 0 20.813 9.319 20.813 20.813z" fill="#97d729"/></g><g><path d="m491.187 251.837h-29.138c11.495 0 20.813 9.318 20.813 20.813v218.537c0 11.495-9.318 20.813-20.813 20.813h29.138c11.495 0 20.813-9.318 20.813-20.813v-218.537c0-11.494-9.318-20.813-20.813-20.813z" fill="#8bc727"/></g><path d="m478.699 308.857c-13.079 0-23.72-10.641-23.72-23.719 0-4.143-3.358-7.5-7.5-7.5h-287.219c-4.142 0-7.5 3.357-7.5 7.5 0 13.078-10.641 23.719-23.72 23.719-4.142 0-7.5 3.357-7.5 7.5v131.122c0 4.143 3.358 7.5 7.5 7.5 13.079 0 23.72 10.641 23.72 23.72 0 4.143 3.358 7.5 7.5 7.5h287.219c4.142 0 7.5-3.357 7.5-7.5 0-13.079 10.641-23.72 23.72-23.72 4.142 0 7.5-3.357 7.5-7.5v-131.122c0-4.142-3.358-7.5-7.5-7.5z" fill="#bbec6c"/><g><circle cx="303.87" cy="381.919" fill="#97d729" r="57.236"/></g></g></g><g><g><path d="m144.65 133.419h-80.13c-4.142 0-7.5-3.357-7.5-7.5s3.358-7.5 7.5-7.5h80.13c4.142 0 7.5 3.357 7.5 7.5s-3.358 7.5-7.5 7.5z" fill="#60b7ff"/></g><g><path d="m150.166 91.793h-54.426c-4.142 0-7.5-3.357-7.5-7.5s3.358-7.5 7.5-7.5h54.426c4.142 0 7.5 3.357 7.5 7.5s-3.358 7.5-7.5 7.5z" fill="#60b7ff"/></g><g><path d="m168.19 50.167h-41.23c-4.142 0-7.5-3.357-7.5-7.5s3.358-7.5 7.5-7.5h41.23c4.142 0 7.5 3.357 7.5 7.5s-3.358 7.5-7.5 7.5z" fill="#60b7ff"/></g><g><path d="m150.166 175.045h-54.426c-4.142 0-7.5-3.357-7.5-7.5s3.358-7.5 7.5-7.5h54.426c4.142 0 7.5 3.357 7.5 7.5s-3.358 7.5-7.5 7.5z" fill="#60b7ff"/></g><g><path d="m168.19 216.671h-41.23c-4.142 0-7.5-3.357-7.5-7.5s3.358-7.5 7.5-7.5h41.23c4.142 0 7.5 3.357 7.5 7.5s-3.358 7.5-7.5 7.5z" fill="#60b7ff"/></g></g><g><g><g><path d="m70.259 276.13c-6.503 6.502-6.503 17.045 0 23.547l1.934 1.934h-55.543c-9.196 0-16.65 7.454-16.65 16.65s7.455 16.65 16.65 16.65h55.543l-1.934 1.934c-6.503 6.502-6.503 17.045 0 23.547 6.502 6.503 17.045 6.503 23.547 0l30.357-30.357c3.252-3.251 4.877-7.512 4.877-11.773s-1.626-8.522-4.877-11.773l-30.357-30.359c-6.502-6.503-17.045-6.503-23.547 0z" fill="#cb97e7"/></g></g><g><g><path d="m70.259 403.446c-6.503 6.502-6.503 17.045 0 23.547l1.934 1.934h-55.543c-9.196 0-16.65 7.454-16.65 16.65s7.455 16.65 16.65 16.65h55.543l-1.934 1.934c-6.503 6.502-6.503 17.045 0 23.547 6.502 6.503 17.045 6.503 23.547 0l30.357-30.357c3.252-3.251 4.877-7.512 4.877-11.773s-1.626-8.522-4.877-11.773l-30.357-30.357c-6.502-6.505-17.045-6.505-23.547-.002z" fill="#cb97e7"/></g></g></g></g><g/><g/><g/><g/><g/><g/><g/><g/><g/><g/><g/><g/><g/><g/><g/></svg>