<svg width="36" height="36" viewBox="0 0 36 36" fill="none" xmlns="http://www.w3.org/2000/svg">
<path d="M33.7498 18.0001C33.7503 17.6567 33.6738 17.3175 33.5259 17.0076C33.3779 16.6977 33.1624 16.4249 32.8951 16.2093L30.8665 14.5195L31.7954 12.1025C31.9158 11.782 31.9637 11.4388 31.9356 11.0976C31.9075 10.7563 31.8041 10.4256 31.6328 10.1291C31.4616 9.83262 31.2267 9.57779 30.9452 9.38296C30.6636 9.18812 30.3424 9.05812 30.0046 9.00231L27.4025 8.55297L26.9982 5.9953C26.9424 5.65742 26.8123 5.33612 26.6174 5.05453C26.4226 4.77294 26.1677 4.53806 25.8711 4.36679C25.5746 4.19553 25.2437 4.09215 24.9024 4.06409C24.5611 4.03603 24.2178 4.08399 23.8973 4.20452L21.4193 5.11749L19.7906 3.1048C19.5678 2.84868 19.2927 2.64332 18.9837 2.5026C18.6748 2.36188 18.3393 2.28906 17.9998 2.28906C17.6604 2.28906 17.3248 2.36188 17.0159 2.5026C16.707 2.64332 16.4318 2.84868 16.209 3.1048L14.5193 5.13287L12.1029 4.20452C11.7823 4.0839 11.439 4.03587 11.0976 4.06388C10.7563 4.09189 10.4254 4.19526 10.1287 4.36653C9.83211 4.5378 9.57716 4.77271 9.38223 5.05435C9.18731 5.33599 9.05726 5.65736 9.00146 5.9953L8.55268 8.59796L5.99616 9.00118C5.65821 9.05702 5.33685 9.18707 5.05519 9.38198C4.77352 9.57689 4.53856 9.8318 4.3672 10.1284C4.19585 10.425 4.09237 10.7558 4.06419 11.0972C4.03602 11.4386 4.08386 11.7819 4.20428 12.1026L5.11725 14.5811L3.1035 16.2093C2.83898 16.4268 2.62594 16.7002 2.47972 17.0099C2.33349 17.3196 2.25771 17.6579 2.25781 18.0003C2.25792 18.3428 2.33392 18.681 2.48034 18.9906C2.62676 19.3002 2.83997 19.5735 3.10462 19.7908L5.13325 21.4806L4.20428 23.8975C4.08384 24.218 4.03595 24.5613 4.06405 24.9025C4.09215 25.2437 4.19555 25.5745 4.3668 25.871C4.53806 26.1675 4.77291 26.4223 5.05446 26.6172C5.336 26.812 5.65724 26.942 5.99505 26.9979L8.59718 27.4472L9.00147 30.0048C9.05741 30.3426 9.18751 30.6639 9.38243 30.9454C9.57734 31.2269 9.83223 31.4617 10.1287 31.633C10.4253 31.8042 10.7561 31.9076 11.0973 31.9357C11.4386 31.9639 11.7818 31.916 12.1024 31.7956L14.5803 30.8826L16.2091 32.8953C16.4264 33.1601 16.6997 33.3734 17.0093 33.5199C17.319 33.6664 17.6573 33.7424 17.9998 33.7424C18.3424 33.7424 18.6807 33.6664 18.9903 33.5199C19.3 33.3734 19.5733 33.1601 19.7906 32.8953L21.4804 30.8673L23.8969 31.7956C24.2174 31.9162 24.5608 31.9642 24.9021 31.9361C25.2435 31.9081 25.5744 31.8047 25.871 31.6335C26.1676 31.4622 26.4225 31.2273 26.6174 30.9457C26.8124 30.6641 26.9425 30.3427 26.9983 30.0048L27.4471 27.4022L30.0036 26.999C30.3416 26.9431 30.6629 26.8131 30.9446 26.6182C31.2262 26.4232 31.4612 26.1683 31.6326 25.8717C31.8039 25.5752 31.9074 25.2443 31.9356 24.9029C31.9637 24.5616 31.9159 24.2182 31.7955 23.8975L30.8825 21.419L32.8963 19.7908C33.1632 19.575 33.3785 19.3021 33.5262 18.9923C33.6739 18.6824 33.7503 18.3433 33.7498 18.0001Z" fill="#F91D2F"/>
<path d="M15.8845 23.3057C15.1578 23.3075 14.4503 23.0727 13.869 22.6366L11.1373 20.5877C10.8986 20.4086 10.7409 20.1421 10.6988 19.8468C10.6566 19.5514 10.7336 19.2514 10.9126 19.0128C11.0917 18.7741 11.3582 18.6164 11.6535 18.5743C11.9489 18.5321 12.2489 18.6091 12.4875 18.7881L15.2187 20.8371C15.4555 21.0121 15.7511 21.0881 16.0429 21.049C16.3347 21.0098 16.5998 20.8585 16.7821 20.6272L23.2992 12.2469C23.3899 12.1302 23.5028 12.0326 23.6312 11.9595C23.7597 11.8865 23.9013 11.8395 24.048 11.8212C24.1946 11.8029 24.3435 11.8136 24.4859 11.8528C24.6284 11.892 24.7618 11.9589 24.8785 12.0497C24.9951 12.1404 25.0927 12.2532 25.1658 12.3817C25.2388 12.5102 25.2858 12.6518 25.3041 12.7985C25.3225 12.9451 25.3117 13.0939 25.2725 13.2364C25.2333 13.3789 25.1664 13.5123 25.0757 13.6289L18.558 22.0093C18.2404 22.4146 17.8345 22.742 17.3712 22.9667C16.9079 23.1913 16.3994 23.3073 15.8845 23.3057Z" fill="white"/>
</svg>
