<?xml version="1.0" encoding="utf-8"?>
<!-- Generator: Adobe Illustrator 27.5.0, SVG Export Plug-In . SVG Version: 6.00 Build 0)  -->
<svg version="1.1" xmlns="http://www.w3.org/2000/svg" xmlns:xlink="http://www.w3.org/1999/xlink" x="0px" y="0px"
	 viewBox="0 0 750 500" style="enable-background:new 0 0 750 500;" xml:space="preserve">
<g id="BACKGROUND">
	<rect style="fill:#FFFFFF;" width="750" height="500"/>
</g>
<g id="OBJECTS">
	<g>
		<defs>
			<rect id="SVGID_1_" width="750" height="500"/>
		</defs>
		<clipPath id="SVGID_00000109738490276016422380000013475051652926546874_">
			<use xlink:href="#SVGID_1_"  style="overflow:visible;"/>
		</clipPath>
		<g style="clip-path:url(#SVGID_00000109738490276016422380000013475051652926546874_);">
			<g>
				<g>
					<g>
						<path style="fill:#E6ECED;" d="M580.067,206.374c0,45.497-27.92,82.379-62.361,82.379c-34.441,0-62.361-36.882-62.361-82.379
							s43.694-138.151,62.361-138.151C539.198,68.224,580.067,160.878,580.067,206.374z"/>
						<g>
							<path style="fill:#D8E2E5;" d="M517.706,428.245c-1.381,0-2.5-1.119-2.5-2.5V121c0-1.381,1.119-2.5,2.5-2.5
								c1.381,0,2.5,1.119,2.5,2.5v304.745C520.206,427.126,519.086,428.245,517.706,428.245z"/>
						</g>
						<g>
							<path style="fill:#D8E2E5;" d="M517.705,257.5c-0.469,0-0.938-0.164-1.318-0.497l-46.093-40.48
								c-0.83-0.729-0.912-1.993-0.184-2.823c0.729-0.831,1.992-0.912,2.822-0.183l46.093,40.48c0.83,0.729,0.912,1.993,0.184,2.822
								C518.813,257.27,518.26,257.5,517.705,257.5z"/>
						</g>
						<g>
							<path style="fill:#D8E2E5;" d="M517.704,198.311c-0.406,0-0.816-0.124-1.171-0.38l-49.229-35.644
								c-0.895-0.648-1.095-1.898-0.447-2.793c0.648-0.894,1.898-1.094,2.793-0.447l49.229,35.644
								c0.895,0.648,1.095,1.898,0.447,2.793C518.934,198.024,518.324,198.311,517.704,198.311z"/>
						</g>
						<g>
							<path style="fill:#D8E2E5;" d="M517.705,154.467c-0.471,0-0.943-0.165-1.324-0.502l-28.403-25.133
								c-0.827-0.732-0.904-1.996-0.173-2.823c0.733-0.827,1.995-0.903,2.823-0.173l28.403,25.133
								c0.827,0.732,0.904,1.996,0.173,2.823C518.808,154.239,518.257,154.467,517.705,154.467z"/>
						</g>
						<g>
							<path style="fill:#D8E2E5;" d="M517.708,172.099c-0.69,0-1.362-0.358-1.733-0.999c-0.553-0.956-0.227-2.18,0.73-2.733
								l40.507-23.432c0.953-0.552,2.179-0.226,2.732,0.73c0.553,0.956,0.227,2.18-0.731,2.733l-40.507,23.432
								C518.392,172.012,518.047,172.099,517.708,172.099z"/>
						</g>
						<g>
							<path style="fill:#D8E2E5;" d="M517.707,225.611c-0.751,0-1.471-0.425-1.812-1.151c-0.47-1-0.039-2.191,0.961-2.66
								l48.174-22.61c0.998-0.468,2.19-0.041,2.66,0.961c0.47,1,0.039,2.191-0.961,2.66l-48.174,22.61
								C518.281,225.55,517.992,225.611,517.707,225.611z"/>
						</g>
					</g>
					<g>
						<ellipse style="fill:#E6ECED;" cx="74.426" cy="261.705" rx="42.829" ry="56.577"/>
						<g>
							<path style="fill:#D8E2E5;" d="M74.426,428.245c-0.948,0-1.717-0.769-1.717-1.717V217.232c0-0.948,0.769-1.717,1.717-1.717
								c0.948,0,1.717,0.769,1.717,1.717v209.296C76.143,427.477,75.374,428.245,74.426,428.245z"/>
						</g>
						<g>
							<path style="fill:#D8E2E5;" d="M74.425,310.979c-0.322,0-0.645-0.113-0.905-0.341l-31.656-27.801
								c-0.57-0.501-0.626-1.369-0.126-1.939c0.501-0.57,1.368-0.626,1.938-0.126l31.656,27.801c0.57,0.501,0.626,1.369,0.126,1.938
								C75.187,310.821,74.807,310.979,74.425,310.979z"/>
						</g>
						<g>
							<path style="fill:#D8E2E5;" d="M74.425,270.328c-0.279,0-0.561-0.085-0.804-0.261l-33.81-24.48
								c-0.614-0.445-0.752-1.304-0.307-1.918c0.445-0.614,1.304-0.751,1.918-0.307l33.81,24.48
								c0.614,0.445,0.752,1.304,0.307,1.918C75.27,270.131,74.851,270.328,74.425,270.328z"/>
						</g>
						<g>
							<path style="fill:#D8E2E5;" d="M74.425,240.217c-0.323,0-0.648-0.114-0.909-0.345l-19.507-17.261
								c-0.568-0.503-0.621-1.371-0.119-1.939c0.504-0.568,1.37-0.62,1.939-0.119l19.507,17.261
								c0.568,0.503,0.621,1.371,0.119,1.939C75.183,240.06,74.805,240.217,74.425,240.217z"/>
						</g>
						<g>
							<path style="fill:#D8E2E5;" d="M74.427,252.326c-0.474,0-0.936-0.246-1.19-0.686c-0.38-0.657-0.156-1.497,0.502-1.877
								l27.82-16.093c0.655-0.379,1.496-0.155,1.877,0.501c0.38,0.657,0.156,1.497-0.502,1.877l-27.82,16.093
								C74.898,252.267,74.661,252.326,74.427,252.326z"/>
						</g>
						<g>
							<path style="fill:#D8E2E5;" d="M74.427,289.078c-0.516,0-1.01-0.292-1.244-0.79c-0.323-0.687-0.027-1.505,0.66-1.827
								l33.085-15.529c0.685-0.322,1.504-0.028,1.827,0.66c0.323,0.687,0.027,1.505-0.66,1.827L75.01,288.947
								C74.821,289.036,74.623,289.078,74.427,289.078z"/>
						</g>
					</g>
					<g>
						<ellipse style="fill:#E6ECED;" cx="33.94" cy="342.731" rx="24.504" ry="29.051"/>
						<g>
							<path style="fill:#D8E2E5;" d="M33.941,428.245c-0.543,0-0.982-0.395-0.982-0.882V319.895c0-0.487,0.44-0.882,0.982-0.882
								c0.542,0,0.982,0.395,0.982,0.882v107.468C34.923,427.85,34.483,428.245,33.941,428.245z"/>
						</g>
						<g>
							<path style="fill:#D8E2E5;" d="M33.94,368.032c-0.184,0-0.369-0.058-0.518-0.175l-18.111-14.275
								c-0.326-0.257-0.358-0.703-0.072-0.996c0.287-0.293,0.783-0.322,1.109-0.065l18.111,14.275
								c0.326,0.257,0.358,0.703,0.072,0.995C34.376,367.951,34.159,368.032,33.94,368.032z"/>
						</g>
						<g>
							<path style="fill:#D8E2E5;" d="M33.94,347.159c-0.16,0-0.321-0.043-0.46-0.134l-19.344-12.57
								c-0.352-0.229-0.43-0.669-0.176-0.985c0.255-0.315,0.746-0.386,1.097-0.158l19.344,12.57c0.351,0.229,0.43,0.67,0.176,0.985
								C34.423,347.058,34.183,347.159,33.94,347.159z"/>
						</g>
						<g>
							<path style="fill:#D8E2E5;" d="M33.94,331.697c-0.185,0-0.371-0.058-0.52-0.177l-11.16-8.863
								c-0.325-0.258-0.355-0.704-0.068-0.996c0.288-0.292,0.784-0.318,1.109-0.061l11.161,8.863
								c0.325,0.258,0.355,0.704,0.068,0.996C34.374,331.617,34.157,331.697,33.94,331.697z"/>
						</g>
						<g>
							<path style="fill:#D8E2E5;" d="M33.941,337.915c-0.271,0-0.535-0.126-0.681-0.352c-0.217-0.337-0.089-0.769,0.287-0.964
								l15.917-8.263c0.375-0.195,0.856-0.08,1.074,0.257c0.217,0.337,0.089,0.769-0.287,0.964l-15.916,8.263
								C34.21,337.884,34.075,337.915,33.941,337.915z"/>
						</g>
						<g>
							<path style="fill:#D8E2E5;" d="M33.941,356.786c-0.295,0-0.578-0.15-0.712-0.406c-0.184-0.353-0.015-0.773,0.378-0.938
								l18.929-7.974c0.392-0.165,0.86-0.014,1.045,0.339c0.184,0.353,0.015,0.773-0.378,0.938l-18.929,7.973
								C34.167,356.765,34.053,356.786,33.941,356.786z"/>
						</g>
					</g>
					<g>
						<polygon style="fill:#D8E2E5;" points="419.065,435.748 -71.328,435.748 -71.328,93.639 171.923,20.335 419.065,93.639 						
							"/>
						<g>
							<rect x="58.445" y="137.838" style="fill:#FFFFFF;" width="99.503" height="144.044"/>
							<rect x="58.445" y="296.01" style="fill:#FFFFFF;" width="99.503" height="50.075"/>
							<rect x="180.913" y="138.025" style="fill:#FFFFFF;" width="99.503" height="144.044"/>
							<rect x="180.913" y="296.01" style="fill:#FFFFFF;" width="99.503" height="50.075"/>
						</g>
						<rect y="424.182" style="fill:#C2D0D3;" width="750" height="75.818"/>
						<polygon style="fill:#E6ECED;" points="173.869,-9.709 -153.535,113.084 -149.175,125.862 173.869,31.829 496.912,125.862 
							501.272,113.084 						"/>
					</g>
				</g>
			</g>
			<g>
				<g>
					<path style="fill:#B0C3C6;" d="M180.008,460.833H93.873c-1.979,0-3.599-1.62-3.599-3.599l0,0c0-1.98,1.62-3.599,3.599-3.599
						h86.135c1.98,0,3.599,1.62,3.599,3.599l0,0C183.607,459.214,181.987,460.833,180.008,460.833z"/>
					<path style="fill:#B0C3C6;" d="M433.003,469.681h-85.011c-2.288,0-4.161-1.872-4.161-4.161l0,0
						c0-2.289,1.872-4.161,4.161-4.161h85.011c2.288,0,4.161,1.872,4.161,4.161l0,0
						C437.164,467.808,435.292,469.681,433.003,469.681z"/>
					<path style="fill:#B0C3C6;" d="M653.383,458.5H552.829c-1.865,0-3.39-1.526-3.39-3.39v-0.386c0-1.865,1.526-3.39,3.39-3.39
						h100.554c1.865,0,3.39,1.526,3.39,3.39v0.386C656.773,456.974,655.248,458.5,653.383,458.5z"/>
					<path style="fill:#B0C3C6;" d="M508.28,475.307h-87.947c-2.691,0-4.893-2.202-4.893-4.893l0,0c0-2.691,2.202-4.893,4.893-4.893
						h87.947c2.691,0,4.894,2.202,4.894,4.893l0,0C513.174,473.105,510.972,475.307,508.28,475.307z"/>
					<path style="fill:#B0C3C6;" d="M199.972,435.333l-13.85,6.636c-2.064,0.989-1.599,4.052,0.665,4.385l134.883,19.822
						c4.033,0.593,8.141-0.35,11.511-2.642l28.405-19.313c2.667-1.813,1.712-5.958-1.48-6.422l-65.833-9.555L199.972,435.333z"/>
				</g>
				<path style="fill:#ACB4B5;" d="M634.903,449.268H456.277c-2.692,0-4.894-2.202-4.894-4.893l0,0c0-2.691,2.202-4.893,4.894-4.893
					h178.626c2.691,0,4.893,2.202,4.893,4.893l0,0C639.797,447.066,637.594,449.268,634.903,449.268z"/>
				<path style="fill:#DB5D40;" d="M289.286,67.925c0,0,10.098,21.304,14.218,24.578c1.532,1.217,33.536,3.651,36.139,3.396
					c2.604-0.254,1.474,6.869,1.393,9.583c-1.805,3.8-43.384,3.199-47.271-0.063c-3.887-3.262-20.383-23.912-20.383-23.912
					S280.665,64.035,289.286,67.925z"/>
				<g>
					<polygon style="fill:#626666;" points="372.3,280.172 413.966,435.333 420.967,435.333 379.637,279.161 					"/>
					<polygon style="fill:#626666;" points="373.175,280.172 331.509,435.333 324.509,435.333 365.838,279.161 					"/>
					<g>
						<rect x="364.738" y="265.667" style="fill:#7F8384;" width="16" height="16"/>
						<rect x="360.071" y="261" style="fill:#626666;" width="25.333" height="10.667"/>
						<g>
							<path style="fill:#9A9FA0;" d="M414.734,263.496h-83.992c-6.481,0-11.734-5.254-11.734-11.734V60.734
								c0-6.481,5.254-11.734,11.734-11.734h83.992c6.481,0,11.734,5.254,11.734,11.734v191.027
								C426.468,258.242,421.215,263.496,414.734,263.496z"/>
							<path style="fill:#CCCCCC;" d="M319.007,133.667v118.095c0,6.481,5.254,11.734,11.734,11.734h83.992
								c6.481,0,11.734-5.254,11.734-11.734V133.667H319.007z"/>
							<g>
								
									<ellipse transform="matrix(0.7071 -0.7071 0.7071 0.7071 -38.0939 324.565)" style="fill:#7F8384;" cx="372.738" cy="208.266" rx="42.266" ry="42.266"/>
								<circle style="fill:#7F8384;" cx="372.738" cy="166.417" r="5"/>
								<circle style="fill:#7F8384;" cx="372.738" cy="250" r="5"/>
								<circle style="fill:#7F8384;" cx="414.529" cy="208.208" r="5"/>
								<circle style="fill:#7F8384;" cx="330.946" cy="208.208" r="5"/>
								<circle style="fill:#626666;" cx="372.738" cy="208.266" r="35.5"/>
								<path style="fill:#626666;" d="M374.999,166.417c0,1.249-1.013,2.262-2.262,2.262c-1.249,0-2.262-1.013-2.262-2.262
									s1.013-2.262,2.262-2.262C373.987,164.155,374.999,165.168,374.999,166.417z"/>
								<path style="fill:#626666;" d="M414.529,210.528c-1.249,0-2.262-1.013-2.262-2.262s1.013-2.262,2.262-2.262
									c1.249,0,2.262,1.012,2.262,2.262S415.778,210.528,414.529,210.528z"/>
								<path style="fill:#626666;" d="M330.831,210.528c-1.249,0-2.262-1.013-2.262-2.262s1.013-2.262,2.262-2.262
									c1.249,0,2.262,1.012,2.262,2.262S332.08,210.528,330.831,210.528z"/>
								<path style="fill:#626666;" d="M374.999,250.115c0,1.249-1.013,2.262-2.262,2.262c-1.249,0-2.262-1.013-2.262-2.262
									s1.013-2.262,2.262-2.262C373.987,247.854,374.999,248.866,374.999,250.115z"/>
							</g>
							<g>
								
									<ellipse transform="matrix(0.1651 -0.9863 0.9863 0.1651 249.0326 460.4884)" style="fill:#7F8384;" cx="396.508" cy="83.151" rx="18.8" ry="18.8"/>
								<path style="fill:#7F8384;" d="M398.732,64.536c0,1.228-0.996,2.224-2.224,2.224c-1.228,0-2.224-0.996-2.224-2.224
									c0-1.228,0.996-2.224,2.224-2.224C397.737,62.312,398.732,63.308,398.732,64.536z"/>
								<path style="fill:#7F8384;" d="M398.732,101.714c0,1.228-0.996,2.224-2.224,2.224c-1.228,0-2.224-0.996-2.224-2.224
									c0-1.228,0.996-2.224,2.224-2.224C397.737,99.49,398.732,100.485,398.732,101.714z"/>
								<path style="fill:#7F8384;" d="M415.097,85.349c-1.228,0-2.224-0.996-2.224-2.224s0.996-2.224,2.224-2.224
									c1.228,0,2.224,0.996,2.224,2.224S416.325,85.349,415.097,85.349z"/>
								<path style="fill:#7F8384;" d="M377.92,85.349c-1.228,0-2.224-0.996-2.224-2.224s0.996-2.224,2.224-2.224
									c1.228,0,2.224,0.996,2.224,2.224S379.148,85.349,377.92,85.349z"/>
								
									<ellipse transform="matrix(0.8915 -0.453 0.453 0.8915 5.346 188.6255)" style="fill:#626666;" cx="396.508" cy="83.151" rx="15.79" ry="15.79"/>
								<path style="fill:#626666;" d="M397.514,64.536c0,0.556-0.45,1.006-1.006,1.006s-1.006-0.45-1.006-1.006
									c0-0.556,0.45-1.006,1.006-1.006S397.514,63.981,397.514,64.536z"/>
								
									<ellipse transform="matrix(0.9997 -0.0238 0.0238 0.9997 -2.314 9.4845)" style="fill:#626666;" cx="396.508" cy="101.765" rx="1.006" ry="1.006"/>
							</g>
							<g>
								
									<ellipse transform="matrix(0.1677 -0.9858 0.9858 0.1677 208.7544 413.5692)" style="fill:#7F8384;" cx="349.312" cy="83.151" rx="18.8" ry="18.8"/>
								<path style="fill:#7F8384;" d="M351.536,64.536c0,1.228-0.996,2.224-2.224,2.224c-1.228,0-2.224-0.996-2.224-2.224
									c0-1.228,0.996-2.224,2.224-2.224C350.54,62.312,351.536,63.308,351.536,64.536z"/>
								<path style="fill:#7F8384;" d="M351.536,101.714c0,1.228-0.996,2.224-2.224,2.224c-1.228,0-2.224-0.996-2.224-2.224
									c0-1.228,0.996-2.224,2.224-2.224C350.54,99.49,351.536,100.485,351.536,101.714z"/>
								<circle style="fill:#7F8384;" cx="367.901" cy="83.125" r="2.224"/>
								<circle style="fill:#7F8384;" cx="330.723" cy="83.125" r="2.224"/>
								
									<ellipse transform="matrix(0.9024 -0.4308 0.4308 0.9024 -1.7413 158.6125)" style="fill:#626666;" cx="349.312" cy="83.151" rx="15.79" ry="15.79"/>
								<path style="fill:#626666;" d="M350.318,64.536c0,0.556-0.45,1.006-1.006,1.006c-0.556,0-1.006-0.45-1.006-1.006
									c0-0.556,0.45-1.006,1.006-1.006C349.867,63.53,350.318,63.981,350.318,64.536z"/>
								<path style="fill:#626666;" d="M350.318,101.765c0,0.556-0.45,1.006-1.006,1.006c-0.556,0-1.006-0.45-1.006-1.006
									s0.45-1.006,1.006-1.006C349.867,100.759,350.318,101.209,350.318,101.765z"/>
							</g>
						</g>
					</g>
				</g>
				<g>
					<g>
						<g>
							<g>
								<g>
									<path style="fill:#2A3051;" d="M292.181,145.029c0,0-1.991,33.984-2.921,41.481c-0.93,7.497-22.279,76.911-22.279,76.911
										l-7.932-1.662c0,0,2.931-52.489,13.791-69.288c3.538-16.887-11.49-35.419-6.824-54.633
										C277.214,137.94,292.181,145.029,292.181,145.029z"/>
									<path style="fill:#2A3051;" d="M299.057,142.83c0,0,5.019,33.67,5.647,41.199c0.627,7.529-2.823,79.888-2.823,79.888
										h-8.104c0,0-10.951-48.241-3.921-70.687c0-17.253-18.508-32.311-17.881-52.074
										C282.954,138.962,299.057,142.83,299.057,142.83z"/>
								</g>
								<g>
									<path style="fill:#FCA08B;" d="M273.06,42.981c0,0,0.904,5.795-1.39,10.748c4.035,1.4,7.462,5.261,9.364,4.959
										c1.308-0.207,1.754-4.462,1.754-4.462L273.06,42.981z"/>
									<g>
										<path style="fill:#FFB29C;" d="M286.742,31.661c0,0,2.489,3.847,2.722,5.508c0.233,1.66-0.605,3.226,0.336,4.222
											c0.941,0.996,2.138,1.952,2.39,2.546c0.253,0.594-1.396,2.076-1.903,2.318c0.058,1.62-0.634,5.835-1.263,7.254
											c-0.628,1.419-4.652,0.542-8.79-0.965c-4.138-1.507-5.295-4.777-6.135-6.8c-0.841-2.023-6.398-4.158-3.012-10.156
											C274.472,29.591,285.649,29.848,286.742,31.661z"/>
										<path style="fill:#202441;" d="M289.974,49.593c0,0,1.342,2.032,0.248,4.407c-1.094,2.406-7.97-0.771-7.97-0.771
											s4.658,0.577,6.126-0.982C289.846,50.688,289.974,49.593,289.974,49.593z"/>
										<path style="fill:#202441;" d="M290.478,46.142c0,0,0.462,1.192,0.337,2.692c-2.625,0.083-5.708,1.667-7.417,0
											c1.75,0.167,3.059-0.792,3.55-1.375C287.44,46.875,290.478,46.142,290.478,46.142z"/>
										<path style="fill:#202441;" d="M279.306,34.147c0,0,7.284,0.323,9.219-4.347c1.935-4.67-0.472-8.625-2.867-8.625
											c-18.219,0-17.639,9.823-17.639,9.823c-5.671-0.104-2.777,10.727,5.078,16.606c2.283-1.871,1.502-7.923,1.502-7.923
											L279.306,34.147z"/>
										<path style="fill:#202441;" d="M280.342,32.75c0,0-0.602,4.463-2.069,5.736c0.167,5.181,2.069,8.431,2.069,8.431
											l-3.217,0.333c0,0,1.792-6.877-2.28-8.772C270.773,36.583,280.342,32.75,280.342,32.75z"/>
										<path style="fill:#202441;" d="M287.583,41.439c-0.016,0.574-0.313,1.03-0.664,1.021c-0.35-0.01-0.621-0.483-0.605-1.056
											c0.016-0.573,0.313-1.03,0.664-1.021C287.329,40.393,287.599,40.866,287.583,41.439z"/>
										<path style="fill:#FFB29C;" d="M276.338,45.274c0,0-1.386,1.151-3.029-1.072c-1.643-2.223-1.227-4.292-0.298-5.222
											c0.929-0.93,2.915-0.479,3.796,0.779C277.687,41.018,277.912,44.127,276.338,45.274z"/>
									</g>
								</g>
								<path style="fill:#202441;" d="M283.207,40.631c0,0,1.175-2.921,4.835-2.787c0.369-0.101,0.336-1.527-0.739-1.519
									C286.229,36.333,283.476,37.979,283.207,40.631z"/>
								<g>
									<path style="fill:#FF905F;" d="M286.601,60.901c0,0-4.298-5.558-9.486-7.929s-6.744-1.26-7.262,1.037
										c-0.519,2.297-1.186,5.706-1.186,5.706L286.601,60.901z"/>
									<path style="fill:#EE7552;" d="M260.071,69.053c0,0,4.595-9.634,12.45-11.561c7.855-1.927,10.968,1.779,13.191,2.075
										c2.223,0.296,6.47,10.013,8.228,16.552c0.535,1.988,2.708,10.315,3.724,25.55c1.091,16.361,1.759,43.631,1.759,43.631
										s-19.435,0.327-28.748-2.341C267.142,108.278,254.857,90.75,260.071,69.053z"/>
									<path style="fill:#2A3051;" d="M298.633,85.168c-1.167-8-8.73-21.196-8.73-21.196s-2.353-5.887-8.603-5.72
										c-6.25,0.167-7.256,6.083-11.294,7.25c-4.039,1.167-2.288-5.725-2.288-5.725c-0.834-0.275-2.427,2.01-3.117,2.778
										c-0.69,0.767-5.301,11.53-4.051,36.28c0.502,9.944,4.626,17.434,5.25,25.375c0.929,11.825-5.464,13.629,0.013,29.123
										c19.237,8.752,34.535-1.719,34.535-1.719S299.799,93.168,298.633,85.168z M297.299,108.501
										c-0.667,3.5-12.833,6.5-15.333,2.167c-2.5-4.333-8.667-34.5-6.667-41.615c2-7.115,10.333-6.719,13.07-4.328
										c2.736,2.39,4.597,11.276,4.597,11.276C295.949,85.01,297.966,105.001,297.299,108.501z"/>
									<path style="fill:#FFB29C;" d="M342.642,63.956c0,0,1.475-1.337,2.24-2.884c0.766-1.547,1.81-5.209,2.674-5.917
										c0.865-0.708,1.568,0.695,1.149,2.113c-0.419,1.418-0.554,2.265-0.554,2.265s5.11-4.939,6.611-7.323
										c1.416-1.445,1.931,0.158,1.149,1.457c-0.782,1.299-4.083,5.296-4.083,5.296s4.005-3.963,5.18-5.495
										c1.176-1.532,1.68-1.152,2.1-0.488c0.421,0.664-5.163,7.032-5.572,7.374c3.152-1.535,5.961-4.908,6.512-5.207
										c0.551-0.3,1.441,0.133,1.072,1.096c-0.369,0.962-5.036,5.404-5.725,5.779c2.075-0.89,4.368-2.911,4.97-3.119
										c0.601-0.208,1.171,0.732-0.216,1.902c-1.387,1.171-6.654,5.165-8.779,5.963c-2.125,0.798-4.457,2.492-4.457,2.492
										L342.642,63.956z"/>
									<path style="fill:#EE7552;" d="M285.057,60.773c0,0,18.8,14.227,23.966,15.227c1.921,0.372,31.427-12.259,33.619-13.688
										c2.191-1.429,4.481,5.411,5.664,7.854c0.155,4.204-36.996,22.884-41.951,21.788c-4.955-1.096-29.125-11.787-29.125-11.787
										S275.613,61.307,285.057,60.773z"/>
								</g>
							</g>
						</g>
					</g>
					<path style="fill:#EE7552;" d="M288.369,241.635l16.41-0.634c0,0,0.52,21.5,0.853,24c0.333,2.5,8.333,4.5,13.5,6.333
						c5.167,1.833,4.667,5.333,2.667,6c-2,0.667-27.895,0.667-29.618,0.667c-3.812,0-1.298-5.833-0.465-11
						C292.549,261.834,288.369,241.635,288.369,241.635z"/>
					<g>
						<path style="fill:#4F4F4F;" d="M321.799,274.584c-2,0.667-27.895,0.667-29.618,0.667c-1.1,0-1.662-0.496-1.901-1.311
							c-0.365,2.365-0.151,4.061,1.901,4.061c1.723,0,27.618,0,29.618-0.667c1.246-0.415,1.909-1.931,0.982-3.457
							C322.535,274.201,322.199,274.451,321.799,274.584z"/>
					</g>
					<path style="fill:#E26B50;" d="M259.049,241.001l15.871,2.323c0,0-5.836,18.86-5.502,21.36c0.333,2.5,8.548,4.5,13.715,6.333
						c5.167,1.833,4.667,5.333,2.667,6c-1,0.333-5.88,0.471-12.873,0.555c-6.993,0.083-15.598-2.654-16.46-2.654
						c-3.812,0-1.298-5.833-0.465-11C256.834,258.751,259.049,241.001,259.049,241.001z"/>
					<g>
						<path style="fill:#4F4F4F;" d="M285.799,274.517c-1,0.333-5.88,0.471-12.873,0.555c-6.993,0.083-15.598-2.655-16.46-2.655
							c-1.136,0-1.702-0.526-1.926-1.39c-0.327,2.275-0.075,3.89,1.926,3.89c0.862,0,9.467,2.738,16.46,2.655
							c6.993-0.083,11.873-0.221,12.873-0.555c1.207-0.403,1.858-1.838,1.055-3.315C286.604,274.078,286.242,274.37,285.799,274.517
							z"/>
					</g>
				</g>
				<g>
					<g>
						<path style="fill:#9A9FA0;" d="M341.511,441.129V279.154l-24.904-15.658c0,0-32.375,63.741-28.017,103.678
							c4.358,39.937,28.017,90.575,28.017,90.575L341.511,441.129z"/>
						<path style="fill:#ACB4B5;" d="M198.311,278.231l118.295-14.735c0,0-8.716,56.45,0,194.253
							c-43.167-4.151-118.295-12.943-118.295-12.943S182.539,335.303,198.311,278.231z"/>
					</g>
					<g>
						<ellipse style="fill:#CCCCCC;" cx="251.025" cy="354.751" rx="51.054" ry="56.085"/>
						<ellipse style="fill:#E0E0E0;" cx="249.158" cy="354.751" rx="49.186" ry="56.085"/>
						<ellipse style="fill:#9A9FA0;" cx="247.964" cy="354.751" rx="36.578" ry="40.721"/>
						<ellipse style="fill:#7F8384;" cx="251.544" cy="354.751" rx="30.611" ry="35.407"/>
						<ellipse style="fill:#626666;" cx="255.28" cy="354.531" rx="25.216" ry="31.618"/>
					</g>
					<path style="fill:#9A9FA0;" d="M193.565,303.544L314.102,292.1c0.017-0.298,0.034-0.6,0.051-0.893l-120.478,11.438
						C193.638,302.945,193.601,303.244,193.565,303.544z"/>
					<g>
						<path style="fill:#9A9FA0;" d="M256.88,282.912c-0.305,3.407-2.938,6.026-5.881,5.85c-2.943-0.176-5.082-3.08-4.777-6.487
							c0.305-3.407,2.938-6.025,5.881-5.85C255.047,276.601,257.185,279.505,256.88,282.912z"/>
						<path style="fill:#E0E0E0;" d="M254.918,282.795c-0.305,3.407-2.938,6.025-5.881,5.85c-2.943-0.176-5.082-3.08-4.777-6.487
							c0.305-3.406,2.938-6.025,5.881-5.849C253.084,276.484,255.223,279.388,254.918,282.795z"/>
						<path style="fill:#7F8384;" d="M249.054,279.154L249.054,279.154c-0.193,0-0.35-0.158-0.35-0.35v-1.605
							c0-0.193,0.158-0.35,0.35-0.35l0,0c0.193,0,0.35,0.158,0.35,0.35v1.605C249.404,278.996,249.247,279.154,249.054,279.154z"/>
						<path style="fill:#CCCCCC;" d="M271.513,272.532l23.275-2.723c1.308-0.153,2.432,0.921,2.34,2.234l-0.84,11.912
							c-0.071,1.012-0.855,1.828-1.863,1.94l-23.426,2.604c-1.315,0.146-2.436-0.945-2.326-2.264l0.991-11.793
							C269.747,273.447,270.521,272.648,271.513,272.532z"/>
						<path style="fill:#E0E0E0;" d="M270.929,272.298l23.275-2.723c1.308-0.153,2.432,0.921,2.34,2.234l-0.84,11.912
							c-0.071,1.012-0.855,1.828-1.863,1.94l-23.426,2.604c-1.315,0.146-2.436-0.945-2.326-2.264l0.991-11.793
							C269.164,273.213,269.937,272.414,270.929,272.298z"/>
						<path style="fill:#7F8384;" d="M305.445,268.432l-2.969,0.329c-0.529,0.059-0.935,0.496-0.955,1.027l-0.093,2.471
							c-0.024,0.646,0.523,1.167,1.168,1.111l2.959-0.259c0.538-0.047,0.958-0.487,0.98-1.027l0.103-2.541
							C306.663,268.887,306.099,268.36,305.445,268.432z"/>
						<path style="fill:#7F8384;" d="M301.22,277.745L300.984,284c-0.025,0.652,0.533,1.176,1.183,1.109l2.928-0.299
							c0.532-0.054,0.943-0.491,0.965-1.025l0.251-6.186c0.026-0.643-0.516-1.165-1.157-1.115l-2.943,0.23
							C301.667,276.757,301.241,277.2,301.22,277.745z"/>
						<path style="fill:#7F8384;" d="M235.021,276.853l-3.752,0.416c-0.337,0.037-0.597,0.316-0.61,0.655l-0.122,3.246
							c-0.016,0.412,0.334,0.745,0.745,0.709l3.739-0.328c0.344-0.03,0.611-0.311,0.625-0.655l0.135-3.335
							C235.799,277.143,235.438,276.806,235.021,276.853z"/>
						<path style="fill:#7F8384;" d="M230.357,285.962l-0.258,6.835c-0.018,0.48,0.392,0.865,0.87,0.816l3.499-0.357
							c0.391-0.04,0.694-0.361,0.71-0.754l0.273-6.752c0.019-0.473-0.379-0.857-0.851-0.82l-3.514,0.275
							C230.685,285.236,230.372,285.561,230.357,285.962z"/>
					</g>
				</g>
				<g>
					<g>
						<path style="fill:#EE7552;" d="M151.217,246.65c0,0-3.209,1.786-10.926,7.839c-7.718,6.053-19.285,24.582-1.917,25.82
							C155.742,281.548,151.217,246.65,151.217,246.65z"/>
						<g>
							<g>
								<g>
									<path style="fill:#2A3051;" d="M140.132,324.911c0,0-1.296,34.017-2.072,41.532c-0.776,7.515-20.701,77.351-20.701,77.351
										l-7.964-1.499c0,0,1.856-52.538,12.371-69.555c3.191-16.956-12.212-35.177-7.94-54.482
										C125.022,318.13,140.132,324.911,140.132,324.911z"/>
									<path style="fill:#2A3051;" d="M146.961,322.572c0,0,5.707,33.561,6.488,41.075c0.781,7.514-1.188,79.929-1.188,79.929
										l-8.102,0.166c0,0-11.935-48.006-5.367-70.591c-0.353-17.25-19.165-31.925-18.942-51.697
										C130.782,319.034,146.961,322.572,146.961,322.572z"/>
								</g>
								<g>
									<path style="fill:#FCA08B;" d="M175.682,230.84c0,0-2.176,5.447-6.674,8.538c2.758,3.261,3.738,8.329,5.529,9.04
										c1.231,0.489,3.783-2.945,3.783-2.945L175.682,230.84z"/>
									<g>
										<path style="fill:#FFB29C;" d="M193.223,228.074c0,0,0.18,4.579-0.466,6.126c-0.646,1.547-2.165,2.467-1.863,3.804
											c0.302,1.337,0.507,3.858,0.421,4.498c-0.086,0.64-1.922-0.014-2.481-0.064c-0.776,1.423-3.52,4.697-4.784,5.597
											c-1.264,0.9-4.279-1.905-7.071-5.31c-2.792-3.405-2.12-6.809-1.813-8.978c0.307-2.169-3.385-6.838,2.585-10.273
											C183.721,220.039,193.206,225.958,193.223,228.074z"/>
										<path style="fill:#202441;" d="M180.315,240.063c-0.4-1.372-0.326-2.939-0.289-3.035c0.147-0.381,0.89-3.638,2.618-7.2
											c1.635-0.332,3.761-2.676,3.761-2.676l1.993-3.156c-3.223-1.513-7.441-2.367-10.647-0.523
											c-2.719,1.564-3.431,3.385-3.432,5.108c2.257-1.407,5.128-1.105,5.588,0.379c0.547,1.765-0.389,3.994-2.063,5.703
											c-0.946,0.965-2.127,1.55-2.973,2.237c0.014,1.768,0.874,3.018,1.826,5.465c0.312,0.801,1.868,3.011,3.17,3.541
											C181.527,243.238,180.607,243.523,180.315,240.063z"/>
										<path style="fill:#FFFFFF;" d="M187.154,244.439l-3.818-2.262C183.378,245.908,185.065,248.578,187.154,244.439z"/>
										<path style="fill:#202441;" d="M185.558,226.423c0,0,6.102,3.991,10.147,0.959c4.045-3.032,3.989-7.659,1.93-8.881
											c-2.06-1.223-4.643,0.762-4.643,0.762c-1.313-3.23-7.178-3.622-9.488-2.034c-4.194-3.675-6.052,0.732-6.052,0.732
											c-4.825-2.98-7.857,7.814-4.095,16.875c2.918-0.447,5.331-6.051,5.331-6.051L185.558,226.423z"/>
										<path style="fill:#202441;" d="M188.963,236.915c-0.306,0.485-0.795,0.727-1.091,0.54
											c-0.296-0.187-0.288-0.732,0.018-1.217c0.306-0.485,0.795-0.727,1.091-0.54
											C189.277,235.885,189.269,236.43,188.963,236.915z"/>
										<path style="fill:#FFB29C;" d="M177.333,234.483c0,0-1.779,0.284-2.06-2.466c-0.281-2.75,1.132-4.318,2.405-4.645
											c1.273-0.327,2.753,1.074,2.869,2.605C180.663,231.508,179.272,234.298,177.333,234.483z"/>
									</g>
								</g>
								<path style="fill:#202441;" d="M185.76,233.934c0,0,2.5-1.914,5.58,0.067c0.369,0.102,1.067-1.143,0.139-1.684
									C190.55,231.776,187.343,231.788,185.76,233.934z"/>
								<g>
									<path style="fill:#FF905F;" d="M178.197,253.159c0,0-0.865-6.973-4.119-11.657c-3.254-4.684-5.16-4.521-6.777-2.809
										c-1.617,1.712-3.929,4.305-3.929,4.305L178.197,253.159z"/>
									<path style="fill:#EE7552;" d="M151.217,246.65c0,0,8.863-5.947,16.604-3.6c7.74,2.346,8.529,7.12,10.291,8.509
										c1.762,1.388,0.462,11.913-1.358,18.434c-0.553,1.983-2.927,10.255-9.819,23.88c-7.401,14.632-20.726,38.434-20.726,38.434
										s-16.888-9.625-23.54-16.667C137.308,284.001,146.394,253.095,151.217,246.65z"/>
									<path style="fill:#2A3051;" d="M176.18,280.169c3.074-7.477,3.293-22.686,3.293-22.686s0.976-6.264-4.486-9.307
										c-5.462-3.042-9.343,1.536-13.412,0.481c-4.07-1.055,0.949-6.092,0.949-6.092c-0.577-0.662-3.112,0.493-4.097,0.801
										c-0.985,0.308-10.438,7.218-21.977,29.149c-4.636,8.811-4.906,17.357-8.417,24.507
										c-5.228,10.647-11.647,8.941-14.832,25.063c12.089,17.335,30.588,16.124,30.588,16.124S173.107,287.647,176.18,280.169z
										 M163.14,299.565c-2.358,2.671-14.354-0.949-14.296-5.951c0.058-5.003,10.128-34.1,15.476-39.201
										c5.347-5.102,12.315-0.513,13.451,2.938c1.136,3.451-1.792,12.045-1.792,12.045
										C173.952,278.666,165.498,296.893,163.14,299.565z"/>
									<g>
										<path style="fill:#FFB29C;" d="M217.181,299.29c0,0,1.976-0.246,3.492-1.071c1.516-0.826,4.476-3.221,5.591-3.303
											c1.115-0.082,0.883,1.47-0.275,2.389s-1.756,1.535-1.756,1.535s7.021-1.102,9.62-2.19c1.99-0.368,1.489,1.239,0.102,1.852
											c-1.386,0.613-6.386,1.984-6.386,1.984s5.555-0.939,7.398-1.516c1.843-0.577,2.037,0.024,1.999,0.809
											c-0.038,0.785-8.268,2.785-8.799,2.828c3.462,0.557,7.699-0.587,8.322-0.515c0.623,0.072,1.102,0.938,0.247,1.513
											c-0.856,0.575-7.228,1.525-8.007,1.435c2.21,0.465,5.248,0.131,5.859,0.306c0.611,0.176,0.538,1.272-1.27,1.432
											c-1.808,0.16-8.414,0.399-10.611-0.169c-2.198-0.569-5.08-0.524-5.08-0.524L217.181,299.29z"/>
										<path style="fill:#EE7552;" d="M178.197,257.834c0,0,9.53,22.906,12.357,27.416c4.126,6.583,26.885,11.571,28.57,13.573
											c1.685,2.001,0.859,6.411-1.423,7.882c-4.154,0.665-12.994-1.26-16.229-2.143c-1.72-0.469-9.782-2.315-13.75-4.125
											c-3.969-1.81-9-7.641-10.625-10.141c-3.937-6.056-15.369-17.039-16-26.801
											C160.807,259.002,171.954,247.167,178.197,257.834z"/>
									</g>
								</g>
							</g>
						</g>
					</g>
					<path style="fill:#EE7552;" d="M138.016,421.544l16.394-0.97c0,0,0.96,21.485,1.344,23.978
						c0.384,2.493,8.424,4.328,13.627,6.056c5.203,1.727,4.775,5.237,2.789,5.944c-1.986,0.707-27.876,1.237-29.598,1.272
						c-3.811,0.078-1.417-5.805-0.69-10.988C142.609,441.653,138.016,421.544,138.016,421.544z"/>
					<g>
						<path style="fill:#4F4F4F;" d="M172.114,453.802c-1.986,0.707-27.876,1.237-29.598,1.273
							c-1.099,0.022-1.672-0.462-1.927-1.272c-0.316,2.372-0.068,4.063,1.983,4.021c1.723-0.035,27.612-0.565,29.598-1.272
							c1.237-0.441,1.869-1.969,0.911-3.477C172.841,453.404,172.511,453.661,172.114,453.802z"/>
					</g>
					<path style="fill:#E26B50;" d="M108.69,421.51l15.915,1.998c0,0-5.449,18.975-5.064,21.468
						c0.384,2.493,8.639,4.324,13.842,6.051c5.203,1.727,4.775,5.237,2.789,5.944c-0.993,0.354-5.87,0.592-12.859,0.818
						c-6.99,0.226-15.649-2.335-16.511-2.317c-3.811,0.078-1.418-5.805-0.69-10.988C106.838,439.301,108.69,421.51,108.69,421.51z"
						/>
					<g>
						<path style="fill:#4F4F4F;" d="M136.12,454.472c-0.993,0.354-5.87,0.592-12.859,0.818c-6.99,0.227-15.649-2.335-16.511-2.317
							c-1.136,0.023-1.712-0.491-1.954-1.35c-0.281,2.281,0.004,3.891,2.005,3.85c0.861-0.018,9.521,2.544,16.511,2.317
							c6.99-0.226,11.866-0.464,12.859-0.818c1.199-0.427,1.82-1.875,0.987-3.336C136.915,454.016,136.559,454.315,136.12,454.472z"
							/>
					</g>
				</g>
				<g>
					<g>
						<path style="fill:#626666;" d="M575.661,338.6H432.653c-5.653,0-10.252-4.599-10.252-10.252v-27.848
							c0-5.653,4.599-10.252,10.252-10.252h143.008c5.653,0,10.252,4.599,10.252,10.252v27.848
							C585.913,334.001,581.315,338.6,575.661,338.6z M432.653,295.249c-2.895,0-5.252,2.357-5.252,5.252v27.848
							c0,2.896,2.356,5.252,5.252,5.252h143.008c2.895,0,5.252-2.356,5.252-5.252v-27.848c0-2.896-2.356-5.252-5.252-5.252H432.653z
							"/>
					</g>
					<g>
						<g>
							<g>
								<g>
									<path style="fill:#626666;" d="M390.241,444.375h-5.167c-1.151,0-2.083-0.933-2.083-2.083v-5.417h9.333v5.417
										C392.324,443.442,391.391,444.375,390.241,444.375z"/>
									<path style="fill:#626666;" d="M623.241,444.375h-5.167c-1.151,0-2.083-0.933-2.083-2.083v-5.417h9.333v5.417
										C625.324,443.442,624.391,444.375,623.241,444.375z"/>
								</g>
								<path style="fill:#ACB4B5;" d="M632.489,440.029H375.826c-3.71,0-6.717-3.007-6.717-6.717V332.59
									c0-3.71,3.007-6.717,6.717-6.717h256.663c3.71,0,6.717,3.007,6.717,6.717v100.722
									C639.205,437.022,636.198,440.029,632.489,440.029z"/>
								<rect x="444.412" y="326.172" style="fill:#7F8384;" width="118" height="114.155"/>
							</g>
							<g>
								<g>
									<g>
										
											<ellipse transform="matrix(0.7071 -0.7071 0.7071 0.7071 -107.7928 541.3004)" style="fill:#7F8384;" cx="599.511" cy="400.768" rx="28.792" ry="28.792"/>
										<path style="fill:#7F8384;" d="M602.917,372.259c0,1.881-1.525,3.406-3.406,3.406s-3.406-1.525-3.406-3.406
											s1.525-3.406,3.406-3.406S602.917,370.378,602.917,372.259z"/>
										<path style="fill:#7F8384;" d="M602.917,429.197c0,1.881-1.525,3.406-3.406,3.406s-3.406-1.525-3.406-3.406
											s1.525-3.406,3.406-3.406S602.917,427.316,602.917,429.197z"/>
										<path style="fill:#7F8384;" d="M627.98,404.134c-1.881,0-3.406-1.525-3.406-3.406s1.525-3.406,3.406-3.406
											s3.406,1.525,3.406,3.406S629.861,404.134,627.98,404.134z"/>
										<path style="fill:#7F8384;" d="M571.042,404.134c-1.881,0-3.406-1.525-3.406-3.406s1.525-3.406,3.406-3.406
											s3.406,1.525,3.406,3.406S572.923,404.134,571.042,404.134z"/>
										<circle style="fill:#626666;" cx="599.511" cy="400.768" r="24.183"/>
										<circle style="fill:#626666;" cx="599.511" cy="372.259" r="1.541"/>
										<circle style="fill:#626666;" cx="627.98" cy="400.768" r="1.541"/>
										<circle style="fill:#626666;" cx="570.964" cy="400.768" r="1.541"/>
										<circle style="fill:#626666;" cx="599.511" cy="429.276" r="1.541"/>
									</g>
									<g>
										<circle style="fill:#7F8384;" cx="617.886" cy="348.121" r="12.834"/>
										<path style="fill:#7F8384;" d="M619.404,335.413c0,0.839-0.68,1.518-1.518,1.518s-1.518-0.68-1.518-1.518
											c0-0.839,0.68-1.518,1.518-1.518S619.404,334.575,619.404,335.413z"/>
										<path style="fill:#7F8384;" d="M619.404,360.793c0,0.839-0.68,1.518-1.518,1.518s-1.518-0.68-1.518-1.518
											s0.68-1.518,1.518-1.518S619.404,359.955,619.404,360.793z"/>
										<path style="fill:#7F8384;" d="M630.576,349.622c-0.839,0-1.518-0.68-1.518-1.518s0.68-1.518,1.518-1.518
											s1.518,0.68,1.518,1.518S631.415,349.622,630.576,349.622z"/>
										<path style="fill:#7F8384;" d="M605.196,349.622c-0.839,0-1.518-0.68-1.518-1.518s0.68-1.518,1.518-1.518
											c0.839,0,1.518,0.68,1.518,1.518S606.034,349.622,605.196,349.622z"/>
										<circle style="fill:#626666;" cx="617.886" cy="348.121" r="10.78"/>
										<path style="fill:#626666;" d="M618.573,335.413c0,0.379-0.307,0.687-0.687,0.687c-0.379,0-0.687-0.307-0.687-0.687
											c0-0.379,0.307-0.687,0.687-0.687C618.265,334.727,618.573,335.034,618.573,335.413z"/>
										<path style="fill:#626666;" d="M630.576,348.808c-0.379,0-0.687-0.307-0.687-0.687s0.307-0.687,0.687-0.687
											c0.379,0,0.687,0.307,0.687,0.687S630.955,348.808,630.576,348.808z"/>
										<path style="fill:#626666;" d="M605.161,348.808c-0.379,0-0.687-0.307-0.687-0.687s0.307-0.687,0.687-0.687
											c0.379,0,0.687,0.307,0.687,0.687S605.54,348.808,605.161,348.808z"/>
										<path style="fill:#626666;" d="M618.573,360.828c0,0.379-0.307,0.687-0.687,0.687c-0.379,0-0.687-0.307-0.687-0.687
											s0.307-0.687,0.687-0.687C618.265,360.142,618.573,360.449,618.573,360.828z"/>
									</g>
									<g>
										<circle style="fill:#7F8384;" cx="580.761" cy="348.121" r="12.834"/>
										<path style="fill:#7F8384;" d="M582.279,335.413c0,0.839-0.68,1.518-1.518,1.518s-1.518-0.68-1.518-1.518
											c0-0.839,0.68-1.518,1.518-1.518S582.279,334.575,582.279,335.413z"/>
										<path style="fill:#7F8384;" d="M582.279,360.793c0,0.839-0.68,1.518-1.518,1.518s-1.518-0.68-1.518-1.518
											s0.68-1.518,1.518-1.518S582.279,359.955,582.279,360.793z"/>
										<path style="fill:#7F8384;" d="M593.451,349.622c-0.839,0-1.518-0.68-1.518-1.518s0.68-1.518,1.518-1.518
											s1.518,0.68,1.518,1.518S594.29,349.622,593.451,349.622z"/>
										<path style="fill:#7F8384;" d="M568.071,349.622c-0.839,0-1.518-0.68-1.518-1.518s0.68-1.518,1.518-1.518
											c0.839,0,1.518,0.68,1.518,1.518S568.909,349.622,568.071,349.622z"/>
										<circle style="fill:#626666;" cx="580.761" cy="348.121" r="10.78"/>
										<path style="fill:#626666;" d="M581.448,335.413c0,0.379-0.307,0.687-0.687,0.687c-0.379,0-0.687-0.307-0.687-0.687
											c0-0.379,0.307-0.687,0.687-0.687C581.14,334.727,581.448,335.034,581.448,335.413z"/>
										<path style="fill:#626666;" d="M593.451,348.808c-0.379,0-0.687-0.307-0.687-0.687s0.307-0.687,0.687-0.687
											c0.379,0,0.687,0.307,0.687,0.687S593.83,348.808,593.451,348.808z"/>
										<path style="fill:#626666;" d="M568.036,348.808c-0.379,0-0.687-0.307-0.687-0.687s0.307-0.687,0.687-0.687
											c0.379,0,0.687,0.307,0.687,0.687S568.415,348.808,568.036,348.808z"/>
										<path style="fill:#626666;" d="M581.448,360.828c0,0.379-0.307,0.687-0.687,0.687c-0.379,0-0.687-0.307-0.687-0.687
											s0.307-0.687,0.687-0.687C581.14,360.142,581.448,360.449,581.448,360.828z"/>
									</g>
								</g>
								<g>
									<g>
										
											<ellipse transform="matrix(0.7071 -0.7071 0.7071 0.7071 -163.9766 405.6606)" style="fill:#7F8384;" cx="407.687" cy="400.768" rx="28.792" ry="28.792"/>
										<path style="fill:#7F8384;" d="M411.093,372.259c0,1.881-1.525,3.406-3.406,3.406s-3.406-1.525-3.406-3.406
											s1.525-3.406,3.406-3.406S411.093,370.378,411.093,372.259z"/>
										<path style="fill:#7F8384;" d="M411.093,429.197c0,1.881-1.525,3.406-3.406,3.406s-3.406-1.525-3.406-3.406
											s1.525-3.406,3.406-3.406S411.093,427.316,411.093,429.197z"/>
										<path style="fill:#7F8384;" d="M436.156,404.134c-1.881,0-3.406-1.525-3.406-3.406s1.525-3.406,3.406-3.406
											c1.881,0,3.406,1.525,3.406,3.406S438.037,404.134,436.156,404.134z"/>
										<path style="fill:#7F8384;" d="M379.218,404.134c-1.881,0-3.406-1.525-3.406-3.406s1.525-3.406,3.406-3.406
											c1.881,0,3.406,1.525,3.406,3.406S381.099,404.134,379.218,404.134z"/>
										<circle style="fill:#626666;" cx="407.687" cy="400.768" r="24.183"/>
										<circle style="fill:#626666;" cx="407.687" cy="372.259" r="1.541"/>
										<circle style="fill:#626666;" cx="436.156" cy="400.768" r="1.541"/>
										<circle style="fill:#626666;" cx="379.14" cy="400.768" r="1.541"/>
										<circle style="fill:#626666;" cx="407.687" cy="429.276" r="1.541"/>
									</g>
									<g>
										<circle style="fill:#7F8384;" cx="426.062" cy="348.121" r="12.834"/>
										<path style="fill:#7F8384;" d="M427.581,335.413c0,0.839-0.68,1.518-1.518,1.518s-1.518-0.68-1.518-1.518
											c0-0.839,0.68-1.518,1.518-1.518S427.581,334.575,427.581,335.413z"/>
										<path style="fill:#7F8384;" d="M427.581,360.793c0,0.839-0.68,1.518-1.518,1.518s-1.518-0.68-1.518-1.518
											s0.68-1.518,1.518-1.518S427.581,359.955,427.581,360.793z"/>
										<path style="fill:#7F8384;" d="M438.752,349.622c-0.839,0-1.518-0.68-1.518-1.518s0.68-1.518,1.518-1.518
											s1.518,0.68,1.518,1.518S439.591,349.622,438.752,349.622z"/>
										<path style="fill:#7F8384;" d="M413.372,349.622c-0.839,0-1.518-0.68-1.518-1.518s0.68-1.518,1.518-1.518
											c0.839,0,1.518,0.68,1.518,1.518S414.211,349.622,413.372,349.622z"/>
										<circle style="fill:#626666;" cx="426.062" cy="348.121" r="10.78"/>
										<path style="fill:#626666;" d="M426.749,335.413c0,0.379-0.307,0.687-0.687,0.687c-0.379,0-0.687-0.307-0.687-0.687
											c0-0.379,0.307-0.687,0.687-0.687C426.442,334.727,426.749,335.034,426.749,335.413z"/>
										<path style="fill:#626666;" d="M438.752,348.808c-0.379,0-0.687-0.307-0.687-0.687s0.308-0.687,0.687-0.687
											c0.379,0,0.687,0.307,0.687,0.687S439.132,348.808,438.752,348.808z"/>
										<path style="fill:#626666;" d="M413.337,348.808c-0.379,0-0.687-0.307-0.687-0.687s0.308-0.687,0.687-0.687
											c0.379,0,0.687,0.307,0.687,0.687S413.716,348.808,413.337,348.808z"/>
										<path style="fill:#626666;" d="M426.749,360.828c0,0.379-0.307,0.687-0.687,0.687c-0.379,0-0.687-0.307-0.687-0.687
											s0.307-0.687,0.687-0.687C426.442,360.142,426.749,360.449,426.749,360.828z"/>
									</g>
									<g>
										<circle style="fill:#7F8384;" cx="388.937" cy="348.121" r="12.834"/>
										<path style="fill:#7F8384;" d="M390.456,335.413c0,0.839-0.68,1.518-1.518,1.518s-1.518-0.68-1.518-1.518
											c0-0.839,0.68-1.518,1.518-1.518S390.456,334.575,390.456,335.413z"/>
										<path style="fill:#7F8384;" d="M390.456,360.793c0,0.839-0.68,1.518-1.518,1.518s-1.518-0.68-1.518-1.518
											s0.68-1.518,1.518-1.518S390.456,359.955,390.456,360.793z"/>
										<path style="fill:#7F8384;" d="M401.627,349.622c-0.838,0-1.518-0.68-1.518-1.518s0.68-1.518,1.518-1.518
											c0.839,0,1.518,0.68,1.518,1.518S402.466,349.622,401.627,349.622z"/>
										<path style="fill:#7F8384;" d="M376.247,349.622c-0.839,0-1.518-0.68-1.518-1.518s0.68-1.518,1.518-1.518
											c0.839,0,1.518,0.68,1.518,1.518S377.086,349.622,376.247,349.622z"/>
										<circle style="fill:#626666;" cx="388.937" cy="348.121" r="10.78"/>
										<path style="fill:#626666;" d="M389.624,335.413c0,0.379-0.307,0.687-0.687,0.687c-0.379,0-0.687-0.307-0.687-0.687
											c0-0.379,0.307-0.687,0.687-0.687C389.317,334.727,389.624,335.034,389.624,335.413z"/>
										<path style="fill:#626666;" d="M401.627,348.808c-0.379,0-0.687-0.307-0.687-0.687s0.308-0.687,0.687-0.687
											c0.379,0,0.687,0.307,0.687,0.687S402.007,348.808,401.627,348.808z"/>
										<path style="fill:#626666;" d="M376.212,348.808c-0.379,0-0.687-0.307-0.687-0.687s0.308-0.687,0.687-0.687
											c0.379,0,0.687,0.307,0.687,0.687S376.591,348.808,376.212,348.808z"/>
										<path style="fill:#626666;" d="M389.624,360.828c0,0.379-0.307,0.687-0.687,0.687c-0.379,0-0.687-0.307-0.687-0.687
											s0.307-0.687,0.687-0.687C389.317,360.142,389.624,360.449,389.624,360.828z"/>
									</g>
								</g>
							</g>
						</g>
						<rect x="451.383" y="411.167" style="fill:#595B5B;" width="5.533" height="7.25"/>
						<g>
							<g>
								<rect x="451.383" y="379.875" style="fill:#595B5B;" width="50.667" height="29.667"/>
								<path style="fill:#626666;" d="M497.983,408.625h-42.532c-1.382,0-2.502-1.12-2.502-2.502v-22.83
									c0-1.382,1.12-2.502,2.502-2.502h42.532c1.382,0,2.502,1.12,2.502,2.502v22.83
									C500.484,407.505,499.364,408.625,497.983,408.625z"/>
								<rect x="504.157" y="379.875" style="fill:#595B5B;" width="50.667" height="29.667"/>
								<path style="fill:#626666;" d="M550.756,408.625h-42.532c-1.382,0-2.502-1.12-2.502-2.502v-22.83
									c0-1.382,1.12-2.502,2.502-2.502h42.532c1.382,0,2.502,1.12,2.502,2.502v22.83
									C553.258,407.505,552.138,408.625,550.756,408.625z"/>
							</g>
							<g>
								<rect x="457.831" y="411.167" style="fill:#595B5B;" width="5.533" height="7.25"/>
								<rect x="464.279" y="411.167" style="fill:#595B5B;" width="5.533" height="7.25"/>
								<rect x="470.727" y="411.167" style="fill:#595B5B;" width="5.533" height="7.25"/>
								<rect x="477.174" y="411.167" style="fill:#595B5B;" width="5.533" height="7.25"/>
								<rect x="483.622" y="411.167" style="fill:#595B5B;" width="5.533" height="7.25"/>
								<rect x="490.07" y="411.167" style="fill:#595B5B;" width="5.533" height="7.25"/>
								<rect x="496.517" y="411.167" style="fill:#595B5B;" width="5.533" height="7.25"/>
								<rect x="504.157" y="411.167" style="fill:#595B5B;" width="5.533" height="7.25"/>
								<rect x="510.605" y="411.167" style="fill:#595B5B;" width="5.533" height="7.25"/>
								<rect x="517.053" y="411.167" style="fill:#595B5B;" width="5.533" height="7.25"/>
								<rect x="523.5" y="411.167" style="fill:#595B5B;" width="5.533" height="7.25"/>
								<rect x="529.948" y="411.167" style="fill:#595B5B;" width="5.533" height="7.25"/>
								<rect x="536.396" y="411.167" style="fill:#595B5B;" width="5.533" height="7.25"/>
								<rect x="542.844" y="411.167" style="fill:#595B5B;" width="5.533" height="7.25"/>
								<rect x="549.291" y="411.167" style="fill:#595B5B;" width="5.533" height="7.25"/>
							</g>
							<g>
								<g>
									<path style="fill:#595B5B;" d="M468.837,394.708c0,1.749-1.418,3.167-3.167,3.167s-3.167-1.418-3.167-3.167
										s1.418-3.167,3.167-3.167S468.837,392.959,468.837,394.708z"/>
									<g>
										<path style="fill:#7F8384;" d="M468.759,395.229h-6.281c-0.249,0-0.453-0.204-0.453-0.453v0
											c0-0.249,0.204-0.453,0.453-0.453h6.281c0.249,0,0.453,0.204,0.453,0.453v0
											C469.212,395.025,469.008,395.229,468.759,395.229z"/>
										<path style="fill:#7F8384;" d="M465.165,397.917v-6.281c0-0.249,0.204-0.453,0.453-0.453l0,0
											c0.249,0,0.453,0.204,0.453,0.453v6.281c0,0.249-0.204,0.453-0.453,0.453l0,0
											C465.369,398.37,465.165,398.166,465.165,397.917z"/>
									</g>
								</g>
								<g>
									<path style="fill:#595B5B;" d="M490.119,394.708c0,1.749-1.418,3.167-3.167,3.167s-3.167-1.418-3.167-3.167
										s1.418-3.167,3.167-3.167S490.119,392.959,490.119,394.708z"/>
									<g>
										<path style="fill:#7F8384;" d="M490.041,395.229h-6.281c-0.249,0-0.453-0.204-0.453-0.453v0
											c0-0.249,0.204-0.453,0.453-0.453h6.281c0.249,0,0.453,0.204,0.453,0.453v0
											C490.494,395.025,490.29,395.229,490.041,395.229z"/>
										<path style="fill:#7F8384;" d="M486.447,397.917v-6.281c0-0.249,0.204-0.453,0.453-0.453l0,0
											c0.249,0,0.453,0.204,0.453,0.453v6.281c0,0.249-0.204,0.453-0.453,0.453l0,0
											C486.651,398.37,486.447,398.166,486.447,397.917z"/>
									</g>
								</g>
							</g>
							<g>
								<g>
									<path style="fill:#595B5B;" d="M522.068,394.708c0,1.749-1.418,3.167-3.167,3.167s-3.167-1.418-3.167-3.167
										s1.418-3.167,3.167-3.167S522.068,392.959,522.068,394.708z"/>
									<g>
										<path style="fill:#7F8384;" d="M521.99,395.229h-6.281c-0.249,0-0.453-0.204-0.453-0.453v0
											c0-0.249,0.204-0.453,0.453-0.453h6.281c0.249,0,0.453,0.204,0.453,0.453v0
											C522.443,395.025,522.239,395.229,521.99,395.229z"/>
										<path style="fill:#7F8384;" d="M518.396,397.917v-6.281c0-0.249,0.204-0.453,0.453-0.453l0,0
											c0.249,0,0.453,0.204,0.453,0.453v6.281c0,0.249-0.204,0.453-0.453,0.453l0,0
											C518.6,398.37,518.396,398.166,518.396,397.917z"/>
									</g>
								</g>
								<g>
									<path style="fill:#595B5B;" d="M543.35,394.708c0,1.749-1.418,3.167-3.167,3.167s-3.167-1.418-3.167-3.167
										s1.418-3.167,3.167-3.167S543.35,392.959,543.35,394.708z"/>
									<g>
										<path style="fill:#7F8384;" d="M543.272,395.229h-6.281c-0.249,0-0.453-0.204-0.453-0.453v0
											c0-0.249,0.204-0.453,0.453-0.453h6.281c0.249,0,0.453,0.204,0.453,0.453v0
											C543.725,395.025,543.521,395.229,543.272,395.229z"/>
										<path style="fill:#7F8384;" d="M539.678,397.917v-6.281c0-0.249,0.204-0.453,0.453-0.453l0,0
											c0.249,0,0.453,0.204,0.453,0.453v6.281c0,0.249-0.204,0.453-0.453,0.453l0,0
											C539.882,398.37,539.678,398.166,539.678,397.917z"/>
									</g>
								</g>
							</g>
						</g>
						<path style="fill:#ACB4B5;" d="M552.52,351.292h-98.832c-1.272,0-2.304-1.032-2.304-2.304v-10.583
							c0-1.273,1.032-2.304,2.304-2.304h98.832c1.273,0,2.304,1.032,2.304,2.304v10.583
							C554.824,350.26,553.792,351.292,552.52,351.292z"/>
						<g>
							<g>
								
									<ellipse transform="matrix(0.1606 -0.987 0.987 0.1606 40.3129 772.0256)" style="fill:#595B5B;" cx="474.052" cy="362.312" rx="8.239" ry="8.24"/>
								<path style="fill:#626666;" d="M481.239,362.312c0,3.969-3.218,7.187-7.187,7.187c-3.969,0-7.187-3.218-7.187-7.187
									c0-3.969,3.218-7.187,7.187-7.187C478.021,355.125,481.239,358.342,481.239,362.312z"/>
								<circle style="fill:#ACB4B5;" cx="474.052" cy="356.667" r="0.851"/>
							</g>
							<g>
								<path style="fill:#595B5B;" d="M499.344,368.038c-3.163,3.272-8.379,3.36-11.651,0.198
									c-3.272-3.163-3.36-8.379-0.198-11.651c3.163-3.272,8.379-3.36,11.651-0.198
									C502.418,359.55,502.507,364.766,499.344,368.038z"/>
								
									<ellipse transform="matrix(0.1163 -0.9932 0.9932 0.1163 76.2006 810.2637)" style="fill:#626666;" cx="493.42" cy="362.312" rx="7.187" ry="7.187"/>
								<path style="fill:#ACB4B5;" d="M497.955,358.845c-0.327,0.338-0.866,0.347-1.204,0.02c-0.338-0.327-0.347-0.866-0.02-1.204
									c0.327-0.338,0.866-0.347,1.204-0.02C498.273,357.967,498.282,358.507,497.955,358.845z"/>
							</g>
							<g>
								<path style="fill:#595B5B;" d="M512.927,370.55c-4.55,0.077-8.301-3.549-8.378-8.099c-0.077-4.55,3.549-8.301,8.099-8.378
									c4.55-0.077,8.301,3.549,8.378,8.099S517.477,370.473,512.927,370.55z"/>
								<path style="fill:#626666;" d="M512.909,369.497c-3.969,0.067-7.24-3.095-7.308-7.064c-0.067-3.969,3.095-7.24,7.064-7.308
									c3.969-0.067,7.24,3.095,7.308,7.064C520.04,366.158,516.878,369.43,512.909,369.497z"/>
								<path style="fill:#ACB4B5;" d="M518.446,363.067c-0.47,0.008-0.858-0.367-0.866-0.837c-0.008-0.47,0.367-0.858,0.837-0.866
									c0.47-0.008,0.858,0.367,0.866,0.837C519.291,362.672,518.916,363.059,518.446,363.067z"/>
							</g>
							<g>
								<path style="fill:#595B5B;" d="M540.393,362.172c0.077,4.55-3.549,8.301-8.098,8.378c-4.55,0.077-8.301-3.549-8.378-8.099
									c-0.077-4.55,3.549-8.301,8.099-8.378C536.565,353.996,540.316,357.622,540.393,362.172z"/>
								<path style="fill:#626666;" d="M539.341,362.19c0.067,3.969-3.095,7.24-7.064,7.308c-3.969,0.067-7.24-3.095-7.308-7.064
									c-0.067-3.969,3.095-7.24,7.064-7.308C536.002,355.059,539.273,358.221,539.341,362.19z"/>
								<path style="fill:#ACB4B5;" d="M532.911,356.653c0.008,0.47-0.367,0.858-0.837,0.866c-0.47,0.008-0.858-0.367-0.866-0.837
									s0.367-0.858,0.837-0.866C532.515,355.808,532.903,356.183,532.911,356.653z"/>
							</g>
						</g>
					</g>
				</g>
				<g>
					<g>
						<g>
							<g>
								<path style="fill:#DB5D40;" d="M581.447,246.162c0,0-15.856,21.911-17.751,27.23c-0.718,2.016-24.955-38.293-24.955-38.293
									s-6.346,4.085-7.015,8.429c10.015,16.532,28.913,44.714,34.873,43.763c5.961-0.951,7.94-3.656,10.229-8.122
									c2.483-4.845,8.715-14.402,13.077-22.497C591.697,253.345,581.447,246.162,581.447,246.162z"/>
								<g>
									<g>
										<g>
											<g>
												<path style="fill:#2A3051;" d="M574.925,319.814c0,0-4.208,37.913-4.649,45.455c-0.441,7.542,5.154,75.012,5.154,75.012
													l8.101-0.201c0,0,8.509-43.473,1.816-65.98c-0.427-17.248,17.727-36.889,16.61-56.63
													C590.927,315.547,574.925,319.814,574.925,319.814z"/>
											</g>
											<g>
												<g>
													<path style="fill:#FFB29C;" d="M629.365,434.784c0,0,2.619,5.608,3.038,6.587c0.419,0.979-5.107,6.767-5.604,7.2
														s6.414-0.43,10.147-2.47c3.733-2.04,3.573-1.751,3.658-2.615c0.085-0.864-1.402-2.875-2.582-4.301
														c-1.18-1.426-2.463-6.78-2.463-6.78L629.365,434.784z"/>
												</g>
												<path style="fill:#2A3051;" d="M584.272,322.444c0,0,10.356,38.663,12.654,45.624
													c2.299,6.96,33.106,70.125,33.106,70.125l7.449-3.191c0,0-8.36-44.22-23.392-64.575
													c-6.589-15.385,4.673-36.098-3.451-53.474C599.707,319.318,584.272,322.444,584.272,322.444z"/>
											</g>
										</g>
										<g>
											<path style="fill:#EE7552;" d="M622.048,250.84c0,0-5.697-11.369-16.095-14.152c-7.813-2.091-10.968,1.779-13.191,2.075
												c-2.223,0.296-6.677,2.775-10.871,6.415c-1.555,1.35-5.043,11.807-6.821,30.003c-1.594,16.32-0.782,44.665-0.782,44.665
												s32.121,7.017,41.434,4.349C619.255,289.513,622.913,258.844,622.048,250.84z"/>
											<path style="fill:#2A3051;" d="M621.622,246.162c-2.667-6.982-10.05-8.221-12.167-6.066c0,0-8.381,5.875-11.586,26.375
												c-11.955-1.375-14.344-4.125-14.344-4.125s2.666-18.907,6.59-22.703c-2.076-1.172-5.66,0.108-7.826,9.822
												c-2.167,9.714-6.766,21.556-6.766,21.556s-3.633,47.656-2.433,65.657c25.2,4.668,40.599-5.906,40.599-5.906
												s1.933-22.759,6.6-38.426C624.956,276.679,624.289,253.144,621.622,246.162z M611.539,288.501
												c-7.5-1.845-7.75-19.405-6.75-27.405c1-8,5.625-19.781,9.25-19.156s5.875,6.531,5.875,6.531
												c2.75,9.5,0.375,22.875,0,28.625S619.039,290.346,611.539,288.501z"/>
										</g>
									</g>
								</g>
								<g>
									<path style="fill:#FCA08B;" d="M602.255,223.691c0,0,0.84,7.916,3.134,12.868c-4.035,1.4-13.289,14.536-13.17,6.536
										c0.049-3.28,0-9.245,0-9.245L602.255,223.691z"/>
									<g>
										<path style="fill:#202441;" d="M587.697,216.719c0,0-4.72-0.644-4.171-4.121c0.344-2.179,2.559-2.248,2.559-2.248
											s-2.649-1.15-2.022-3.451c0.627-2.3,2.614-1.516,2.614-1.516l4.444-2.562c0,0,1.611-2.562,3.681-1.856
											c2.07,0.706,2.305,1.856,2.305,1.856c1.229-2.196,4.941-1.464,4.862,1.229c3.059-2.771,7.659-0.131,7.607,3.111
											c3.346-2.144,3.189,1.464,2.144,2.196c3.294,0.627,2.562,4.81,1.15,5.699c3.503,1.987-0.732,5.228-1.673,5.281
											c2.039,3.189-2.039,4.444-2.039,4.444c0.366,2.666-2.369,3.973-3.903,3.085c-1.534-0.889,0.453-6.169,0.766-8.313
											c0.314-2.144-1.673-6.222-6.379-7.633C594.938,210.507,587.697,216.719,587.697,216.719z"/>
										<path style="fill:#FFB29C;" d="M588.574,212.371c0,0-2.489,3.848-2.722,5.508s0.605,3.226-0.336,4.222
											c-0.941,0.996-1.703,1.667-1.956,2.261c-0.253,0.594,0.962,2.362,1.469,2.604c-0.058,1.62,0.634,5.835,1.263,7.254
											c0.628,1.419,5.502,1.021,9.64-0.486s4.283-6.125,5.124-8.148c0.841-2.023,6.559-3.289,3.174-9.287
											C600.844,210.301,589.667,210.558,588.574,212.371z"/>
										<path style="fill:#FFFFFF;" d="M585.39,228.142c0,0,0.733,0.936,4.74,0C588.155,231.551,585.643,233.788,585.39,228.142z"
											/>
										<path style="fill:#202441;" d="M591.091,220.347c0,0-2.666-1.27-3.766-1.185c-1.1,0.085-0.423-1.397,0.55-1.058
											C588.849,218.443,590.668,219.628,591.091,220.347z"/>
										<path style="fill:#202441;" d="M604.229,216.298c-1.818-3.221-5.883-4.636-9.427-4.977l0.107,3.731
											c0,0,0.634,3.1,1.872,4.219c-0.137,1.649-0.396,3.161-0.655,4.395l2.064,0.124c-0.009-1.574,0.91-1.19,1.866-2.055
											c1.152-1.042,3.297-1.653,4.521,0.708C605.456,220.959,605.771,219.03,604.229,216.298z"/>
										<path style="fill:#202441;" d="M596.009,214.857c0,0-7.284,0.323-9.219-4.347c-1.935-4.67,0.472-8.622,2.867-8.625
											c2.395-0.002,3.606,3.022,3.606,3.022c2.776-2.11,8.022,0.543,9.199,3.086c5.482-1.024,4.834,3.715,4.834,3.715
											c5.671-0.104,3.21,13.967-4.645,19.845c-0.786-2.747-1.936-11.162-1.936-11.162L596.009,214.857z"/>
										<path style="fill:#202441;" d="M587.732,222.149c0.016,0.574,0.313,1.03,0.664,1.021c0.35-0.01,0.621-0.483,0.605-1.057
											c-0.016-0.574-0.313-1.03-0.664-1.02C587.987,221.102,587.716,221.575,587.732,222.149z"/>
										<path style="fill:#FFB29C;" d="M598.743,227.619c0,0,1.386,1.151,3.029-1.072c1.643-2.223,1.227-4.292,0.298-5.222
											c-0.929-0.93-2.915-0.479-3.796,0.779C597.394,223.362,597.169,226.471,598.743,227.619z"/>
									</g>
								</g>
							</g>
						</g>
						<path style="fill:#EE7552;" d="M630.63,452.303c1.925-0.812,3.966-1.796,5.932-2.883c3.715-2.041,6.602-4.095,6.975-5.006
							c0.149-2.772-1.644-5.593-4.186-9.825s-3.139-10.36-6.577-24.076c-3.588,5.253-16.438,7.18-16.438,7.18
							c3.777,5.256,11.028,20.557,10.878,22.551c-0.079,1.051-1.382,2.075-2.598,2.811c-0.665,0.342-2.453,1.04-2.453,1.04
							c-5.364,2.786-12.211,2.02-11.192,9.285c0.17,1.212,9.884,1.679,13.334,1.014c1.352-0.261,3.1-0.812,5.019-1.562
							c0.001,0,0.002,0.001,0.003,0.001c0.056-0.022,0.112-0.046,0.168-0.068c0.299-0.118,0.602-0.242,0.909-0.37
							C630.481,452.365,630.555,452.335,630.63,452.303z"/>
						<g>
							<path style="fill:#4F4F4F;" d="M636.562,446.793c-1.965,1.087-4.006,2.072-5.932,2.883c-0.075,0.032-0.15,0.062-0.225,0.093
								c-0.307,0.128-0.61,0.251-0.909,0.37c-0.056,0.022-0.112,0.046-0.168,0.068c-0.001,0-0.002-0.001-0.003-0.001
								c-1.919,0.75-3.668,1.301-5.019,1.562c-3.373,0.651-12.706,0.216-13.284-0.935c-0.156,0.709-0.192,1.537-0.05,2.548
								c0.17,1.212,9.884,1.679,13.334,1.014c1.352-0.261,3.1-0.812,5.019-1.562c0.001,0,0.002,0.001,0.003,0.001
								c0.056-0.022,0.112-0.046,0.168-0.068c0.299-0.118,0.602-0.242,0.909-0.37c0.075-0.031,0.15-0.061,0.225-0.093
								c1.925-0.812,3.966-1.796,5.932-2.883c3.715-2.041,6.602-4.095,6.975-5.006c0.039-0.727-0.062-1.46-0.269-2.219
								C642.404,443.228,639.799,445.015,636.562,446.793z"/>
						</g>
						<g>
							<path style="fill:#EE7552;" d="M588.414,417.906l-16.275,0.511c0,0,2.45,20.355,2.116,22.855s-8.333,4.5-13.5,6.333
								c-5.167,1.833-4.667,5.333-2.667,6c2,0.667,27.895,0.667,29.618,0.667c3.812,0,1.298-5.833,0.465-11
								C587.339,438.105,588.414,417.906,588.414,417.906z"/>
							<g>
								<path style="fill:#4F4F4F;" d="M558.089,450.855c2,0.667,27.895,0.667,29.618,0.667c1.1,0,1.662-0.496,1.901-1.311
									c0.365,2.365,0.151,4.061-1.901,4.061c-1.723,0-27.618,0-29.618-0.667c-1.246-0.415-1.909-1.931-0.982-3.457
									C557.354,450.472,557.689,450.722,558.089,450.855z"/>
							</g>
						</g>
					</g>
					<g>
						<g>
							<g>
								<path style="fill:#EEAE18;" d="M619.248,388.625L619.248,388.625c-9.851,4.996-21.887,1.06-26.883-8.792l-52.078-102.693
									c-4.996-9.851-1.06-21.887,8.792-26.883v0c9.851-4.996,21.887-1.06,26.883,8.792l52.078,102.693
									C633.035,371.593,629.099,383.629,619.248,388.625z"/>
								<path style="fill:#626666;" d="M597.866,386.507c5.926,4.643,14.224,5.747,21.382,2.117
									c7.158-3.63,11.17-10.977,10.926-18.502L597.866,386.507z"/>
								<path style="fill:#FFCB27;" d="M600.831,380.799l-0.202,0.103c-1.668,0.846-3.706,0.179-4.552-1.489l-52.681-103.882
									c-0.846-1.668-0.179-3.706,1.489-4.552l0.202-0.103c1.668-0.846,3.706-0.179,4.552,1.489l52.681,103.882
									C603.165,377.915,602.499,379.953,600.831,380.799z"/>
								<path style="fill:#FFCB27;" d="M624.762,368.663l-0.202,0.103c-1.668,0.846-3.706,0.179-4.552-1.489l-52.681-103.882
									c-0.846-1.668-0.179-3.706,1.489-4.552l0.202-0.103c1.668-0.846,3.706-0.179,4.552,1.489l52.681,103.882
									C627.097,365.779,626.431,367.817,624.762,368.663z"/>
								<path style="fill:#FFCB27;" d="M613.168,374.542l-0.202,0.103c-1.668,0.846-3.706,0.179-4.552-1.489l-52.681-103.882
									c-0.846-1.668-0.18-3.706,1.489-4.552l0.202-0.103c1.668-0.846,3.706-0.18,4.552,1.489l52.681,103.882
									C615.503,371.658,614.836,373.696,613.168,374.542z"/>
							</g>
							
								<rect x="537.19" y="239.712" transform="matrix(0.8919 -0.4523 0.4523 0.8919 -52.3105 274.2224)" style="fill:#626666;" width="20.344" height="13.605"/>
						</g>
						
							<rect x="510.942" y="121.052" transform="matrix(0.8919 -0.4523 0.4523 0.8919 -28.8033 254.1336)" style="fill:#626666;" width="12.333" height="132.512"/>
						<path style="fill:#626666;" d="M496.655,123.392c-9.705-15.821-20.33-36.035-20.33-36.035l-7.878,3.995l-7.878,3.995
							c0,0,10.03,20.515,17.06,37.693c6.794,1.974,9.516,8.816,9.516,8.816l5.5-2.789l5.5-2.789
							C498.145,136.278,494.233,130.039,496.655,123.392z"/>
						<path style="fill:#9A9FA0;" d="M496.611,123.321c-9.668-15.76-20.286-35.964-20.286-35.964l-15.756,7.99
							c0,0,10.025,20.504,17.028,37.616L496.611,123.321z"/>
						<path style="fill:#CCCCCC;" d="M480.328,93.923c-3.082-5.042-4.003-6.566-4.003-6.566l-15.756,7.99
							c0,0,0.686,1.643,2.932,7.109L480.328,93.923z"/>
					</g>
					<g>
						<path style="fill:#FFB29C;" d="M570.739,308.049c0,0-1.959,0.357-3.652,0.024c-1.694-0.333-5.236-1.732-6.324-1.476
							c-1.088,0.256-0.402,1.667,0.979,2.197c1.381,0.53,2.135,0.938,2.135,0.938s-4.45,1.747-7.255,1.488
							c-2.008,0.245,1,3.583,2.75,4.542c0.689,0.378,4.782,2.458,8.29,0.926c2.08-0.908,4.689-2.023,4.689-2.023L570.739,308.049z"
							/>
						<path style="fill:#EE7552;" d="M610.259,260.293c0,0-6.663,21.288-7.457,23.076c-0.62,1.394-30.271,22.111-32.651,23.198
							c-2.38,1.086-0.045,6.135,1.386,8.442c5.514,0.764,27.466-9.582,31.349-11.569c7.938-4.063,13.48-11.694,15.206-16.466
							c1.343-3.714,6.972-19.832,5.884-30.815c-0.304-3.065-5.011-11.773-7.024-12.485
							C613.14,242.326,612.629,250.475,610.259,260.293z"/>
					</g>
					<path style="fill:#FFB29C;" d="M531.726,235.098c0,0-3.485-1.886-2.151-7.858c1.333-5.972,9.083-8.143,10.417-7.306
						c1.333,0.837-0.208,1.208-1.708,2.042s-3.542,1.708-4.583,3.708c2-2.042,5.292-3.708,7.833-3.417c1.5,0.292,0.708,1.5,0,1.625
						s-4.833,0.941-6.5,5.033c1.417-1.325,4.583-3.116,6.542-2.991c1,0.042,0.792,1.417-0.208,1.833
						c-1,0.417-4.167,1.083-4.958,3.625c1.667-1.375,4.333-2.167,5.292-1.583c0.958,0.583,0.292,1.042-1.083,1.375
						c-1.375,0.333-4.159,1.85-5.184,5.238C534.366,236.893,531.726,235.098,531.726,235.098z"/>
				</g>
				<g>
					<g>
						<g>
							<path style="fill:#2A3051;" d="M386.591,414.792c0,0,28.583-24.052,41.583-16.422c13,7.63-12.667,42.255-12.667,42.255
								l-10.19-2.903l11.661-21.667c-7.805,9.945-21.061,21.667-21.061,21.667L386.591,414.792z"/>
							<path style="fill:#EE7552;" d="M388.364,355.816c0,0,2.614-2.398,10.85,1.585c8.236,3.984,6.423,24.622,7.292,26.849
								c0.869,2.227-3.652,16.169-8.176,34.95c-6.479,9.658-28.299-3.121-31.717-8.602
								C364.499,378.834,382.321,355.847,388.364,355.816z"/>
							<path style="fill:#FCA08B;" d="M389.734,355.245c0,0,4.321-6.503,5.234-7.124c3.164,3.004,8.164,4.379,8.164,4.379
								s-1.375,8.188,0,12.563C399.007,368.853,389.734,355.245,389.734,355.245z"/>
							<path style="fill:#2A3051;" d="M387.248,355.245c0,0-12.539,6.981-18.766,21.258c-6.227,14.278-11.642,42.355-3.576,54.612
								c8.065,12.257,45.098,18.604,51.653,21.789c-11.947-3.91-40.04-10.716-41.56-10.716c-1.955,7.795-1.65,8.055-1.65,8.055
								s26.098,11.205,41.762,14.68c15.664,3.475,21.99-8.761,8.544-23.169c-13.447-14.409-24.902-18.608-28.561-27.731
								c-1.118-2.788-2.337-11.529-3.419-19.315c0,0-15.527,11.125-13.542-7.458C379.706,372.517,387.248,355.245,387.248,355.245z"
								/>
							<g>
								<path style="fill:#EE7552;" d="M390.497,445.154l-3.241,12.096c0,0-14.5-6.346-15.75-6.048
									c-1.25,0.298-1.625,7.673-1.25,7.798s7.5,1.789,7.625,6.52c-1.625,1.48-9.607,1.145-12.991,0
									c-3.384-1.145-4.273-21.765-1.259-27.02c3.875-2.125,6.125-0.263,9.958,1.827
									C377.424,442.417,390.497,445.154,390.497,445.154z"/>
								<g>
									<path style="fill:#4F4F4F;" d="M367.458,463.292c-3.128-1.058-4.121-18.748-1.874-25.57
										c-0.611,0.146-1.255,0.395-1.952,0.778c-3.014,5.255-2.125,25.875,1.259,27.02c3.384,1.145,11.366,1.48,12.991,0
										c-0.013-0.491-0.116-0.942-0.265-1.369C374.499,464.5,369.841,464.098,367.458,463.292z"/>
								</g>
							</g>
							<path style="fill:#2A3051;" d="M399.316,422.345c0,0,3.495-21.762,8.218-30.803c-6.527-0.542-9.819-4.292-10.423-4.042
								c-0.604,0.25,3.454-19.296,0.831-24.813c-2.622-5.517-7.507-9.564-10.695-7.443c-3.187,2.121-4.616,4.897-4.616,4.897
								l-0.526,5.461c0,0,3.588-9.481,8.776-7.29c3.861,1.63,7.428,12.313,2.652,26.563s-6.152,28.375-6.277,28.75
								S399.316,422.345,399.316,422.345z"/>
							<path style="fill:#FFB29C;" d="M455.413,368.219c0,0,2.263-1.352,3.404-2.647c1.141-1.295,3.1-4.561,4.119-5.02
								c1.019-0.459,1.334,1.078,0.561,2.339c-0.773,1.261-1.123,2.043-1.123,2.043s6.218-3.443,8.286-5.355
								c1.743-1.028,1.823,0.654,0.731,1.705c-1.092,1.051-5.319,4.054-5.319,4.054s4.896-2.787,6.43-3.961
								c1.533-1.174,1.921-0.676,2.155,0.075c0.234,0.75-6.812,5.45-7.296,5.674c3.443-0.664,7.031-3.191,7.641-3.337
								c0.61-0.146,1.357,0.503,0.751,1.337c-0.607,0.833-6.267,3.911-7.03,4.094c2.235-0.321,4.975-1.677,5.609-1.721
								c0.634-0.045,0.941,1.011-0.702,1.781c-1.643,0.77-7.767,3.26-10.026,3.479c-2.259,0.219-4.952,1.249-4.952,1.249
								L455.413,368.219z"/>
							<g>
								<path style="fill:#EE7552;" d="M402.379,368.241c0,0,17.603,8.094,19.212,8.608c1.255,0.401,31.275-8.053,33.309-9.078
									c2.033-1.025,4.03,3.654,4.739,6.049c-2.569,4.346-21.536,13.604-24.994,15.147c-7.069,3.155-15.134,2.476-19.209,0.826
									c-3.171-1.284-21.841-4.394-27.979-12.117c-5.662-7.125-3.265-16.668,0.925-17.534
									C392.016,359.39,394.652,364.013,402.379,368.241z"/>
							</g>
						</g>
						<g>
							<g>
								<path style="fill:#FFB29C;" d="M403.584,331.491c0,0,3.403,3.068,4.06,4.611c0.657,1.543,0.254,3.272,1.422,3.989
									c1.168,0.717,2.078,1.166,2.477,1.675c0.398,0.508-0.315,2.531-0.741,2.896c0.477,1.549,0.905,5.799,0.667,7.333
									c-0.238,1.533-5.048,2.416-9.435,2.037c-4.387-0.379-5.728-4.801-7.066-6.536c-1.338-1.735-7.188-1.471-5.479-8.143
									C391.198,332.681,402.057,330.024,403.584,331.491z"/>
								<path style="fill:#FFFFFF;" d="M410.758,345.891c0,0-0.465,1.095-4.577,1.232
									C408.975,349.902,411.982,351.409,410.758,345.891z"/>
								<path style="fill:#202441;" d="M403.227,339.847c0,0,2.244-1.919,3.329-2.123c1.084-0.204,0.046-1.459-0.806-0.879
									C404.897,337.425,403.448,339.042,403.227,339.847z"/>
								<path style="fill:#202441;" d="M389.488,339.353c0.918-3.583,4.475-6.006,7.808-7.257l0.867,3.63
									c0,0,0.194,3.158-0.711,4.56c0.561,1.557,1.204,2.949,1.775,4.074l-1.961,0.656c-0.4-1.522-1.188-0.913-2.336-1.5
									c-1.384-0.707-3.613-0.74-4.182,1.859C389.515,344.172,388.71,342.391,389.488,339.353z"/>
								<path style="fill:#202441;" d="M397.05,335.824c0,0,1.611,1.285,2.266-3.728c0.654-5.013-0.704-2.883-3.017-2.263
									c-2.313,0.621-0.083-1.833-0.083-1.833c-3.229-1.316-6.704,0.112-7.181,2.874c-5.56,0.436-3.702,4.844-3.702,4.844
									c-5.503,1.373,0.531,14.321,9.644,17.955c0.045-2.857-1.033-11.281-1.033-11.281L397.05,335.824z"/>
								<path style="fill:#202441;" d="M406.938,340.713c0.133,0.558-0.035,1.077-0.376,1.158c-0.341,0.082-0.726-0.305-0.859-0.863
									c-0.133-0.558,0.035-1.077,0.376-1.158C406.42,339.769,406.805,340.155,406.938,340.713z"/>
								<path style="fill:#FFB29C;" d="M397.729,348.857c0,0-1.039,1.471-3.204-0.248c-2.165-1.719-2.3-3.825-1.645-4.965
									c0.655-1.139,2.69-1.221,3.868-0.235C397.925,344.396,398.951,347.34,397.729,348.857z"/>
							</g>
						</g>
						<path style="fill:#FFCB27;" d="M387.457,348.542c0,0,10.216-12.766,17.216-16.446c-3.333-6.679-11.981-7.096-16.824-4.513
							C383.007,330.167,377.882,339.542,387.457,348.542z"/>
						<path style="fill:#EEAE18;" d="M395.407,339.659c0,0,8.787-12.909,13.537-13.096s-2.1,8.309-2.1,8.309
							s-1.004-1.622-2.712-1.413C402.424,333.667,395.407,339.659,395.407,339.659z"/>
					</g>
					<path style="fill:#E0E0E0;" d="M484.318,424.161c0-1.432-0.635-2.704-1.625-3.588v3.771l-3.203,1.849l-3.203-1.849v-3.771
						c-0.99,0.884-1.625,2.156-1.625,3.588c0,1.926,1.136,3.575,2.766,4.35v16.739h4.882v-17.185
						C483.522,427.188,484.318,425.772,484.318,424.161z"/>
					<path style="fill:#E0E0E0;" d="M472.988,424.252c0-1.922-0.853-3.63-2.181-4.816v5.062l-4.3,2.482l-4.3-2.482v-5.062
						c-1.329,1.187-2.181,2.895-2.181,4.816c0,2.585,1.524,4.798,3.713,5.839v22.47h6.554v-23.068
						C471.92,428.315,472.988,426.414,472.988,424.252z"/>
					<path style="fill:#E0E0E0;" d="M458.419,428.298c0-0.755-0.335-1.426-0.857-1.892v1.988l-1.689,0.975l-1.689-0.975v-1.988
						c-0.522,0.466-0.857,1.137-0.857,1.892c0,1.015,0.599,1.885,1.459,2.294v8.826h2.574v-9.061
						C457.999,429.894,458.419,429.147,458.419,428.298z"/>
					<g>
						<g>
							<path style="fill:#CCCCCC;" d="M433.163,439.106c-0.124,0-0.25-0.026-0.371-0.08c-0.46-0.205-0.667-0.745-0.461-1.205
								l8.173-18.296c1.039-2.326,3.081-3.77,5.328-3.77h33.893c2.107,0,4.022,1.251,5.123,3.348l9.797,18.667
								c0.234,0.446,0.063,0.998-0.384,1.232c-0.445,0.235-0.998,0.064-1.232-0.384l-9.797-18.667
								c-0.779-1.484-2.091-2.371-3.508-2.371h-33.893c-1.518,0-2.921,1.031-3.662,2.69l-8.173,18.296
								C433.846,438.904,433.513,439.106,433.163,439.106z"/>
						</g>
						<g>
							<rect x="421.466" y="435.333" style="fill:#C6823E;" width="83.19" height="37"/>
							<rect x="430.13" y="441.652" style="fill:#AD6525;" width="65.862" height="25.446"/>
						</g>
						<g>
							<path style="fill:#E0E0E0;" d="M426.635,439.193c-0.159,0-0.321-0.038-0.472-0.119c-0.486-0.261-0.67-0.867-0.408-1.353
								l9.816-18.296c1.242-2.317,3.649-3.758,6.279-3.758h40.707c2.463,0,4.717,1.243,6.029,3.326l11.766,18.667
								c0.295,0.467,0.154,1.085-0.313,1.379c-0.467,0.296-1.085,0.156-1.379-0.313l-11.766-18.667
								c-0.944-1.498-2.566-2.393-4.338-2.393h-40.707c-1.893,0-3.623,1.036-4.518,2.703l-9.816,18.296
								C427.337,439.002,426.991,439.193,426.635,439.193z"/>
						</g>
					</g>
				</g>
			</g>
		</g>
	</g>
</g>
</svg>
