<?xml version="1.0" encoding="utf-8"?>
<!-- Generator: Adobe Illustrator 27.5.0, SVG Export Plug-In . SVG Version: 6.00 Build 0)  -->
<svg version="1.1" xmlns="http://www.w3.org/2000/svg" xmlns:xlink="http://www.w3.org/1999/xlink" x="0px" y="0px"
	 viewBox="0 0 750 500" style="enable-background:new 0 0 750 500;" xml:space="preserve">
<g id="BACKGROUND">
	<rect style="fill:#E1E3F9;" width="750" height="500"/>
</g>
<g id="OBJECTS">
	<g>
		<g>
			<rect x="598.761" y="439.795" style="fill:#5C2B61;" width="4.231" height="35.85"/>
			<rect x="679.741" y="439.795" style="fill:#5C2B61;" width="4.231" height="35.85"/>
			<rect x="571.704" y="391.022" style="fill:#C4C6FF;" width="117.176" height="57.361"/>
			<rect x="668.328" y="391.022" style="fill:#5C2B61;" width="20.552" height="57.361"/>
			<rect x="577.289" y="439.795" style="fill:#C4C6FF;" width="4.231" height="35.85"/>
			<rect x="658.269" y="439.795" style="fill:#C4C6FF;" width="4.231" height="35.85"/>
			<g>
				<rect x="622.93" y="394.703" style="fill:#FFFFFF;" width="41.41" height="15.191"/>
				<rect x="637.654" y="394.703" style="fill:#5C2B61;" width="10.429" height="2.73"/>
			</g>
			<g>
				<rect x="622.93" y="412.031" style="fill:#FFFFFF;" width="41.41" height="15.191"/>
				<rect x="637.654" y="412.031" style="fill:#5C2B61;" width="10.429" height="2.73"/>
			</g>
			<g>
				<rect x="622.93" y="429.358" style="fill:#FFFFFF;" width="41.41" height="15.191"/>
				<rect x="637.654" y="429.358" style="fill:#5C2B61;" width="10.429" height="2.73"/>
			</g>
			<rect x="575.231" y="394.703" style="fill:#FFFFFF;" width="44.324" height="49.846"/>
			<circle style="fill:#5C2B61;" cx="613.268" cy="401.605" r="2.761"/>
		</g>
		<g>
			<g>
				<path style="fill:#FF565E;" d="M502.556,469.13c-0.27-0.911-1.192-1.45-2.157-1.26l-3.989,0.716l-4.377-0.824l-0.914-4.306
					c0,0-5.963-34.355-6.554-37.883c-0.591-3.528-6.902-37.284-6.902-37.284l-27.828,0.307c0,0-4.903,8.691-5.456,22.188
					c-0.554,13.497-4.987,25.065-4.987,25.065s-12.996,2.196-25.447,21.039c-0.625,0.946-1.306,1.856-2.045,2.717l-5.433,6.331
					l10.044,9.33l0.718-0.766c0.681-0.725,0.744-1.815,0.148-2.547l-2.402-3.065l-1.05-3.634l35.547-19.743
					c0,0,4.496-0.92,6.327-6.595c0.673-2.087,3.28-8.858,6.306-16.583c9.695,17.764,20.439,38.212,22.005,44.343l2.084,8.969
					l16.646-5.553L502.556,469.13z"/>
				<path style="fill:#5C2B61;" d="M409.632,462.248l-3.165,3.688l10.044,9.33l0.718-0.766c0.681-0.725,0.744-1.815,0.148-2.547
					l-2.402-3.065l-1.05-3.634l0.038-0.021L409.632,462.248z"/>
				<path style="fill:#5C2B61;" d="M486.195,475.645l16.646-5.553l-0.285-0.962c-0.27-0.911-1.192-1.45-2.157-1.26l-3.989,0.716
					l-4.377-0.824l-0.131-0.617l-7.099,2.512L486.195,475.645z"/>
				<path style="fill:#1D9DE2;" d="M462.816,350.359l-0.14,20.994c0,0,0.253,7.238,12.573,7.711c0,0,12.234-1.106,17.133-1.276
					l1.303-6.264l-18.075-3.984l-0.446-17.91c0,0-0.772-5.563-7.625-6.943C462.398,341.651,462.816,350.359,462.816,350.359z"/>
				<path style="fill:#1D9DE2;" d="M455.809,340.948c0,0-10.321,3.783-12.751,11.145c-2.43,7.362,8.024,20.552,8.364,25.767
					c0.34,5.215-1.585,10.736-1.585,10.736s2.643,4.192,18.535,3.374c0,0,7.83-1.125,9.293-3.681s1.835-23.313-1.354-32.719
					c-3.188-9.407-6.014-12.065-6.014-12.065S465.059,340.028,455.809,340.948z"/>
				<path style="fill:#FF565E;" d="M454.8,365.112c-2.943,2.451-6.776,3.687-6.776,3.687l-0.145,0.348
					c1.803,3.556,3.413,6.719,3.543,8.713c0.34,5.215-1.585,10.736-1.585,10.736s2.643,4.192,18.535,3.374
					c0,0,7.83-1.125,9.293-3.681s1.835-23.313-1.354-32.719c-0.049-0.144-0.097-0.281-0.145-0.421l-17.578,1.442
					c-1.115,0.091-1.925,1.1-1.773,2.208l0,0C457.454,362.872,457.24,363.079,454.8,365.112z"/>
				<path style="fill:#FF565E;" d="M467.279,342.129l5.668,15.32l3.001-0.636l-4.229-11.431c-0.879-1.367-1.422-1.878-1.422-1.878
					S469.252,342.813,467.279,342.129z"/>
				<path style="fill:#5C2B61;" d="M476.31,355.57c-0.582-1.718-1.152-3.209-1.696-4.502h-8.196c-1.186,0-2.198,0.961-2.26,2.147
					l1.196,24.018c-0.062,1.186,0.849,2.147,2.035,2.147h11.327C478.91,371.841,478.311,361.472,476.31,355.57z"/>
				<path style="fill:#5C2B61;" d="M478.749,377.283l-13.878-4.684l-4.046-0.244c0,0-9.708,0.839-9.403,5.506
					c0.34,5.215-1.585,10.736-1.585,10.736s0.684,1.083,3.442,2.04l23.183-12.579L478.749,377.283z"/>
				<path style="fill:#5C2B61;" d="M465.961,326.819l-10.032,12.285c0,0-2.771,0.894-4.087-1.581
					c-1.903-3.579-1.441-7.911-1.441-7.911L465.961,326.819z"/>
				<path style="fill:#C4C6FF;" d="M461.077,345.566c-0.685,0.633-1.682,0.794-2.536,0.418l-1.405-0.618
					c-1.773-0.789-2.565-2.413-2.331-4.221l0.636-4.901h7.822l-0.782,7.319C462.41,344.196,461.728,344.965,461.077,345.566z"/>
				<path style="fill:#FFFFFF;" d="M465.961,326.819l-5.31-0.148c-0.723-0.02-1.342,0.576-1.351,1.3
					c-0.015,1.19-0.083,0.573-0.332,2.446c-0.259,1.945-1.879,3.043-3.092,3.601c-0.684,0.314-1.446-0.095-1.545-0.82l-0.114-0.831
					c-0.373-0.134-0.767-0.14-1.133,0.014c-0.942,0.397-1.335,1.699-0.877,2.907c0.458,1.209,1.593,1.866,2.535,1.469
					c0.02-0.008,0.038-0.019,0.057-0.028c1.014,3.117,5.168,5.66,7.857,5.66c3.873,0,3.957-4.698,4.319-10.132
					C467.112,330.193,467.123,328.806,465.961,326.819z"/>
				<path style="fill:#C4C6FF;" d="M506.65,377.581c-0.113,2.162-3.909,3.154-6.818,3.154s-3.827-0.993-3.714-3.154H506.65z"/>
				<g>
					<path style="fill:#C4C6FF;" d="M497.111,378.153h-27.267c-1.186,0-2.097-0.961-2.035-2.147l-1.196-24.018
						c0.062-1.186,1.074-2.147,2.26-2.147h27.267c1.186,0,2.097,0.961,2.035,2.147l1.196,24.018
						C499.308,377.191,498.297,378.153,497.111,378.153z"/>
					<path style="fill:#FFFFFF;" d="M497.111,378.153h-21.28c-1.186,0-2.097-0.961-2.035-2.147l-1.196-24.018
						c0.062-1.186,1.074-2.147,2.26-2.147h21.28c1.186,0,2.097,0.961,2.035,2.147l1.196,24.018
						C499.308,377.191,498.297,378.153,497.111,378.153z"/>
				</g>
				<g>
					<path style="fill:#C4C6FF;" d="M504.473,378.153h-27.267c-1.186,0-2.097-0.961-2.035-2.147l-1.196-24.018
						c0.062-1.186,1.074-2.147,2.26-2.147h27.267c1.186,0,2.097,0.961,2.035,2.147l1.196,24.018
						C506.67,377.191,505.659,378.153,504.473,378.153z"/>
					<path style="fill:#FFFFFF;" d="M504.473,378.153h-21.28c-1.186,0-2.097-0.961-2.035-2.147l-1.196-24.018
						c0.062-1.186,1.074-2.147,2.26-2.147h21.28c1.186,0,2.097,0.961,2.035,2.147l1.196,24.018
						C506.67,377.191,505.659,378.153,504.473,378.153z"/>
				</g>
				<g>
					<path style="fill:#C4C6FF;" d="M511.835,378.153h-27.267c-1.186,0-2.097-0.961-2.035-2.147l-1.196-24.018
						c0.062-1.186,1.074-2.147,2.26-2.147h27.267c1.186,0,2.097,0.961,2.035,2.147l1.196,24.018
						C514.032,377.191,513.02,378.153,511.835,378.153z"/>
					<path style="fill:#FFFFFF;" d="M511.835,378.153h-21.28c-1.186,0-2.097-0.961-2.035-2.147l-1.196-24.018
						c0.062-1.186,1.074-2.147,2.26-2.147h21.28c1.186,0,2.097,0.961,2.035,2.147l1.196,24.018
						C514.032,377.191,513.02,378.153,511.835,378.153z"/>
				</g>
				<path style="fill:#1D9DE2;" d="M442.697,357.318l3.098,20.597c0,0,1.369,7.055,13.714,5.624c0,0,12.016-2.965,16.87-3.885
					l0.332-6.339l-18.62-1.125l-3.207-17.484c0,0-0.437-6.953-8.004-5.317C441.648,350.519,442.697,357.318,442.697,357.318z"/>
				<path style="fill:#FF565E;" d="M449.239,344.513l-0.798,0.599c-0.401,0.312-0.797,0.641-1.185,0.988l9.674,12.882l2.453-1.842
					l-9.71-12.931C449.528,344.31,449.383,344.41,449.239,344.513z"/>
				<path style="fill:#FFFFFF;" d="M476.691,373.688h1.813l3.032-2.44c0,0,1.951-1.798,2.474-1.091
					c0.811,1.096-1.582,2.064-1.915,5.041l5.655,2.918l1.89-0.059c0,0-0.805,2.417-1.346,2.624
					c-0.542,0.206-7.299-0.236-7.299-0.236l-4.533-2.388L476.691,373.688z"/>
			</g>
			<polygon style="fill:#5C2B61;" points="462.107,422.333 467.037,410.004 464.572,426.868 			"/>
			<g>
				<path style="fill:#FF565E;" d="M466.936,327.902l-16.962,4.581l-1.987-7.672c-0.467-1.804,0.56-2.719,2.365-3.186l10.429-2.889
					c1.804-0.467,3.645,0.616,4.112,2.42L466.936,327.902z"/>
				<path style="fill:#FFFFFF;" d="M460.559,318.793l-1.504,0.389c-1.926,0.499-3.083,2.465-2.584,4.391l1.986,6.524l8.479-2.196
					l-1.986-6.524C464.451,319.451,463.263,318.032,460.559,318.793z"/>
				<path style="fill:#FF565E;" d="M471.164,326.806l-21.19,5.677l-0.336-1.296l21.19-5.676c0.335-0.087,0.677,0.115,0.764,0.45
					l0.021,0.082C471.701,326.378,471.499,326.72,471.164,326.806z"/>
			</g>
		</g>
		<g>
			<g>
				
					<ellipse transform="matrix(0.7071 -0.7071 0.7071 0.7071 -32.4726 509.1736)" style="fill:#C4C6FF;" cx="598.391" cy="293.785" rx="23.159" ry="23.159"/>
				<circle style="fill:#FFFFFF;" cx="598.391" cy="293.785" r="19.785"/>
				
					<polyline style="fill:none;stroke:#C4C6FF;stroke-width:2.1472;stroke-linecap:round;stroke-linejoin:round;stroke-miterlimit:10;" points="
					598.391,280.595 598.391,293.785 606.673,299.766 				"/>
			</g>
			<path style="fill:#5C2B61;" d="M599.822,313.404c0,0,3.885-8.717,5.01-9.126c1.125-0.409-0.46,4.563-0.46,4.563l7.515,6.48
				c0,0-0.409,1.125-1.534,1.329s-7.055,0-7.055,0l-4.908-1.636L599.822,313.404z"/>
			<path style="fill:#1D9DE2;" d="M598.237,313.224c0,0-5.982,16.411-10.276,20.859c-2.877,2.98-11.826,6.806-17.331,7.669
				c-0.301,0.047-0.571,0.075-0.821,0.09l-0.565-0.79c-0.316-0.441-0.685-0.832-1.094-1.171l4.342-7.139
				c0.222-0.365,0.392-0.761,0.503-1.174l6.223-23.099l-4.448-2.761l-7.873,17.996c0,0-15.899,15.9-16.206,20.961
				c-0.307,5.061-5.521,39.723-5.521,39.723s1.687,3.527,7.346,4.346c4.52,0.653,11.938-0.939,15.272-1.742
				c1.251-0.301,2.217-1.293,2.483-2.553l5.112-27.505l13.343-6.649c10.889-7.876,15.644-33.841,15.644-33.841
				C602.838,313.224,598.237,313.224,598.237,313.224z"/>
			<path style="fill:#FF565E;" d="M545.17,384.389c0,0,1.687,3.527,7.346,4.346c4.52,0.653,11.938-0.939,15.272-1.742
				c1.251-0.301,2.217-1.293,2.483-2.553l4.112-22.125c-8.032-1.542-10.244-7.6-10.85-10.953c-0.244-1.35-1.36-2.369-2.726-2.498
				l-10.448-0.991C549.151,357.932,545.17,384.389,545.17,384.389z"/>
			<g>
				<path style="fill:#5C2B61;" d="M545.17,384.389c0,0-5.746,10.521,1.746,24.018l1.691,20.894l-12.908,46.301l15.796,0.044
					l0.037-1.003c0.036-0.95-0.666-1.755-1.642-1.883l-4.008-0.595l-1.691-2.41l16.487-39.591c0.464-0.922,0.801-1.902,1.004-2.914
					l8.59-42.808L545.17,384.389z"/>
				<path style="fill:#FF565E;" d="M579.724,472.759l-4.008-0.595l-3.336-1.871l0.209-3.172l4.179-38.665
					c0.117-0.907,0.105-1.826-0.037-2.73l-6.459-41.287l-25.102-0.051c-4.754,14.417,9.356,21.165,9.356,21.165
					s7.541,18.775,9.075,21.561c1.534,2.786,1.357,40.007,1.357,40.007l-0.629,8.479l16.999,0.044l0.038-1.003
					C581.401,473.693,580.699,472.888,579.724,472.759z"/>
				<path style="fill:#5C2B61;" d="M564.329,475.601l16.999,0.044l0.038-1.003c0.036-0.95-0.667-1.755-1.642-1.883l-4.008-0.595
					l-3.296-1.848h-7.698L564.329,475.601z"/>
			</g>
			<polygon style="fill:#FFFFFF;" points="558.974,335.54 558.725,340.967 565.857,341.887 566.145,334.083 			"/>
			<path style="fill:#FFFFFF;" d="M566.864,326.54c3.612,7.696,0.46,8.807-2.649,9.987c-3.108,1.18-9.348-1.559-10.993-5.895
				c-1.646-4.336-0.488-9.586,4.259-10.659C560.725,319.239,564.894,322.342,566.864,326.54z"/>
			<path style="fill:#5C2B61;" d="M551.612,324.267c0,0-5.737,4.598-0.767,7.822c2.837,1.84,5.598,5.368,5.598,5.368
				s1.141,2.152,3.834,1.917c2.914-0.254,4.602-1.769,3.682-6.217l-0.998-3.215c0,0,2.454-1.994,0.307-5.675
				c0,0,6.573-7.017-0.153-9.662c-6.825-2.684-11.316,4.989-11.316,4.989S550.056,322.733,551.612,324.267z"/>
			<path style="fill:#FFFFFF;" d="M563.482,329.42c0.761,0.997,0.91,2.162,0.333,2.603c-0.577,0.441-1.662-0.009-2.423-1.006
				c-0.761-0.997-0.91-2.162-0.333-2.603C561.636,327.973,562.721,328.423,563.482,329.42z"/>
			<path style="fill:#5C2B61;" d="M575.172,305.958v-4.699c0,0,0.826-4.343,1.797-3.832c0.427,0.225,0,5.163,0,5.163
				s2.863,2.659,2.914,3.63c0.051,0.971-0.665,2.249-0.665,2.249L575.172,305.958z"/>
			<g>
				<path style="fill:#FF565E;" d="M561.959,352.017l-2.925-0.923c0.127-0.402,1.687-7.823,7.89-10.186
					c1.433-0.546,4.409,0.979,4.409,0.979C565.228,342.231,561.989,351.925,561.959,352.017z"/>
			</g>
		</g>
		
			<line style="fill:none;stroke:#5C2B61;stroke-width:1.5337;stroke-miterlimit:10;" x1="402.778" y1="475.645" x2="693.571" y2="475.645"/>
	</g>
	<g>
		<g>
			<g>
				<path style="fill:#FFFFFF;" d="M54.73,262.378v14.582h-1.12c-4.518,0-8.18,3.662-8.18,8.18l0,0c0,4.518,3.662,8.18,8.18,8.18
					h1.12v14.582c0,1.694,1.373,3.068,3.068,3.068h140.484c1.694,0,3.067-1.373,3.067-3.068v-45.523
					c0-1.694-1.373-3.068-3.067-3.068H57.797C56.103,259.31,54.73,260.684,54.73,262.378z M52.588,287.593
					c-1.355,0-2.454-1.099-2.454-2.454c0-1.355,1.099-2.454,2.454-2.454s2.454,1.099,2.454,2.454
					C55.042,286.495,53.943,287.593,52.588,287.593z"/>
				<path style="fill:#5C2B61;" d="M57.797,304.901v-39.523c0-1.657,1.343-3,3-3h134.484c1.657,0,3,1.343,3,3v39.523
					c0,1.657-1.343,3-3,3H60.797C59.14,307.901,57.797,306.558,57.797,304.901z"/>
				<path style="fill:#C4C6FF;" d="M163.164,307.901v-45.523h32.117c1.657,0,3,1.343,3,3v39.523c0,1.657-1.343,3-3,3H163.164z"/>
				
					<rect x="122.704" y="267.581" transform="matrix(-1.836970e-16 1 -1 -1.836970e-16 430.6052 139.6736)" style="fill:#1D9DE2;" width="45.523" height="35.117"/>
				
					<rect x="87.707" y="267.581" transform="matrix(-1.836970e-16 1 -1 -1.836970e-16 395.6082 174.6706)" style="fill:#FF565E;" width="45.523" height="35.117"/>
			</g>
			<g>
				<g>
					<path style="fill:#FFFFFF;" d="M81.922,316.465l2.352-4.397l-2.761-1.022l0.352-3.169c0.095-0.855,0.728-1.552,1.569-1.729
						l5.696-0.93l1.176,1.892v3.732l1.636,0.204l-0.92,1.636l-1.943,0.307l-1.12,4.825L81.922,316.465z"/>
					<polygon style="fill:#C4C6FF;" points="81.513,311.046 87.597,310.842 89.079,312.989 87.96,317.814 81.922,316.465 
						84.274,312.069 					"/>
				</g>
				<g>
					<path style="fill:#FFFFFF;" d="M152.365,319.895l0.424-4.968l2.872,0.647l1.431-2.849c0.386-0.768,0.235-1.698-0.374-2.305
						l-4.269-3.884l-2.017,0.945l-2.316,3.565h-1.549l0.228,0.718l1.462,1.316l-1.69,4.656L152.365,319.895z"/>
					<polygon style="fill:#C4C6FF;" points="155.661,315.574 150.671,312.087 148.258,313.08 146.568,317.736 152.365,319.895 
						152.789,314.927 					"/>
				</g>
				<g>
					
						<rect x="103.91" y="330.837" transform="matrix(0.9928 0.1196 -0.1196 0.9928 40.852 -10.5846)" style="fill:#FFA6A6;" width="9.369" height="8.329"/>
					<path style="fill:#FFFFFF;" d="M116.307,323.969c0.892,10.31-2.891,11.492-6.675,11.492s-6.851-4.601-6.851-10.276
						s1.369-9.501,5.126-9.948C112.393,314.704,115.664,316.545,116.307,323.969z"/>
					<path style="fill:#5C2B61;" d="M98.691,324.111c0,0,3.015,5.151,2.959,8.782c-0.045,2.926,2.409,3.744,4.09,3.272
						c2.531-0.71,6.033-1.176,6.55-3.26c0.297-1.195,0.204-5.726,0.204-5.726s2.232-4.153,1.636-7.362c0,0,4.659-7.544-1.38-8.129
						c-3.68-0.357-5.93,1.674-8.998,3.067C100.685,316.149,96.194,316.874,98.691,324.111z"/>
					<path style="fill:#FFFFFF;" d="M113.561,325.438c0.539,1.335,0.35,2.671-0.422,2.982c-0.772,0.312-1.836-0.518-2.375-1.853
						c-0.539-1.335-0.35-2.671,0.422-2.982C111.959,323.273,113.022,324.103,113.561,325.438z"/>
				</g>
				<path style="fill:#1D9DE2;" d="M147.379,315.879l-9.114,13.544c0,0-14.792,4.992-21.444,6.506l0,0
					c-2.21-1.703-8.056-0.552-11.363-0.469c-3.308,0.083-2.676,2.012-2.676,2.012l0,0c-3.298-0.504-12.423-1.987-18.285-3.803
					l3.463-15.856c0.29-1.328-0.459-2.68-1.752-3.098c-1.164-0.376-2.664-0.49-4.164,0.435c-3.17,1.955-13.292,19.541-11.247,27.926
					c0,0,8.282,4.09,18.916,6.953c0,0,5.175,9.981,4.285,19.612l-1.422,15.378h31.083l0.687-33.597
					c0.029-1.411,0.921-2.659,2.246-3.145c7.02-2.578,17.349-6.704,19.791-9.475c3.783-4.294,6.724-21.491,6.724-21.491
					C152.185,314.857,147.379,315.879,147.379,315.879z"/>
				<path style="fill:#FF565E;" d="M116.821,335.929L116.821,335.929c-0.002-0.002-0.004-0.003-0.006-0.005l-6.445,18.167
					l2.891,1.026l7.133-20.105C119.065,335.38,117.846,335.696,116.821,335.929z"/>
				<path style="fill:#FF565E;" d="M100.163,337.056c-0.908-0.15-1.932-0.325-3.03-0.522l-1.697,16.584l3.052,0.312L100.163,337.056
					z"/>
				<path style="fill:#FF565E;" d="M92.325,356.665c1.126,3.643,2.099,8.349,1.671,12.977l-1.422,15.378h31.083l0.486-23.796
					c-3.961-0.817-7.224-5.359-8.928-8.228c-0.88-1.481-2.484-2.379-4.206-2.379H98.542c-1.794,0-3.445,0.979-4.306,2.553
					L92.325,356.665z"/>
				<path style="fill:#FF565E;" d="M123.658,385.02h-10.669h-12.235h-8.215c-4.055,11.124,1.161,18.402,1.773,21.962
					c2.249,13.088-3.997,24.756-4.994,27.21c-6.258,15.405-4.405,31.165-3.811,35.036c0.101,0.658,0.151,1.32,0.151,1.985v4.432
					h14.295v-1.039c0-0.985-0.729-1.817-1.705-1.947l-4.013-0.604l-3.656-1.928c0,0,14.874-31.045,16.101-39.02
					c0.509-3.31,1.682-11.809,2.88-20.621c6.654,9.024,7.476,18.858,6.117,21.643c-6.595,13.52-3.257,29.259-1.525,35.378
					c0.548,1.937,0.824,3.938,0.824,5.951v2.187h14.295v-1.039c0-0.985-0.729-1.817-1.705-1.947l-4.013-0.604l-3.391-1.928
					c0,0,7.989-32.67,9.216-40.646C130.606,421.505,123.658,385.02,123.658,385.02z"/>
				<path style="fill:#5C2B61;" d="M127.567,472.659l-4.013-0.604l-3.391-1.928c0,0,0.017-0.071,0.05-0.206l-5.595-0.4
					c0.237,1.297,0.359,2.614,0.359,3.937v2.187h14.295v-1.039C129.272,473.621,128.543,472.789,127.567,472.659z"/>
				<path style="fill:#5C2B61;" d="M85.534,469.428c0.081,0.592,0.124,1.187,0.124,1.785v4.432h14.295v-1.039
					c0-0.985-0.729-1.817-1.705-1.947l-4.013-0.604l-3.656-1.928c0,0,0.119-0.248,0.333-0.698H85.534z"/>
				<polygon style="fill:#5C2B61;" points="109.56,410.486 105.243,406.239 109.075,414.045 				"/>
			</g>
		</g>
		<g>
			<g>
				<path style="fill:#5C2B61;" d="M268.983,475.645h19.155v-7.395h-6.949l-4.544,2.584l-5.377,0.81
					c-1.308,0.174-2.285,1.289-2.285,2.609V475.645z"/>
				<path style="fill:#5C2B61;" d="M314.135,475.645h19.155v-7.395h-6.949l-4.544,2.584l-5.377,0.81
					c-1.308,0.174-2.285,1.289-2.285,2.609V475.645z"/>
			</g>
			<path style="fill:#1D9DE2;" d="M266.5,370.67l6.237-15.681c0,0,1.748-4.188,6.754-3.074c5.006,1.114,5.363,4.678,4.65,7.707
				l-9.552,18.458c-0.691,1.334-2.06,2.175-3.562,2.177c-4.069,0.006-12.584-0.325-20.994-2.791
				c-0.642-0.188-1.191-0.614-1.547-1.18l-0.351-0.558c-1.138-1.806,0.115-4.166,2.249-4.235L266.5,370.67z"/>
			<path style="fill:#1D9DE2;" d="M307.994,384.095c-1.281-4.139-2.735-9.363-3.6-14.165c-0.713-3.959,5.346-11.8,3.564-16.432
				c-0.954-2.479-6.557-4.608-11.635-6.067l0,0l-2.289-3.441c-0.417-0.664-1.19-1.015-1.965-0.892l-7.772,1.228l-2.734,3.735
				l-6.35,2.811c-1.876,0.83-2.99,2.782-2.758,4.82c0.795,6.958,3.46,23.093,11.842,36.117c0,0,6.489,3.863,17.299,2.335
				C306.373,393.468,309.419,388.702,307.994,384.095z"/>
			<path style="fill:#FF565E;" d="M316.036,434.216c-4.514-7.128-4.039-18.769-3.564-27.56c0.475-8.791-3.197-18.579-3.197-18.579
				s-0.845-2.572-1.282-3.983c-0.614-1.984-1.267-4.218-1.877-6.535c-4.177-0.172-7.501-7.052-8.901-10.482
				c-0.471-1.153-1.598-1.903-2.844-1.903h-15.419c-1.408,0-2.634,0.958-2.976,2.324l-0.73,2.919
				c1.805,6.795,4.634,14.524,9.052,21.39l0,0l-9.855,36.347c-0.616,2.272-0.737,4.651-0.355,6.974l5.597,34.013h9.218
				c0,0-1.715-28.272-1.24-34.45c0.475-6.177,6.783-21.866,6.783-21.866l4.551,18.117c0.581,2.313,1.658,4.471,3.156,6.327
				l24.186,30.98h8.226C331.226,454.47,320.55,441.344,316.036,434.216z"/>
			<path style="fill:#FF565E;" d="M297.635,347.82l-5.673,18.438l2.932,0.902l5.653-18.372
				C299.597,348.443,298.615,348.12,297.635,347.82z"/>
			<g>
				<path style="fill:#FFFFFF;" d="M292.544,323.245c-5.351-2.479-8.196,0.475-8.196,0.475c-1.732,1.884-2.8,3.895-3.432,5.829
					l-1.26,0.84c-0.637,0.425-0.507,1.397,0.219,1.639l0.421,0.14c-0.404,2.673-0.092,4.977,0.22,6.271
					c0.624,2.582,4.098,2.853,4.098,2.853l-0.557,5.335c-0.043,0.408,0.067,0.818,0.309,1.149l2.476,3.405l5.604-5.232
					c0.396-0.37,0.587-0.909,0.511-1.446l-0.503-3.568c0,0,0.98-1.871,2.406-6.058C296.287,330.69,297.267,325.433,292.544,323.245z
					"/>
				<path style="fill:#5C2B61;" d="M299.318,325.789c-1.695-4.276-5.704-2.495-10.414-6.237c-1.591-1.264-5.42-3.657-7.496,0.178
					c-1.86,3.436,0.422,7.607,0.422,7.607c1.669-3.53,3.826-4.48,3.826-4.48c3.833,0.068,6.265,4.683,6.265,4.683
					c-0.321,2.216,0.254,3.651,0.885,4.525c-0.157,0.887-0.507,2.583-1.019,3.479c0,0,0.265,1.076,1.114,0.579
					c0.456-0.267,0.871-1.661,1.159-2.895c1.665,1.127-0.998,6.392-0.998,6.392l1.948-1.805
					C298.455,333.778,301.105,330.296,299.318,325.789z"/>
				<path style="fill:#FFFFFF;" d="M296.634,334.957c-0.65,1.126-1.781,1.69-2.527,1.26c-0.745-0.43-0.822-1.692-0.172-2.818
					c0.65-1.126,1.781-1.69,2.526-1.26C297.207,332.57,297.284,333.832,296.634,334.957z"/>
				<path style="fill:#C4C6FF;" d="M284.615,341.292c0,0,4.277,0.264,6.415-2.853c0,0-2.238,4.821-6.732,5.886L284.615,341.292z"/>
			</g>
			<path style="fill:#FFFFFF;" d="M245.85,375.674l-1.133-1.977c-0.563-0.983-0.568-2.179-0.006-3.085
				c0.844-1.36,2.102-3.143,2.921-3.178c1.326-0.057,0.106,2.003,0.106,2.003s1.439-1.613,2.655-1.362
				c1.216,0.251,1.764,4.938,0.716,7.278l-0.615,0.829C249.319,377.769,246.899,377.505,245.85,375.674z"/>
			<g>
				<path style="fill:#1D9DE2;" d="M218.101,294.555l-19.191,12.687c-2.463,1.628-5.81,0.945-7.438-1.517l0,0
					c-1.628-2.463-0.945-5.81,1.518-7.438l19.191-12.687c2.463-1.628,5.81-0.945,7.438,1.517l0,0
					C221.247,289.579,220.564,292.927,218.101,294.555z"/>
				<path style="fill:#FFFFFF;" d="M218.101,294.555l0.64-0.423c-2.463,1.628-5.81,0.945-7.438-1.518l0,0
					c-1.628-2.463-0.945-5.81,1.518-7.438l-0.64,0.423c2.463-1.628,5.81-0.945,7.438,1.517l0,0
					C221.247,289.579,220.564,292.927,218.101,294.555z"/>
				<polyline style="fill:none;stroke:#1D9DE2;stroke-width:1.5337;stroke-linecap:round;stroke-miterlimit:10;" points="
					298.142,442.045 207.639,305.149 225.55,293.307 221.321,286.91 216.203,290.294 				"/>
				
					<line style="fill:none;stroke:#FFFFFF;stroke-width:3.0674;stroke-linecap:round;stroke-linejoin:round;stroke-miterlimit:10;" x1="230.476" y1="339.693" x2="298.142" y2="442.045"/>
			</g>
			<path style="fill:#1D9DE2;" d="M289.003,374.759c0,0,4.098-19.601,11.404-22.63s11.226,3.337,5.88,13.518l-7.691,16.456
				c-0.511,1.093-1.273,2.043-2.228,2.78c-3.682,2.843-11.062,7.458-23.189,8.586l-2.44-5.058
				C270.74,388.411,279.381,384.559,289.003,374.759z"/>
			<path style="fill:#FFFFFF;" d="M273.18,393.469c0,0-1.717,2.102-5.487,2.965l-2.216,0.939l-3.555-4.081
				c0,0-1.69,0.719-1.884-0.541c-0.194-1.261,4.313-3.395,4.313-3.395l6.39-0.945L273.18,393.469z"/>
			<polygon style="fill:#FF565E;" points="279.624,348.918 276.557,350.276 276.557,368.242 279.624,368.242 			"/>
			<polygon style="fill:#5C2B61;" points="294.447,412.826 290.361,406.586 293.428,415.788 			"/>
		</g>
		<g>
			<polygon style="fill:#FFFFFF;" points="256.102,440.37 221.747,440.37 221.747,443.437 222.82,443.437 222.82,475.645 
				255.028,475.645 255.028,443.437 256.102,443.437 			"/>
			<rect x="222.82" y="443.437" style="fill:#C4C6FF;" width="32.208" height="3.067"/>
			<rect x="222.82" y="454.173" style="fill:#1D9DE2;" width="32.208" height="10.736"/>
			<path style="fill:none;stroke:#C4C6FF;stroke-width:0.9202;stroke-miterlimit:10;" d="M250.427,441.903h3.067
				c0,11.012-7.553,19.938-16.871,19.938c-9.318,0-16.871-8.927-16.871-19.938h1.994"/>
		</g>
		<g>
			<polygon style="fill:#FFFFFF;" points="212.084,440.37 177.729,440.37 177.729,443.437 178.803,443.437 178.803,475.645 
				211.011,475.645 211.011,443.437 212.084,443.437 			"/>
			<rect x="178.803" y="443.437" style="fill:#C4C6FF;" width="32.208" height="3.067"/>
			<rect x="178.803" y="454.173" style="fill:#FF565E;" width="32.208" height="10.736"/>
			<path style="fill:none;stroke:#C4C6FF;stroke-width:0.9202;stroke-miterlimit:10;" d="M206.41,441.903h3.068
				c0,11.012-7.553,19.938-16.871,19.938c-9.318,0-16.871-8.927-16.871-19.938h1.534"/>
		</g>
		
			<line style="fill:none;stroke:#5C2B61;stroke-width:1.5337;stroke-miterlimit:10;" x1="70.525" y1="475.645" x2="346.438" y2="475.645"/>
	</g>
	<g>
		<g>
			<rect x="488.802" y="201.364" style="fill:#5C2B61;" width="103.384" height="27.861"/>
			<rect x="483.391" y="75.439" style="fill:#C4C6FF;" width="116.734" height="138.255"/>
			<rect x="576.795" y="75.439" style="fill:#5C2B61;" width="23.33" height="138.255"/>
			<rect x="476.815" y="65.999" style="fill:#5C2B61;" width="128.107" height="9.44"/>
			<rect x="476.815" y="65.999" style="fill:#C4C6FF;" width="106.927" height="9.44"/>
			<rect x="483.391" y="75.439" style="fill:#5C2B61;" width="98.681" height="4.045"/>
			<path style="fill:#FF565E;" d="M527.035,105.295c1.442-2.497,5.046-2.497,6.488,0l13.799,23.901l13.799,23.901
				c1.442,2.497-0.36,5.619-3.244,5.619h-27.599H502.68c-2.884,0-4.686-3.121-3.244-5.619l13.799-23.901L527.035,105.295z"/>
			<polygon style="fill:#FFFFFF;" points="537.634,131.869 529.708,131.869 531.152,115.382 518.189,137.835 526.115,137.835 
				524.671,154.322 			"/>
		</g>
		<g>
			<g>
				<path style="fill:#5C2B61;" d="M638.336,221.751c-0.002-1.52,0.137-3.035,0.414-4.529c1.187-6.399,4.423-24.945,3.203-30.89
					c-1.483-7.228,0.251-48.187,0.251-48.187h-17.68c0,0-2.032,16.31,2.602,37.16c4.633,20.85,5.592,47.209,5.592,47.209
					l-3.679,2.092l-4.354,0.656c-1.059,0.141-1.85,1.044-1.85,2.112v1.128h15.511L638.336,221.751z"/>
				<path style="fill:#FF565E;" d="M656.897,224.531l-4.354,0.656c-1.059,0.141-1.85,1.044-1.85,2.112v1.128h15.922l-1.242-5.666
					c-0.495-2.259-0.752-4.561-0.817-6.872C663.944,194.313,654,179.846,654,179.846l-3.151-20.569
					c1.112-9.819-0.817-21.132-0.817-21.132h-25.508c-0.342,10.432,12.61,34.287,14.148,38.735
					c1.538,4.448,21.502,45.559,21.502,45.559L656.897,224.531z"/>
				<path style="fill:#5C2B61;" d="M656.897,224.531l-4.354,0.656c-1.059,0.141-1.85,1.044-1.85,2.112v1.128h15.922l-1.242-5.666
					c-0.021-0.095-0.039-0.19-0.059-0.285h-5.198L656.897,224.531z"/>
			</g>
			<g>
				<polygon style="fill:#FFFFFF;" points="555.15,157.197 548.212,155.961 538.471,161.715 539.466,165.471 550.778,165.647 
					556.255,161.369 612.593,146.444 611.488,142.273 				"/>
				<polygon style="fill:#1D9DE2;" points="680.763,107.907 681.921,112.274 619.949,128.691 626.668,154.056 688.64,137.639 
					689.797,142.006 704.919,138 695.886,103.901 				"/>
				<path style="fill:#5C2B61;" d="M650.935,147.4c0,0,0.278-0.51,0-1.529c-0.278-1.019-0.371-2.873-0.371-2.873l0.333-1
					l1.659,0.604c0,0,9.172-13.138,9.456-19.113c0.062-1.307-0.127-3.368-0.482-5.815l-12.803,3.823v1.849l-2.702,16.876l0.001,0
					l-0.698,1.94l-1.946,1.853c0,0-1.004,1.853-0.95,2.919c0.029,0.568,0.082,1.241,0.125,1.746
					c0.036,0.428,0.395,0.756,0.824,0.756h0.14c0,0,0,0.059,0.007,0.15l7.092-1.879L650.935,147.4z"/>
				
					<rect x="610.942" y="133.628" transform="matrix(0.9667 -0.2561 0.2561 0.9667 -16.0343 162.8241)" style="fill:#5C2B61;" width="12.576" height="18.711"/>
				
					<rect x="681.057" y="112.387" transform="matrix(0.9667 -0.2561 0.2561 0.9667 -9.3587 179.1387)" style="fill:#5C2B61;" width="4.294" height="26.239"/>
			</g>
			<g>
				<path style="fill:#FFFFFF;" d="M645.187,139.147l-1.085,3.018l-1.946,1.853c0,0-1.004,1.853-0.95,2.919
					c0.029,0.568,0.082,1.241,0.125,1.746c0.037,0.428,0.395,0.756,0.824,0.756h0.14c0,0,0,1.205,0.602,1.344h1.158l0.668-0.324
					l1.926-0.046l3.058-3.012c0,0,0.278-0.51,0-1.529c-0.278-1.019-0.371-2.873-0.371-2.873l0.695-2.085L645.187,139.147z"/>
				<path style="fill:#1D9DE2;" d="M624.213,109.084c0,0-4.315-11.666-1.833-14.895c3.493-4.544,12.494-5.924,16.422-5.547
					c3.928,0.377,13.307,2.872,15.298,4.992c1.991,2.12,6.97,23.883,6.685,29.857c-0.284,5.974-9.456,19.113-9.456,19.113
					l-6.531-2.379l2.702-16.876v-1.849l-22.634,6.214L624.213,109.084z"/>
			</g>
			<g>
				<path style="fill:#FFFFFF;" d="M629.042,71.412c0,0-2.333,5.294-2.541,10.715c-0.208,5.421,1.877,5.421,2.711,5.56l2.641,0.417
					l1.165,6.507c0,0,0.488,0.515,2.727-0.206c2.734-0.88,4.309-2.27,5.044-4.126l-0.387-5.998c0,0,3.544-2.71,3.475-6.255
					c-0.069-3.545-2.711-8.224-7.896-8.896C635.98,69.131,630.786,68.32,629.042,71.412z"/>
				<path style="fill:#C4C6FF;" d="M632.67,92.673c3.131-3.492,4.279-9.851,4.279-9.851l-5.097,5.282L632.67,92.673z"/>
				<path style="fill:#5C2B61;" d="M646.331,72.421c-1.483-5.143-6.188-4.535-10.865-5.722c-7.641-1.94-7.228,5.699-7.228,5.699
					l5.074,2.155c0.063,2.013,0.93,3.654,1.86,4.849c-0.4,1.226-1.508,3.803-3.007,3.665c-1.527-0.141-4.43-2.089-5.422-2.763
					c-0.194-0.132-0.458-0.031-0.514,0.197c-0.15,0.604-0.336,2.079-0.18,4.651c0.235,3.869,5.803,2.954,5.803,2.954
					s3.579-0.834,4.517-2.954c0.938-2.12,1.147-3.51,1.147-3.51s0.174-1.216,1.216-1.842c1.043-0.626,2.85,0.243,2.224,2.467
					c-0.625,2.224-1.876,2.224-1.876,2.224l1.6,4.124l3.265-2.734C646.59,83.448,647.764,77.389,646.331,72.421z"/>
			</g>
			<path style="fill:#FF565E;" d="M648.659,77.015l-0.326-0.08c-0.009-0.002-0.015-0.011-0.013-0.02
				c1.143-5.981-2.386-11.818-8.113-13.221c-2.564-0.628-5.148-0.262-7.377,0.855c-0.003,0.002-0.007,0.002-0.01,0.002l-4.423-0.607
				c-0.008-0.001-0.016,0.004-0.019,0.012l-2.299,6.423c-0.207,0.577-0.816,0.905-1.411,0.759l-1.24-0.304
				c-0.305-0.075-0.644,0.062-0.76,0.354c-0.142,0.355,0.065,0.739,0.423,0.827l25.324,6.204c0.357,0.088,0.719-0.158,0.757-0.538
				C649.202,77.368,648.964,77.09,648.659,77.015z"/>
			<polygon style="fill:#FF565E;" points="647.5,121.499 646.332,112.815 641.204,105.914 624.518,105.914 624.213,109.084 
				624.867,127.713 			"/>
			<path style="fill:#FF565E;" d="M624.612,106.926l2.754-0.185l-1.046-15.626c-0.977,0.494-1.876,1.071-2.651,1.733
				L624.612,106.926z"/>
			<path style="fill:#FF565E;" d="M645.35,89.962l-7.343,17.252l2.54,1.081l7.469-17.548
				C647.147,90.467,646.246,90.203,645.35,89.962z"/>
		</g>
		<g>
			<g>
				<g>
					<polygon style="fill:#FFFFFF;" points="441.063,120.68 445.943,125.51 444.148,134.74 442.487,133.237 441.379,127.779 
						438.057,125.09 					"/>
					<path style="fill:#1D9DE2;" d="M436.159,88.473l-15.242,21.065c-1.695,2.343-1.522,6.321,1.005,7.726l18.983,10.446l3.093-4.6
						l-10.24-12.247l11.734-11.08c0,0,9.78-8.782,4.181-13.369C443.232,81.136,436.159,88.473,436.159,88.473z"/>
					<path style="fill:#5C2B61;" d="M443.998,123.11l-10.24-12.247c0,0-6.706,6.632-11.817,6.411l18.963,10.436L443.998,123.11z"/>
				</g>
				<g>
					<path style="fill:#FF565E;" d="M478.76,226.11l-6.703-1.891l0.837-3.729c11.694-42.783,4.278-89.275,4.278-89.275h-32.515
						c-3.708,15.117,17.577,24.226,17.577,24.226c4.849,19.11,0.963,65.049,0.963,65.049l-1.492,8.648l18.848,0.087l0.005-1.081
						C480.564,227.119,479.795,226.25,478.76,226.11z"/>
					<path style="fill:#5C2B61;" d="M462.621,223.83l-0.915,5.308l18.848,0.087l0.005-1.081c0.005-1.024-0.764-1.894-1.798-2.034
						l-6.703-1.891l0.021-0.094L462.621,223.83z"/>
					<path style="fill:#5C2B61;" d="M444.331,226.11l-4.253-0.648l-2.441-1.115l2.937-3.601
						c13.976-20.821,21.66-65.304,21.66-65.304c-20.691-9.18-17.577-24.226-17.577-24.226c-3.708,15.117,3.06,15.395-0.285,34.797
						c-3.56,20.65-13.78,53.021-13.78,53.021l-3.166,10.121l18.698,0.07l0.005-1.081C446.135,227.119,445.366,226.25,444.331,226.11
						z"/>
				</g>
				<g>
					<path style="fill:#1D9DE2;" d="M466.957,84.412l-21.487-0.159c-2.623,0-4.847,2.522-5.187,3.627
						c-2.611,8.475-0.881,12.486,1.515,17.064c2.023,3.866,3.998,6.205,4.581,8.954c1.378,6.496-1.72,17.317-1.72,17.317h32.468
						h0.047c0.001-14.738,2.463-30.455,0-39.095C475.872,87.557,471.702,84.412,466.957,84.412z"/>
					<path style="fill:#FF565E;" d="M441.797,104.944c2.023,3.866,3.998,6.205,4.581,8.954c1.378,6.496-1.72,17.317-1.72,17.317
						h32.468h0.047c0-6.248,0.443-12.671,0.765-18.658c-8.317-0.221-12.826-8.744-14.45-12.624
						c-0.479-1.143-1.592-1.889-2.832-1.889h-16.369c-1.694,0-3.068,1.373-3.068,3.068v2.706l0,0
						C441.406,104.192,441.599,104.566,441.797,104.944z"/>
				</g>
				<g>
					<g>
						<path style="fill:#FFFFFF;" d="M462.53,67.092v3.201l0,0c0.821,0,1.335-0.889,0.924-1.601L462.53,67.092z"/>
						<path style="fill:#FFFFFF;" d="M462.778,71.673v-5.321c0-3.604-2.949-6.552-6.552-6.552c-3.604,0-6.552,2.948-6.552,6.552
							v11.873l2.235,6.027h10.131l-2.365-7.016C461.534,76.077,462.778,74.014,462.778,71.673z"/>
						<path style="fill:#5C2B61;" d="M462.005,58.88l-2.994,0.163c-3.459-0.114-6.58-0.428-7.376-0.428
							c-3.829,0-6.933,3.476-6.933,7.765c0,1.867,0.588,3.579,1.568,4.918c0.564,0.771,0.829,1.72,0.685,2.664l-0.218,1.421
							c-0.265,1.73,1.074,3.289,2.824,3.289h2.555c1.089,0,2.083-0.619,2.564-1.596l3.719-7.565
							c0.376-0.766,0.572-1.608,0.572-2.461l0.511-3.375c0-0.498,0.404-0.902,0.902-0.902h1.655c0.846,0,1.532-0.686,1.532-1.532
							v-0.83C463.571,59.551,462.864,58.86,462.005,58.88z"/>
						<path style="fill:#FFFFFF;" d="M459.07,68.515c0.186,1.171-0.439,2.244-1.395,2.395c-0.956,0.151-1.881-0.675-2.066-1.847
							c-0.186-1.171,0.439-2.244,1.395-2.395C457.96,66.517,458.885,67.344,459.07,68.515z"/>
					</g>
					<path style="fill:#1D9DE2;" d="M465.381,84.412H448.04c0-2.503,0.308-4.532,5.096-4.532
						C457.925,79.881,465.381,81.91,465.381,84.412z"/>
				</g>
				<g>
					<path style="fill:#FFFFFF;" d="M475.553,120.68l-3.327,2.591l-1.34,0.595c-0.807,0.359-1.127,1.336-0.689,2.103l2.029,3.55
						l5.003,2.065l0.274,1.972l1.13-0.715l-0.365-3.559l-2.403-3.393l2.403-1.669L475.553,120.68z"/>
					<path style="fill:#1D9DE2;" d="M476.838,89.095l18.74,16.785c0,0,4.43,4.182,1.463,8.386
						c-2.366,3.353-6.702,7.108-21.414,12.17l-2.721-4.26l10.26-11.501l-15.296-9.032c0,0-10.913-6.633-4.74-13.568
						C469.154,81.307,476.838,89.095,476.838,89.095z"/>
					<path style="fill:#5C2B61;" d="M497.041,114.265c0.243-0.345,0.432-0.689,0.583-1.031c-5.129,3.637-14.458-2.56-14.458-2.56
						l-10.26,11.501l2.721,4.26C490.339,121.373,494.675,117.618,497.041,114.265z"/>
				</g>
			</g>
			<path style="fill:#FF565E;" d="M443.098,66.815l0.334-0.033c0.009-0.001,0.016-0.009,0.016-0.018
				c-0.286-6.082,1.254-10.947,9.9-11.942c2.623-0.302,5.133,0.468,7.182,1.889c0.003,0.002,0.006,0.003,0.01,0.003l2.317,0.025
				c0.008,0,0.016,0.006,0.017,0.014l1.369,6.683c0.123,0.601,0.68,1.011,1.29,0.951l1.271-0.125
				c0.312-0.031,0.629,0.152,0.703,0.457c0.09,0.371-0.169,0.723-0.535,0.759l-23.8,2.563c-0.366,0.036-0.689-0.258-0.673-0.64
				C442.512,67.087,442.786,66.846,443.098,66.815z"/>
			<path style="fill:#FF565E;" d="M469.76,84.79c-0.898-0.246-1.839-0.378-2.804-0.378l-1.315-0.01l-6.267,16.487l3.727,1.417
				L469.76,84.79z"/>
			<path style="fill:#FF565E;" d="M442.847,100.571l3.974-0.332l-1.336-15.986l-0.016,0c-1.505,0-3.288-0.006-4.25,0.911
				L442.847,100.571z"/>
		</g>
		
			<line style="fill:none;stroke:#5C2B61;stroke-width:1.5337;stroke-miterlimit:10;" x1="399.404" y1="229.225" x2="696.945" y2="229.225"/>
	</g>
	<g>
		<g>
			<g>
				<g>
					<polyline style="fill:none;stroke:#5C2B61;stroke-width:1.5337;stroke-miterlimit:10;" points="149.276,229.225 127.804,85.3 
						96.44,85.3 117.912,229.225 					"/>
					
						<line style="fill:none;stroke:#5C2B61;stroke-width:1.5337;stroke-miterlimit:10;" x1="129.635" y1="97.57" x2="98.271" y2="97.57"/>
					
						<line style="fill:none;stroke:#5C2B61;stroke-width:1.5337;stroke-miterlimit:10;" x1="131.465" y1="109.839" x2="100.102" y2="109.839"/>
					
						<line style="fill:none;stroke:#5C2B61;stroke-width:1.5337;stroke-miterlimit:10;" x1="133.342" y1="122.416" x2="102.576" y2="122.416"/>
					
						<line style="fill:none;stroke:#5C2B61;stroke-width:1.5337;stroke-miterlimit:10;" x1="135.218" y1="134.992" x2="103.854" y2="134.992"/>
					
						<line style="fill:none;stroke:#5C2B61;stroke-width:1.5337;stroke-miterlimit:10;" x1="137.094" y1="147.569" x2="105.73" y2="147.569"/>
					
						<line style="fill:none;stroke:#5C2B61;stroke-width:1.5337;stroke-miterlimit:10;" x1="138.669" y1="160.145" x2="107.607" y2="160.145"/>
					
						<line style="fill:none;stroke:#5C2B61;stroke-width:1.5337;stroke-miterlimit:10;" x1="140.847" y1="172.722" x2="109.483" y2="172.722"/>
					
						<line style="fill:none;stroke:#5C2B61;stroke-width:1.5337;stroke-miterlimit:10;" x1="142.723" y1="185.298" x2="111.359" y2="185.298"/>
					
						<line style="fill:none;stroke:#5C2B61;stroke-width:1.5337;stroke-miterlimit:10;" x1="144.599" y1="197.875" x2="113.235" y2="197.875"/>
					
						<line style="fill:none;stroke:#5C2B61;stroke-width:1.5337;stroke-miterlimit:10;" x1="146.476" y1="210.451" x2="115.112" y2="210.451"/>
				</g>
				<g>
					<polyline style="fill:none;stroke:#C4C6FF;stroke-width:1.5337;stroke-miterlimit:10;" points="57.153,229.225 78.625,85.3 
						109.989,85.3 88.517,229.225 					"/>
					
						<line style="fill:none;stroke:#C4C6FF;stroke-width:1.5337;stroke-miterlimit:10;" x1="76.795" y1="97.57" x2="108.158" y2="97.57"/>
					
						<line style="fill:none;stroke:#C4C6FF;stroke-width:1.5337;stroke-miterlimit:10;" x1="74.964" y1="109.839" x2="106.328" y2="109.839"/>
					
						<line style="fill:none;stroke:#C4C6FF;stroke-width:1.5337;stroke-miterlimit:10;" x1="73.088" y1="122.416" x2="103.854" y2="122.416"/>
					
						<line style="fill:none;stroke:#C4C6FF;stroke-width:1.5337;stroke-miterlimit:10;" x1="71.211" y1="134.992" x2="102.575" y2="134.992"/>
					
						<line style="fill:none;stroke:#C4C6FF;stroke-width:1.5337;stroke-miterlimit:10;" x1="69.335" y1="147.569" x2="100.699" y2="147.569"/>
					
						<line style="fill:none;stroke:#C4C6FF;stroke-width:1.5337;stroke-miterlimit:10;" x1="67.76" y1="160.145" x2="98.823" y2="160.145"/>
					
						<line style="fill:none;stroke:#C4C6FF;stroke-width:1.5337;stroke-miterlimit:10;" x1="65.583" y1="172.722" x2="96.947" y2="172.722"/>
					
						<line style="fill:none;stroke:#C4C6FF;stroke-width:1.5337;stroke-miterlimit:10;" x1="63.706" y1="185.298" x2="95.07" y2="185.298"/>
					
						<line style="fill:none;stroke:#C4C6FF;stroke-width:1.5337;stroke-miterlimit:10;" x1="61.83" y1="197.875" x2="93.194" y2="197.875"/>
					
						<line style="fill:none;stroke:#C4C6FF;stroke-width:1.5337;stroke-miterlimit:10;" x1="59.954" y1="210.451" x2="91.318" y2="210.451"/>
				</g>
			</g>
			<g>
				<g>
					<path style="fill:#C4C6FF;" d="M78.043,60.087h82.483c2.761,0,5-2.239,5-5V33.81c0-2.761-2.239-5-5-5H78.043
						c-2.761,0-5,2.239-5,5v21.277C73.043,57.848,75.281,60.087,78.043,60.087z"/>
					
						<rect x="86.808" y="55.332" transform="matrix(-1 -1.224647e-16 1.224647e-16 -1 238.569 115.4189)" style="fill:#5C2B61;" width="64.953" height="4.754"/>
					<rect x="88.61" y="58.093" style="fill:#C4C6FF;" width="61.349" height="3.221"/>
					<polyline style="fill:none;stroke:#5C2B61;stroke-width:0.6135;stroke-miterlimit:10;" points="83.391,28.81 83.391,49.678 
						155.178,49.678 155.178,28.81 					"/>
					<g>
						
							<rect x="89.875" y="32.193" transform="matrix(-1 -1.224647e-16 1.224647e-16 -1 238.569 65.3065)" style="fill:#5C2B61;" width="58.818" height="0.92"/>
						
							<rect x="89.875" y="34.034" transform="matrix(-1 -1.224647e-16 1.224647e-16 -1 238.569 68.9874)" style="fill:#5C2B61;" width="58.818" height="0.92"/>
						
							<rect x="89.875" y="36.181" transform="matrix(-1 -1.224647e-16 1.224647e-16 -1 238.569 73.2818)" style="fill:#5C2B61;" width="58.818" height="0.92"/>
					</g>
					<path style="fill:#FF565E;" d="M149.959,46.311c0,0.681,0.553,1.234,1.234,1.234c0.682,0,1.234-0.552,1.234-1.234
						c0-0.682-0.553-1.234-1.234-1.234C150.511,45.076,149.959,45.629,149.959,46.311z"/>
				</g>
				<g>
					<path style="fill:#1D9DE2;" d="M84.612,41.404l-24.306,6.981c0,0-4.249,2.99,0,7.868l9.631,6.37l2.684-5.48l-2.684-2.779
						l14.676-2.351c0,0,3.708-0.639,4.208-5.045C89.186,43.752,86.189,40.951,84.612,41.404z"/>
					<polygon style="fill:#5C2B61;" points="60.527,56.4 69.936,54.365 72.621,57.144 69.936,62.624 					"/>
					<path style="fill:#FFFFFF;" d="M89.289,36.751v-7.508c0-3.311,2.684-5.995,5.995-5.995c3.311,0,5.995,2.684,5.995,5.995V31.2
						l2.054,3.896h-2.054v1.614c0,2.621-2.125,4.746-4.746,4.746h-1.757l-2.79,4.833l-5.609-4.605L89.289,36.751z"/>
					<path style="fill:#5C2B61;" d="M64.651,151.623c0,0-1.184-20.701,5.222-30.069c3.41-4.987-4.394-23.643-1.259-44.392
						l20.472,5.622c-0.614,6.278-5.048,47.359-18.114,66.846c-0.997,1.486-1.742,3.125-2.224,4.849l-0.065,0.231l2.851,1.621
						l3.487,0.525c0.848,0.113,1.481,0.836,1.481,1.691v0.903h-12.05L64.651,151.623z"/>
					<path style="fill:#5C2B61;" d="M97.352,28.501c0,0,5.444-0.548,6.212-3.758c0.767-3.209-3.298-3.911-4.755-2.147
						c0,0-6.231-2.147-9.662,1.61c-3.432,3.758-1.687,8.623-0.383,10.561c0,0-1.479,1.601,0.334,2.307
						c1.813,0.705,4.609-2.618,4.285-4.33C93.382,32.745,97.889,32.719,97.352,28.501z"/>
					<path style="fill:#FFFFFF;" d="M91.503,33.339c0.207,1.333,1.143,2.295,2.092,2.148c0.949-0.147,1.551-1.347,1.344-2.68
						c-0.207-1.333-1.143-2.295-2.092-2.148C91.898,30.806,91.297,32.006,91.503,33.339z"/>
					<path style="fill:#C4C6FF;" d="M94.777,41.456c0,0-2.251-0.997-2.552-3.38l-0.238,8.213L94.777,41.456z"/>
					<path style="fill:#FFFFFF;" d="M122.937,63.007c0,0,2.087-4.058,4.167-4.057c0,0,0.561,0.346-1.327,2.686
						c0,0,2.669-1.601,5.338-1.355c0,0,2.053,4.516-4.722,6.405l-2.618,0.681L122.937,63.007z"/>
					<path style="fill:#1D9DE2;" d="M83.566,41.608c0.946-0.576,2.158-0.479,3.012,0.226l8.302,6.847
						c0.477,0.393,0.868,0.881,1.148,1.432l7.842,14.432l19.221-1.819l1.503,4.564l-22.926,6.368
						c-2.464,0.69-5.078-0.417-6.298-2.667l-3.539-6.531c-1.347,6.607-2.438,14.074-2,19.555L68.614,78.39
						C68.614,78.39,65.821,52.413,83.566,41.608z"/>
					<path style="fill:#FF565E;" d="M72.953,53.404c-0.001,0-0.001,0-0.002-0.001c0.179-0.358,0.367-0.713,0.56-1.066
						c0.042-0.078,0.085-0.155,0.128-0.233c0.075-0.135,0.151-0.269,0.228-0.403c0.05-0.087,0.1-0.173,0.151-0.259
						c0.076-0.129,0.151-0.259,0.229-0.387c0,0,0,0,0-0.001h0c1.93-3.182,4.488-6.129,7.869-8.497
						c-0.088,0.105-4.619,5.515-6.605,8.873l6.73,2.003l10.402-6.599l1.702,1.404l-9.266,7.022l6.213,11.583l0.034,0.198
						c-1.099,5.91-1.878,12.196-1.496,16.973L68.614,78.39C68.614,78.39,67.172,64.966,72.953,53.404z"/>
					<path style="fill:#5C2B61;" d="M88.277,57.567l3.554,6.893C90.844,69.3,89.997,74.6,89.786,79.245
						C88.018,70.926,88.277,57.567,88.277,57.567z"/>
					<path style="fill:#FF565E;" d="M68.614,78.39l21.218,5.625c0,0,24.993,13.915,21.144,25.905
						c-3.849,11.991-14.644,26.12-14.644,26.12l3.015,3.104l4.088,1.886c1,0.44,1.518,1.553,1.214,2.602l-0.322,1.107l-15.228-4.424
						l2.733-7.3l4.868-23.833C96.699,109.18,68.885,103.555,68.614,78.39z"/>
					<path style="fill:#5C2B61;" d="M104.326,144.738l-15.228-4.424l2.204-5.887l5.029,1.614l3.015,3.104l4.088,1.886
						c1,0.44,1.518,1.553,1.214,2.602L104.326,144.738z"/>
					
						<rect x="82.909" y="80.852" transform="matrix(-0.7514 -0.6598 0.6598 -0.7514 91.0826 204.6093)" style="fill:#1D9DE2;" width="2.352" height="8.589"/>
					<polygon style="fill:#5C2B61;" points="96.699,109.18 102.49,109.18 96.106,112.085 					"/>
				</g>
			</g>
		</g>
		<g>
			<g>
				<path style="fill:#5C2B61;" d="M275.592,168.595h-5.337v-30.674h5.337c5.523,0,10,4.477,10,10v10.674
					C285.592,164.118,281.115,168.595,275.592,168.595z"/>
				<rect x="147.665" y="177.184" style="fill:#5C2B61;" width="12.276" height="7.055"/>
				<rect x="255.333" y="177.184" style="fill:#5C2B61;" width="12.276" height="7.055"/>
				<path style="fill:#C4C6FF;" d="M272.257,179.776H143.463c-2.761,0-5-2.239-5-5V85.085c0-2.761,2.239-5,5-5h128.794
					c2.761,0,5,2.239,5,5v89.691C277.257,177.537,275.018,179.776,272.257,179.776z"/>
				<path style="fill:none;stroke:#5C2B61;stroke-width:0.6135;stroke-miterlimit:10;" d="M150.733,166.494v-65.151
					c0-2.761,2.239-5,5-5h61.924c2.761,0,5,2.239,5,5v65.151c0,2.761-2.239,5-5,5h-61.924
					C152.971,171.494,150.733,169.255,150.733,166.494z"/>
				<circle style="fill:#5C2B61;" cx="186.695" cy="132.594" r="29.936"/>
				<path style="fill:#5C2B61;" d="M154.606,102.658c0-1.189,0.964-2.154,2.154-2.154c1.189,0,2.154,0.964,2.154,2.154
					c0,1.189-0.964,2.154-2.154,2.154C155.57,104.812,154.606,103.847,154.606,102.658z"/>
				<path style="fill:#5C2B61;" d="M213.654,102.658c0-1.189,0.964-2.154,2.154-2.154c1.189,0,2.154,0.964,2.154,2.154
					c0,1.189-0.964,2.154-2.154,2.154C214.618,104.812,213.654,103.847,213.654,102.658z"/>
				<path style="fill:#5C2B61;" d="M154.606,164.683c0-1.189,0.964-2.154,2.154-2.154c1.189,0,2.154,0.964,2.154,2.154
					c0,1.189-0.964,2.154-2.154,2.154C155.57,166.836,154.606,165.872,154.606,164.683z"/>
				<path style="fill:#5C2B61;" d="M213.654,164.683c0-1.189,0.964-2.154,2.154-2.154c1.189,0,2.154,0.964,2.154,2.154
					c0,1.189-0.964,2.154-2.154,2.154C214.618,166.836,213.654,165.872,213.654,164.683z"/>
				<g>
					<path style="fill:#FFFFFF;" d="M187.768,108.112c-3.231,0-6.322,0.598-9.168,1.689c-4.702,1.802-7.935,8.55-2.774,11.532l0,0
						c4.62,1.955,8.286,5.651,10.203,10.287l0,0c0.401,0.971,1.697,1.155,2.353,0.334l7.845-9.819
						C203.998,108.535,187.768,108.112,187.768,108.112z"/>
					<path style="fill:#FFFFFF;" d="M167.754,149.773c2.285,2.285,4.893,4.047,7.677,5.289c4.599,2.051,11.657-0.435,10.115-6.193
						l0,0c-1.885-4.65-1.863-9.854,0.06-14.488l0,0c0.403-0.97-0.384-2.017-1.428-1.9l-12.49,1.396
						C156.578,137.998,167.754,149.773,167.754,149.773z"/>
					<path style="fill:#FFFFFF;" d="M209.636,147.139c1.75-2.716,2.921-5.638,3.546-8.622c1.032-4.929-2.891-11.301-8.192-8.577l0,0
						c-4.146,2.825-9.237,3.905-14.173,3.006l0,0c-1.034-0.188-1.89,0.801-1.555,1.797l4.006,11.913
						C200.491,160.553,209.636,147.139,209.636,147.139z"/>
				</g>
				
					<line style="fill:none;stroke:#C4C6FF;stroke-width:1.8944;stroke-miterlimit:10;" x1="162.281" y1="101.878" x2="162.281" y2="164.683"/>
				
					<line style="fill:none;stroke:#C4C6FF;stroke-width:1.8944;stroke-miterlimit:10;" x1="168.415" y1="101.878" x2="168.415" y2="164.683"/>
				
					<line style="fill:none;stroke:#C4C6FF;stroke-width:1.8944;stroke-miterlimit:10;" x1="174.55" y1="101.878" x2="174.55" y2="164.683"/>
				
					<line style="fill:none;stroke:#C4C6FF;stroke-width:1.8944;stroke-miterlimit:10;" x1="180.685" y1="101.878" x2="180.685" y2="164.683"/>
				
					<line style="fill:none;stroke:#C4C6FF;stroke-width:1.8944;stroke-miterlimit:10;" x1="186.82" y1="101.878" x2="186.82" y2="164.683"/>
				
					<line style="fill:none;stroke:#C4C6FF;stroke-width:1.8944;stroke-miterlimit:10;" x1="192.955" y1="101.878" x2="192.955" y2="164.683"/>
				
					<line style="fill:none;stroke:#C4C6FF;stroke-width:1.8944;stroke-miterlimit:10;" x1="199.09" y1="101.878" x2="199.09" y2="164.683"/>
				
					<line style="fill:none;stroke:#C4C6FF;stroke-width:1.8944;stroke-miterlimit:10;" x1="205.225" y1="101.878" x2="205.225" y2="164.683"/>
				
					<line style="fill:none;stroke:#C4C6FF;stroke-width:1.8944;stroke-miterlimit:10;" x1="211.36" y1="101.878" x2="211.36" y2="164.683"/>
				
					<line style="fill:none;stroke:#5C2B61;stroke-width:0.6135;stroke-miterlimit:10;" x1="138.463" y1="88.702" x2="277.257" y2="88.702"/>
				<path style="fill:#FFFFFF;" d="M249.852,110.616c0,1.043-0.845,1.888-1.888,1.888c-1.043,0-1.888-0.845-1.888-1.888
					c0-1.043,0.845-1.888,1.888-1.888C249.007,108.728,249.852,109.573,249.852,110.616z"/>
				<path style="fill:#FF565E;" d="M249.852,104.546c0,1.043-0.845,1.888-1.888,1.888c-1.043,0-1.888-0.845-1.888-1.888
					c0-1.043,0.845-1.888,1.888-1.888C249.007,102.658,249.852,103.503,249.852,104.546z"/>
			</g>
			<g>
				<path style="fill:#FF565E;" d="M327.027,185.841l-0.23-18.803c2.505-11.554,0-21.012,0-21.012s5.061-34.355,1.994-40.184
					l-11.532-4.706h-6.291c0,0-8.342,2.722-9.19,3.012l-14.344,4.902l3.669,9.111c0,0,5.417-1.256,9.895-2.314
					c0.295,2.909,0.741,5.963,1.414,8.553c0.91,3.502,1.053,8.315,0.94,12.512l-0.001,0l-7.479,43.14l3.349,43.174
					c-2.137,0.791-10.214,2.921-10.301,5.058h17.433l-1.227-5.058c0.722-2.805,8.372-30.35,4.373-37.386l-0.891-2.721
					c0,0,1.989-4.321,4.55-10.278c0.453,6.066,0.943,12.744,0.943,12.744c0.331,2.467-0.946,13.91-0.464,17.779
					c0.598,4.798,5.548,18.794,6.603,21.74c-0.928,0.569-1.864,1.253-2.647,1.866c-0.681,0.532-0.301,1.625,0.563,1.625h8.606
					c0.742,0,1.17-0.837,0.739-1.441c-0.57-0.797-1.352-1.758-2.21-2.433C326.205,220.96,330.673,201.14,327.027,185.841z"/>
				<path style="fill:#5C2B61;" d="M320.237,225.106c-0.928,0.569-1.864,1.253-2.647,1.866c-0.681,0.532-0.301,1.625,0.563,1.625
					h8.606c0.742,0,1.17-0.837,0.739-1.441c-0.57-0.797-1.352-1.758-2.21-2.433C322.292,222.921,320.237,225.106,320.237,225.106z"
					/>
				<path style="fill:#5C2B61;" d="M299.194,222.898L299.194,222.898l0.025,0.329c-2.137,0.791-10.214,2.921-10.301,5.058h17.433
					l-1.206-4.972L299.194,222.898z"/>
				<g>
					<g>
						<path style="fill:#FFFFFF;" d="M302.999,104.48l-15.35,4.775l-13.194-11.356l-2.309,2.159c0,0,10.724,16.402,14.124,18.205
							l17.915-4.464c0,0,5.464-0.765,5.854-4.832C310.611,103.009,302.999,104.48,302.999,104.48z"/>
						<path style="fill:#1D9DE2;" d="M272.147,100.059c0,0-2.178-1.329-1.334-3.354c1.1-2.64,0.894-4.125,0.894-4.125l0.572,0.112
							c0.355,0.069,0.638,0.34,0.723,0.692l0.09,2.49l3.48-1.556l0.686-2.224c0,0,0.954,2.559,0.772,3.99
							c-0.124,0.969-1.878,2.464-1.878,2.464l0.605,1.332l-3.283,2.173L272.147,100.059z"/>
					</g>
					<g>
						<path style="fill:#1D9DE2;" d="M317.259,101.137h-6.291c0,0-8.342,2.722-9.19,3.012l-14.344,4.902l3.669,9.111
							c0.7-0.164,9.216-2.154,9.895-2.314c0.164,1.618,0.377,3.277,0.647,4.88l1.946-4.059h17.484c0,0,0.549,6.595,7.769,12.497
							c0.942-9.599,1.539-20.299-0.052-23.323L317.259,101.137z"/>
						<path style="fill:#FF565E;" d="M322.135,103.127l-3.109,13.542h2.048c0,0,0.013,0.15,0.058,0.422l3.017-13.142
							L322.135,103.127z"/>
						<path style="fill:#FF565E;" d="M304.681,103.192c-0.839,0.275-1.591,0.522-2.131,0.7l0.35,14.148l0.033-0.001l0.657-1.371
							h1.424L304.681,103.192z"/>
						<polygon style="fill:#5C2B61;" points="300.997,115.848 300.571,109.784 297.507,116.669 						"/>
					</g>
					<g>
						<path style="fill:#C4C6FF;" d="M318.035,91.473c-0.486,0.916-0.274,1.98,0.473,2.377c0.748,0.396,1.748-0.025,2.234-0.941
							c0.486-0.916,0.274-1.98-0.474-2.377S318.521,90.557,318.035,91.473z"/>
						<path style="fill:#5C2B61;" d="M310.594,82.46c-2.301,0.56-2.934,2.76-2.934,4.737v4.539c0,2.578,2.11,4.688,4.688,4.688
							h3.245c2.578,0,4.688-2.11,4.688-4.688c0,0-0.043-4.064-0.088-5.434C320.103,84.246,319.183,81.384,310.594,82.46z"/>
						<path style="fill:#FFFFFF;" d="M314.96,104.996h-2.291c-1.752,0-3.172-1.42-3.172-3.172l0.447-7.06h8.636l-0.447,7.06
							C318.133,103.576,316.712,104.996,314.96,104.996z"/>
						<path style="fill:#C4C6FF;" d="M309.612,100.001c0.862,1.05,2.052,1.669,3.509,1.669h1.741c1.264,0,2.512-0.385,3.357-1.205
							l0.361-5.701h-8.636L309.612,100.001z"/>
						<path style="fill:#FFFFFF;" d="M315.897,87.569c-1.699,0-3.221-0.451-4.253-1.165L309,92.778l-0.297-2.297
							c-0.381-0.138-0.784-0.133-1.133,0.052c-0.747,0.397-0.96,1.461-0.473,2.377c0.358,0.676,0.996,1.081,1.606,1.088v1.26
							c0,2.578,2.11,4.688,4.688,4.688h1.741c2.578,0,4.688-2.11,4.688-4.688v-6.895c0-0.559-0.104-1.094-0.286-1.593
							C318.552,87.268,317.284,87.569,315.897,87.569z"/>
						<path style="fill:#5C2B61;" d="M319.819,95.258v-1.525c0,0-3.508-1.739-9.684,0c0,0-0.439-0.651-0.591-2.269L309,92.778
							l-0.191-1.482l0,0l-0.105,2.702l0.025,1.74c0.242,2.355,2.247,4.208,4.663,4.208h1.741
							C317.71,99.946,319.819,97.836,319.819,95.258z"/>
					</g>
					<path style="fill:#FFFFFF;" d="M324.756,110.575c-2.302,4.165,2.454,19.938,2.454,19.938
						c-1.883,10.8-6.888,17.629-6.888,17.629l-3.771,3.516c0,0-1.994,3.445-1.296,4.186c0.699,0.741,1.483-0.498,1.483-0.498
						l4.185,1.071l1.031-1.621c2.087-2.276,2.262-4.435,2.262-4.435c7.458-6.236,10.217-12.613,11.348-16.149
						c0.293-0.917,0.364-1.887,0.204-2.836l-1.657-13.809C333.011,108.454,327.809,105.05,324.756,110.575z"/>
					<path style="fill:#1D9DE2;" d="M315.254,155.844c0.699,0.741,1.483-0.498,1.483-0.498l4.185,1.071l1.031-1.621
						c2.087-2.276,2.262-4.435,2.262-4.435l-3.895-2.218l-3.771,3.516C316.55,151.659,314.556,155.103,315.254,155.844z"/>
					<g>
						<path style="fill:#1D9DE2;" d="M325.479,129.615h10.367c0,0,0.489-22.916-7.722-24.045
							C318.579,104.258,325.479,129.615,325.479,129.615z"/>
					</g>
				</g>
				<polygon style="fill:#5C2B61;" points="313.156,172.842 310.071,157.507 311.282,177.149 				"/>
				<rect x="305.891" y="124.379" style="fill:#1D9DE2;" width="12.688" height="3.528"/>
			</g>
		</g>
		
			<line style="fill:none;stroke:#5C2B61;stroke-width:1.5337;stroke-miterlimit:10;" x1="46.174" y1="229.225" x2="345.694" y2="229.225"/>
	</g>
	<path style="fill:none;stroke:#5C2B61;stroke-width:0.6135;stroke-miterlimit:10;" d="M258.813,171.494h-21.595
		c-2.761,0-5-2.239-5-5v-65.07c0-2.761,2.239-5,5-5h21.595c2.761,0,5,2.239,5,5v65.07
		C263.813,169.255,261.574,171.494,258.813,171.494z"/>
</g>
</svg>
